<?xml version="1.0" encoding="UTF-8"?><svg id="Capa_1" xmlns="http://www.w3.org/2000/svg" viewBox="0 0 150 12"><defs><style>.cls-1{fill:#f8ba80;}.cls-2{fill:#fff;}.cls-3{fill:#fcc411;}.cls-4{fill:#e74329;}.cls-5{fill:#221e20;}.cls-6{fill:#0db2e8;}.cls-7{fill:#59aa47;}.cls-8{fill:#3a4449;}.cls-9{fill:#33baed;}</style></defs><g><g><path class="cls-9" d="M1.83,5.71v-1.99c.08-.02,.17-.03,.27-.04,.09,0,.18,0,.27,0,.34,0,.59,.09,.76,.26,.17,.17,.25,.43,.25,.78s-.09,.62-.26,.78-.44,.25-.8,.25c-.15,0-.31,0-.48-.03h-.01Zm.97-.25c.12-.06,.2-.15,.26-.27s.09-.29,.09-.48c0-.29-.06-.51-.19-.64-.13-.14-.32-.2-.59-.2-.1,0-.2,0-.32,.03v1.65c.09,.01,.19,.02,.3,.02,.18,0,.33-.03,.44-.09v-.02Z"/><path class="cls-9" d="M3.73,3.87s-.04-.06-.04-.1,0-.08,.04-.1,.06-.04,.11-.04,.09,0,.11,.04c.03,.02,.04,.06,.04,.1s0,.08-.04,.1-.06,.04-.11,.04-.09,0-.11-.04Zm0,1.85v-1.49h.22v1.49h-.22Z"/><path class="cls-9" d="M4.37,4.23h.18l.02,.2h.01c.05-.07,.11-.12,.19-.16s.16-.06,.25-.06c.04,0,.08,0,.12,.01v.21h-.13c-.08,0-.16,.02-.23,.05-.08,.04-.14,.09-.19,.16v1.09h-.22v-1.49h0Z"/><path class="cls-9" d="M6.43,5.05h-.96c0,.13,.02,.23,.06,.3,.04,.08,.09,.13,.17,.17,.07,.03,.17,.05,.28,.05s.23-.02,.37-.06v.18c-.14,.04-.27,.06-.4,.06-.24,0-.41-.06-.53-.18s-.18-.32-.18-.59,.05-.45,.16-.58c.11-.13,.25-.19,.45-.19s.33,.06,.43,.19,.15,.32,.15,.58v.07Zm-.85-.56c-.06,.08-.1,.22-.1,.41h.74c0-.19-.04-.33-.1-.41s-.15-.12-.27-.12-.21,.04-.28,.12h0Z"/><path class="cls-9" d="M6.83,5.56c-.11-.12-.17-.32-.17-.58s.06-.46,.18-.58,.3-.19,.53-.19c.11,0,.21,.01,.31,.04v.19c-.1-.02-.19-.04-.28-.04-.12,0-.21,.02-.29,.06-.07,.04-.13,.1-.17,.18s-.06,.2-.06,.34,.02,.26,.05,.34c.03,.09,.09,.15,.15,.19,.07,.04,.15,.06,.26,.06,.1,0,.21-.02,.33-.06v.19c-.12,.04-.24,.06-.36,.06-.22,0-.38-.06-.49-.19h.01Z"/><path class="cls-9" d="M8.03,5.56c-.11-.12-.17-.32-.17-.58s.06-.46,.18-.58c.12-.12,.3-.19,.53-.19,.11,0,.21,.01,.31,.04v.19c-.1-.02-.19-.04-.28-.04-.12,0-.21,.02-.29,.06-.07,.04-.13,.1-.17,.18s-.06,.2-.06,.34,.02,.26,.05,.34c.03,.09,.09,.15,.15,.19,.07,.04,.15,.06,.26,.06,.1,0,.21-.02,.33-.06v.19c-.12,.04-.24,.06-.36,.06-.22,0-.38-.06-.49-.19h0Z"/><path class="cls-9" d="M9.14,3.87s-.04-.06-.04-.1,.01-.08,.04-.1,.06-.04,.11-.04,.09,0,.11,.04,.04,.06,.04,.1-.01,.08-.04,.1-.06,.04-.11,.04-.09,0-.11-.04Zm0,1.85v-1.49h.22v1.49h-.22Z"/><path class="cls-9" d="M9.87,5.56c-.11-.13-.17-.32-.17-.58s.06-.46,.17-.58c.11-.13,.27-.19,.47-.19s.36,.06,.47,.19,.17,.32,.17,.58-.06,.45-.17,.58-.27,.19-.47,.19-.36-.06-.47-.19Zm.77-.13c.07-.09,.1-.24,.1-.45s-.03-.37-.1-.46c-.07-.09-.17-.14-.31-.14s-.23,.04-.3,.13c-.07,.09-.11,.24-.11,.45s.03,.37,.1,.46c.07,.09,.17,.14,.31,.14s.24-.05,.31-.14h0Zm-.41-1.43l.3-.5h.24l-.33,.5h-.21Z"/><path class="cls-9" d="M11.31,4.23h.19l.02,.17h.02c.06-.06,.13-.11,.21-.14,.08-.03,.17-.05,.26-.05,.15,0,.27,.04,.35,.13s.13,.22,.13,.4v.99h-.22v-.98c0-.12-.03-.21-.08-.26-.05-.05-.13-.08-.23-.08-.07,0-.15,.02-.22,.05-.07,.03-.14,.08-.19,.15v1.12h-.22v-1.49h-.02Z"/><path class="cls-9" d="M14.92,3.68h.21v2.04h-.23l-1.11-1.7v1.7h-.21V3.68h.23l1.11,1.7v-1.7Z"/><path class="cls-9" d="M16.34,4.25c.08,.03,.15,.09,.19,.17s.06,.18,.06,.32v.98h-.18l-.02-.17h-.02c-.05,.06-.11,.11-.19,.14-.08,.03-.16,.05-.25,.05s-.17-.02-.24-.05-.12-.08-.16-.14-.05-.13-.05-.22c0-.13,.04-.23,.13-.31s.22-.12,.41-.14l.34-.04v-.13c0-.09-.01-.16-.04-.21s-.07-.09-.13-.11-.13-.03-.22-.03c-.06,0-.13,0-.2,.02-.07,.01-.14,.03-.21,.05v-.18c.06-.02,.13-.04,.21-.05s.15-.02,.22-.02c.13,0,.24,.02,.32,.05l.03,.02Zm-.14,1.28c.07-.03,.12-.08,.17-.14v-.39l-.33,.04c-.12,.01-.2,.04-.25,.09-.05,.04-.08,.11-.08,.19s.02,.15,.07,.19c.05,.04,.12,.07,.21,.07,.07,0,.14-.01,.2-.04h.01Z"/><path class="cls-9" d="M17.08,5.56c-.11-.12-.17-.32-.17-.58s.06-.46,.18-.58,.3-.19,.53-.19c.11,0,.21,.01,.31,.04v.19c-.1-.02-.19-.04-.28-.04-.12,0-.21,.02-.29,.06-.07,.04-.13,.1-.17,.18s-.06,.2-.06,.34,.02,.26,.05,.34c.03,.09,.09,.15,.15,.19,.07,.04,.15,.06,.26,.06,.1,0,.21-.02,.33-.06v.19c-.12,.04-.24,.06-.36,.06-.22,0-.38-.06-.49-.19h.01Z"/><path class="cls-9" d="M18.2,3.87s-.04-.06-.04-.1,.01-.08,.04-.1,.06-.04,.11-.04,.09,0,.11,.04,.04,.06,.04,.1-.01,.08-.04,.1-.06,.04-.11,.04-.09,0-.11-.04Zm0,1.85v-1.49h.22v1.49h-.22Z"/><path class="cls-9" d="M18.93,5.56c-.11-.13-.17-.32-.17-.58s.06-.46,.17-.58c.11-.13,.27-.19,.47-.19s.36,.06,.47,.19,.17,.32,.17,.58-.06,.45-.17,.58-.27,.19-.47,.19-.36-.06-.47-.19Zm.77-.13c.07-.09,.1-.24,.1-.45s-.03-.37-.1-.46-.17-.14-.31-.14-.23,.04-.3,.13-.11,.24-.11,.45,.03,.37,.1,.46,.17,.14,.31,.14,.24-.05,.31-.14h0Z"/><path class="cls-9" d="M20.37,4.23h.19l.02,.17h.02c.06-.06,.13-.11,.21-.14,.08-.03,.17-.05,.26-.05,.15,0,.27,.04,.35,.13s.13,.22,.13,.4v.99h-.22v-.98c0-.12-.03-.21-.08-.26-.05-.05-.13-.08-.23-.08-.07,0-.15,.02-.22,.05s-.14,.08-.19,.15v1.12h-.22v-1.49h-.02Z"/><path class="cls-9" d="M22.7,4.25c.08,.03,.15,.09,.19,.17s.06,.18,.06,.32v.98h-.18l-.02-.17h-.02c-.05,.06-.11,.11-.19,.14-.08,.03-.16,.05-.25,.05s-.17-.02-.24-.05-.12-.08-.16-.14c-.04-.06-.05-.13-.05-.22,0-.13,.04-.23,.13-.31s.22-.12,.41-.14l.34-.04v-.13c0-.09-.01-.16-.04-.21s-.07-.09-.13-.11-.13-.03-.22-.03c-.06,0-.13,0-.2,.02-.07,.01-.14,.03-.21,.05v-.18c.06-.02,.13-.04,.21-.05s.15-.02,.22-.02c.13,0,.24,.02,.32,.05l.03,.02Zm-.14,1.28c.07-.03,.12-.08,.17-.14v-.39l-.33,.04c-.12,.01-.2,.04-.25,.09-.05,.04-.08,.11-.08,.19s.02,.15,.07,.19,.12,.07,.21,.07c.07,0,.14-.01,.2-.04h.01Z"/><path class="cls-9" d="M23.35,5.72V3.49h.22v2.22h-.22Z"/><path class="cls-9" d="M24.87,5.67c-.09-.05-.16-.13-.21-.24-.05-.11-.08-.25-.08-.42,0-.27,.06-.47,.19-.6,.13-.13,.31-.2,.56-.2,.07,0,.15,0,.24,.02v-.73h.22v2.22h-.19l-.02-.16h-.01c-.05,.06-.11,.1-.18,.14s-.15,.05-.24,.05c-.11,0-.21-.03-.3-.08h.02Zm.55-.16c.06-.03,.12-.08,.16-.14v-.96s-.07-.01-.12-.02-.09,0-.13,0c-.18,0-.31,.05-.4,.14-.09,.09-.13,.25-.13,.46s.04,.36,.11,.44,.17,.13,.31,.13c.07,0,.14-.02,.2-.05Z"/><path class="cls-9" d="M27.32,5.05h-.96c0,.13,.02,.23,.06,.3,.04,.08,.09,.13,.17,.17s.17,.05,.28,.05,.23-.02,.37-.06v.18c-.14,.04-.27,.06-.4,.06-.24,0-.41-.06-.53-.18s-.18-.32-.18-.59,.05-.45,.16-.58,.25-.19,.45-.19,.33,.06,.43,.19,.15,.32,.15,.58v.07Zm-.85-.56c-.06,.08-.1,.22-.1,.41h.74c0-.19-.04-.33-.1-.41s-.15-.12-.27-.12-.21,.04-.28,.12h.01Z"/><path class="cls-9" d="M30.02,3.68h.27v2.04h-.21v-1.7l-.66,1.42h-.2l-.66-1.41v1.69h-.21V3.68h.27l.71,1.53,.7-1.53h-.01Z"/><path class="cls-9" d="M31.83,5.05h-.96c0,.13,.02,.23,.06,.3,.04,.08,.09,.13,.17,.17,.07,.03,.17,.05,.28,.05s.23-.02,.37-.06v.18c-.14,.04-.27,.06-.4,.06-.24,0-.41-.06-.53-.18s-.18-.32-.18-.59,.05-.45,.16-.58,.25-.19,.45-.19,.33,.06,.43,.19,.15,.32,.15,.58v.07Zm-.85-.56c-.06,.08-.1,.22-.1,.41h.74c0-.19-.04-.33-.1-.41s-.15-.12-.27-.12-.21,.04-.28,.12h.01Z"/><path class="cls-9" d="M32.15,4.23h.18l.02,.2h0c.05-.07,.11-.12,.19-.16,.08-.04,.16-.06,.25-.06,.04,0,.08,0,.12,.01v.21h-.13c-.08,0-.16,.02-.23,.05-.08,.04-.14,.09-.19,.16v1.09h-.22v-1.49h0Z"/><path class="cls-9" d="M33.2,5.56c-.11-.12-.17-.32-.17-.58s.06-.46,.18-.58,.3-.19,.53-.19c.11,0,.21,.01,.31,.04v.19c-.1-.02-.19-.04-.28-.04-.12,0-.21,.02-.29,.06-.07,.04-.13,.1-.17,.18-.04,.08-.06,.2-.06,.34s.02,.26,.05,.34c.03,.09,.09,.15,.15,.19,.07,.04,.15,.06,.26,.06,.1,0,.21-.02,.33-.06v.19c-.12,.04-.24,.06-.36,.06-.22,0-.38-.06-.49-.19h0Z"/><path class="cls-9" d="M35.07,4.25c.08,.03,.15,.09,.19,.17,.04,.08,.06,.18,.06,.32v.98h-.18l-.02-.17h-.02c-.05,.06-.11,.11-.19,.14-.08,.03-.16,.05-.25,.05s-.17-.02-.24-.05-.12-.08-.16-.14-.05-.13-.05-.22c0-.13,.04-.23,.13-.31,.09-.07,.22-.12,.41-.14l.34-.04v-.13c0-.09,0-.16-.04-.21s-.07-.09-.13-.11-.13-.03-.22-.03c-.06,0-.13,0-.2,.02-.07,.01-.14,.03-.21,.05v-.18c.06-.02,.13-.04,.21-.05,.08-.01,.15-.02,.22-.02,.13,0,.24,.02,.32,.05l.03,.02Zm-.14,1.28c.07-.03,.12-.08,.17-.14v-.39l-.33,.04c-.12,.01-.2,.04-.25,.09-.05,.04-.08,.11-.08,.19s.02,.15,.07,.19,.12,.07,.21,.07c.07,0,.14-.01,.2-.04h.01Z"/><path class="cls-9" d="M35.93,5.67c-.09-.05-.16-.13-.21-.24-.05-.11-.08-.25-.08-.42,0-.27,.06-.47,.19-.6,.13-.13,.31-.2,.56-.2,.07,0,.15,0,.24,.02v-.73h.22v2.22h-.19l-.02-.16h0c-.05,.06-.11,.1-.18,.14-.07,.03-.15,.05-.24,.05-.11,0-.21-.03-.3-.08h.02Zm.55-.16c.06-.03,.12-.08,.16-.14v-.96s-.07-.01-.12-.02-.09,0-.13,0c-.18,0-.31,.05-.4,.14-.09,.09-.13,.25-.13,.46s.04,.36,.11,.44c.07,.09,.17,.13,.31,.13,.07,0,.14-.02,.2-.05Z"/><path class="cls-9" d="M37.37,5.56c-.11-.13-.17-.32-.17-.58s.06-.46,.17-.58,.27-.19,.47-.19,.36,.06,.47,.19,.17,.32,.17,.58-.06,.45-.17,.58c-.11,.13-.27,.19-.47,.19s-.36-.06-.47-.19Zm.77-.13c.07-.09,.1-.24,.1-.45s-.03-.37-.1-.46-.17-.14-.31-.14-.23,.04-.3,.13-.11,.24-.11,.45,.03,.37,.1,.46,.17,.14,.31,.14,.24-.05,.31-.14h0Z"/><path class="cls-9" d="M38.75,5.68v-.18c.14,.04,.27,.06,.41,.06,.25,0,.37-.08,.37-.25,0-.07-.02-.12-.05-.16s-.09-.06-.18-.08l-.2-.04c-.13-.03-.23-.08-.29-.14-.06-.07-.09-.15-.09-.26,0-.09,.02-.16,.06-.23s.11-.12,.2-.15c.09-.04,.2-.05,.33-.05,.12,0,.24,.01,.35,.04v.18c-.06-.02-.12-.03-.17-.04-.06,0-.11-.01-.17-.01-.13,0-.23,.02-.29,.07s-.09,.11-.09,.18c0,.06,.02,.11,.05,.15s.09,.07,.17,.08l.2,.04c.14,.03,.23,.08,.3,.14,.06,.07,.09,.15,.09,.27,0,.14-.05,.24-.15,.32-.1,.08-.24,.12-.43,.12-.15,0-.29-.02-.41-.06h0Z"/><path class="cls-9" d="M41.72,4.23h.22l-.79,2.1h-.22l.23-.61h-.06l-.56-1.49h.23l.47,1.31,.48-1.31Z"/><path class="cls-9" d="M43.09,5.53h1.05v.19h-1.27V3.68h1.26v.19h-1.04v.71h.9v.19h-.9v.76Z"/><path class="cls-9" d="M44.36,5.68v-.18c.14,.04,.27,.06,.41,.06,.25,0,.37-.08,.37-.25,0-.07-.02-.12-.05-.16s-.09-.06-.18-.08l-.2-.04c-.13-.03-.23-.08-.29-.14-.06-.07-.09-.15-.09-.26,0-.09,.02-.16,.06-.23s.11-.12,.2-.15c.09-.04,.2-.05,.33-.05,.12,0,.24,.01,.35,.04v.18c-.06-.02-.12-.03-.17-.04-.06,0-.11-.01-.17-.01-.13,0-.23,.02-.29,.07s-.09,.11-.09,.18c0,.06,.02,.11,.05,.15s.09,.07,.17,.08l.2,.04c.14,.03,.23,.08,.3,.14,.06,.07,.09,.15,.09,.27,0,.14-.05,.24-.15,.32-.1,.08-.24,.12-.43,.12-.15,0-.29-.02-.41-.06h0Z"/><path class="cls-9" d="M46.44,5.53v.19c-.08,.02-.15,.03-.23,.03-.32,0-.48-.17-.48-.5v-.84h-.28v-.18h.28l.04-.54h.18v.54h.47v.18h-.47v.81c0,.12,.02,.21,.08,.26,.05,.05,.13,.08,.23,.08,.05,0,.11,0,.18-.02h0Z"/><path class="cls-9" d="M47.44,4.25c.08,.03,.15,.09,.19,.17,.04,.08,.06,.18,.06,.32v.98h-.18l-.02-.17h-.02c-.05,.06-.11,.11-.19,.14-.08,.03-.16,.05-.25,.05s-.17-.02-.24-.05-.12-.08-.16-.14-.05-.13-.05-.22c0-.13,.04-.23,.13-.31,.09-.07,.22-.12,.41-.14l.34-.04v-.13c0-.09,0-.16-.04-.21s-.07-.09-.13-.11-.13-.03-.22-.03c-.06,0-.13,0-.2,.02-.07,.01-.14,.03-.21,.05v-.18c.06-.02,.13-.04,.21-.05s.15-.02,.22-.02c.13,0,.24,.02,.32,.05l.03,.02Zm-.14,1.28c.07-.03,.12-.08,.17-.14v-.39l-.33,.04c-.12,.01-.2,.04-.25,.09-.05,.04-.08,.11-.08,.19s.02,.15,.07,.19,.12,.07,.21,.07c.07,0,.14-.01,.2-.04h.01Z"/><path class="cls-9" d="M48.29,5.67c-.09-.05-.16-.13-.21-.24-.05-.11-.08-.25-.08-.42,0-.27,.06-.47,.19-.6,.13-.13,.31-.2,.56-.2,.07,0,.15,0,.24,.02v-.73h.22v2.22h-.19l-.02-.16h0c-.05,.06-.11,.1-.18,.14-.07,.03-.15,.05-.24,.05-.11,0-.21-.03-.3-.08h.02Zm.55-.16c.06-.03,.12-.08,.16-.14v-.96s-.07-.01-.12-.02-.09,0-.13,0c-.18,0-.31,.05-.4,.14-.09,.09-.13,.25-.13,.46s.04,.36,.11,.44c.07,.09,.17,.13,.31,.13,.07,0,.14-.02,.2-.05Z"/><path class="cls-9" d="M49.64,5.72v-1.49h.22v1.49h-.22Zm0-1.72l.3-.5h.24l-.33,.5h-.21Z"/><path class="cls-9" d="M50.22,5.68v-.18c.14,.04,.27,.06,.41,.06,.25,0,.37-.08,.37-.25,0-.07-.02-.12-.05-.16s-.09-.06-.18-.08l-.2-.04c-.13-.03-.23-.08-.29-.14-.06-.07-.09-.15-.09-.26,0-.09,.02-.16,.06-.23s.11-.12,.2-.15c.09-.04,.2-.05,.33-.05,.12,0,.24,.01,.35,.04v.18c-.06-.02-.12-.03-.17-.04-.06,0-.11-.01-.17-.01-.13,0-.23,.02-.29,.07s-.09,.11-.09,.18c0,.06,.02,.11,.05,.15s.09,.07,.17,.08l.2,.04c.14,.03,.23,.08,.3,.14,.06,.07,.09,.15,.09,.27,0,.14-.05,.24-.15,.32-.1,.08-.24,.12-.43,.12-.15,0-.29-.02-.41-.06h0Z"/><path class="cls-9" d="M52.3,5.53v.19c-.08,.02-.15,.03-.23,.03-.32,0-.48-.17-.48-.5v-.84h-.28v-.18h.28l.04-.54h.18v.54h.47v.18h-.47v.81c0,.12,.02,.21,.08,.26,.05,.05,.13,.08,.23,.08,.05,0,.11,0,.18-.02h0Z"/><path class="cls-9" d="M52.53,3.87s-.04-.06-.04-.1,0-.08,.04-.1,.06-.04,.11-.04,.09,0,.11,.04c.03,.02,.04,.06,.04,.1s0,.08-.04,.1c-.03,.02-.06,.04-.11,.04s-.09,0-.11-.04Zm0,1.85v-1.49h.22v1.49h-.22Z"/><path class="cls-9" d="M53.26,5.56c-.11-.12-.17-.32-.17-.58s.06-.46,.18-.58,.3-.19,.53-.19c.11,0,.21,.01,.31,.04v.19c-.1-.02-.19-.04-.28-.04-.12,0-.21,.02-.29,.06-.07,.04-.13,.1-.17,.18-.04,.08-.06,.2-.06,.34s.02,.26,.05,.34,.09,.15,.15,.19c.07,.04,.15,.06,.26,.06,.1,0,.21-.02,.33-.06v.19c-.12,.04-.24,.06-.36,.06-.22,0-.38-.06-.49-.19h0Z"/><path class="cls-9" d="M55.14,4.25c.08,.03,.15,.09,.19,.17,.04,.08,.06,.18,.06,.32v.98h-.18l-.02-.17h-.02c-.05,.06-.11,.11-.19,.14-.08,.03-.16,.05-.25,.05s-.17-.02-.24-.05-.12-.08-.16-.14-.05-.13-.05-.22c0-.13,.04-.23,.13-.31,.09-.07,.22-.12,.41-.14l.34-.04v-.13c0-.09,0-.16-.04-.21s-.07-.09-.13-.11-.13-.03-.22-.03c-.06,0-.13,0-.2,.02-.07,.01-.14,.03-.21,.05v-.18c.06-.02,.13-.04,.21-.05s.15-.02,.22-.02c.13,0,.24,.02,.32,.05l.03,.02Zm-.14,1.28c.07-.03,.12-.08,.17-.14v-.39l-.33,.04c-.12,.01-.2,.04-.25,.09-.05,.04-.08,.11-.08,.19s.02,.15,.07,.19,.12,.07,.21,.07c.07,0,.14-.01,.2-.04h.01Z"/></g><g><path class="cls-8" d="M1.92,8.49c-.08-.01-.16-.03-.23-.05v-.34c.07,.02,.15,.04,.23,.05s.17,.02,.24,.02c.1,0,.17-.01,.21-.04s.06-.06,.06-.11c0-.03,0-.05-.02-.07s-.03-.03-.06-.05c-.03-.01-.07-.03-.13-.04l-.14-.04c-.15-.04-.26-.09-.33-.17s-.11-.18-.11-.31c0-.17,.06-.29,.18-.38s.3-.13,.54-.13c.07,0,.15,0,.22,.01,.07,0,.13,.02,.19,.04v.34s-.11-.03-.18-.04-.13-.01-.2-.01c-.12,0-.2,.01-.25,.04-.05,.03-.07,.06-.07,.11,0,.03,0,.05,.02,.06s.03,.03,.05,.05c.03,.01,.06,.03,.11,.04l.14,.03c.16,.04,.28,.1,.36,.18s.12,.18,.12,.31c0,.11-.03,.2-.08,.28s-.13,.14-.24,.18c-.1,.04-.23,.06-.37,.06-.08,0-.17,0-.25-.02h0Z"/><path class="cls-8" d="M3.22,8.33c-.12-.12-.18-.3-.18-.55v-.94h.43v.98c0,.12,.02,.2,.07,.26,.05,.05,.12,.08,.22,.08s.17-.03,.22-.08c.05-.05,.07-.14,.07-.26v-.98h.42v.94c0,.24-.06,.43-.17,.55-.12,.12-.3,.18-.54,.18s-.43-.06-.55-.18h0Z"/><path class="cls-8" d="M5.99,7.76c.05,.06,.08,.15,.08,.26s-.03,.2-.08,.27c-.06,.07-.15,.13-.27,.16-.12,.04-.29,.06-.49,.06h-.24c-.09,0-.17-.01-.24-.03v-1.59c.08-.02,.17-.03,.27-.04,.1-.01,.19-.02,.28-.02,.25,0,.44,.04,.55,.11s.18,.19,.18,.35c0,.09-.02,.16-.07,.22s-.11,.11-.19,.13c.09,.02,.17,.06,.22,.13h0Zm-.83-.63v.34h.2c.09,0,.16-.01,.2-.04,.04-.03,.06-.08,.06-.14,0-.04,0-.08-.03-.1-.02-.03-.05-.05-.09-.06-.04-.01-.09-.02-.16-.02s-.13,0-.2,.02h.02Zm.38,1.03s.08-.04,.1-.06c.02-.03,.03-.07,.03-.11,0-.07-.02-.12-.06-.15s-.11-.05-.21-.05h-.24v.39h.19c.08,0,.15,0,.2-.02h-.01Z"/><path class="cls-8" d="M6.44,8.49c-.08-.01-.16-.03-.23-.05v-.34c.07,.02,.15,.04,.23,.05s.17,.02,.24,.02c.1,0,.17-.01,.21-.04s.06-.06,.06-.11c0-.03,0-.05-.02-.07s-.03-.03-.06-.05c-.03-.01-.07-.03-.13-.04l-.14-.04c-.15-.04-.26-.09-.33-.17s-.11-.18-.11-.31c0-.17,.06-.29,.18-.38s.3-.13,.54-.13c.07,0,.15,0,.22,.01,.07,0,.13,.02,.19,.04v.34c-.05-.02-.11-.03-.18-.04s-.13-.01-.2-.01c-.12,0-.2,.01-.25,.04-.05,.03-.07,.06-.07,.11,0,.03,0,.05,.02,.06s.03,.03,.05,.05c.03,.01,.06,.03,.11,.04l.14,.03c.16,.04,.28,.1,.36,.18s.12,.18,.12,.31c0,.11-.03,.2-.08,.28s-.13,.14-.24,.18c-.1,.04-.23,.06-.37,.06-.08,0-.17,0-.25-.02h-.01Z"/><path class="cls-8" d="M7.99,8.15h.79v.34h-1.22v-1.64h1.2v.34h-.78v.3h.67v.34h-.67v.33h.01Z"/><path class="cls-8" d="M9.14,8.3c-.15-.14-.23-.35-.23-.63,0-.18,.04-.34,.11-.47,.07-.13,.17-.22,.31-.29,.14-.06,.3-.1,.5-.1,.12,0,.24,.01,.35,.04v.35c-.11-.02-.21-.03-.32-.03-.12,0-.21,.02-.29,.05-.07,.03-.13,.09-.17,.16-.04,.07-.05,.17-.05,.28s.02,.21,.05,.29c.04,.07,.09,.13,.16,.16,.07,.03,.17,.05,.28,.05,.1,0,.21-.02,.33-.05v.35c-.05,.02-.11,.03-.18,.04-.07,0-.13,.01-.19,.01-.3,0-.52-.07-.67-.21h0Z"/><path class="cls-8" d="M11.33,8.48l-.39-.58h-.15v.58h-.42v-1.6c.08-.02,.17-.03,.26-.04,.09-.01,.19-.02,.28-.02,.25,0,.43,.04,.55,.13s.18,.23,.18,.41c0,.11-.03,.21-.08,.29s-.13,.14-.23,.18l.45,.65h-.45Zm-.54-.9h.16c.1,0,.18-.02,.22-.05,.05-.04,.07-.1,.07-.18s-.02-.14-.07-.18c-.05-.04-.12-.06-.22-.06-.06,0-.11,0-.17,.01v.46Z"/><path class="cls-8" d="M12.35,8.15h.79v.34h-1.22v-1.64h1.2v.34h-.78v.3h.67v.34h-.67v.33h.01Z"/><path class="cls-8" d="M13.74,8.48v-1.29h-.51v-.35h1.44v.35h-.51v1.29h-.42Z"/><path class="cls-8" d="M15.73,8.48l-.12-.41h-.58l-.12,.41h-.41l.51-1.64h.62l.51,1.64h-.41Zm-.6-.74h.38l-.19-.65-.19,.65Z"/><path class="cls-8" d="M17.25,8.48l-.39-.58h-.15v.58h-.42v-1.6c.08-.02,.17-.03,.26-.04,.09-.01,.19-.02,.28-.02,.25,0,.43,.04,.55,.13,.12,.09,.18,.23,.18,.41,0,.11-.03,.21-.08,.29s-.13,.14-.23,.18l.45,.65h-.45Zm-.54-.9h.16c.1,0,.18-.02,.22-.05,.05-.04,.07-.1,.07-.18s-.02-.14-.07-.18-.12-.06-.22-.06c-.06,0-.11,0-.17,.01v.46Z"/><path class="cls-8" d="M17.85,8.48v-1.64h.43v1.64h-.43Zm.02-1.77l.2-.34h.44l-.26,.34h-.38Z"/><path class="cls-8" d="M19.65,8.48l-.12-.41h-.58l-.12,.41h-.41l.51-1.64h.62l.51,1.64h-.41Zm-.6-.74h.38l-.19-.65-.19,.65Z"/><path class="cls-8" d="M21.01,8.49c-.08,0-.16-.01-.24-.02v-1.6c.08-.02,.17-.03,.27-.04,.1-.01,.19-.02,.29-.02,.31,0,.55,.07,.7,.21,.16,.14,.23,.35,.23,.64,0,.2-.04,.36-.11,.48s-.19,.21-.34,.27-.34,.09-.57,.09h-.23Zm.61-.4c.07-.03,.12-.09,.15-.16s.05-.17,.05-.29-.02-.21-.05-.29c-.03-.07-.09-.13-.15-.16s-.15-.05-.26-.05h-.08s-.06,0-.08,.01v.98h.16c.11,0,.19-.02,.26-.05h0Z"/><path class="cls-8" d="M22.9,8.15h.79v.34h-1.22v-1.64h1.2v.34h-.78v.3h.67v.34h-.67v.33h0Z"/><path class="cls-8" d="M24.71,8.49c-.08,0-.16-.01-.24-.02v-1.6c.08-.02,.17-.03,.27-.04,.1-.01,.19-.02,.29-.02,.31,0,.55,.07,.7,.21,.16,.14,.23,.35,.23,.64,0,.2-.04,.36-.11,.48s-.19,.21-.34,.27-.34,.09-.57,.09h-.23Zm.61-.4c.07-.03,.12-.09,.15-.16s.05-.17,.05-.29-.02-.21-.05-.29c-.03-.07-.09-.13-.15-.16s-.15-.05-.26-.05h-.08s-.06,0-.08,.01v.98h.16c.11,0,.19-.02,.26-.05h0Z"/><path class="cls-8" d="M26.6,8.15h.79v.34h-1.22v-1.64h1.2v.34h-.78v.3h.67v.34h-.67v.33h0Z"/><path class="cls-8" d="M27.8,8.49c-.08-.01-.16-.03-.23-.05v-.34c.07,.02,.15,.04,.23,.05s.17,.02,.24,.02c.1,0,.17-.01,.21-.04,.04-.03,.06-.06,.06-.11,0-.03,0-.05-.02-.07s-.03-.03-.06-.05c-.03-.01-.07-.03-.13-.04l-.14-.04c-.15-.04-.26-.09-.33-.17s-.11-.18-.11-.31c0-.17,.06-.29,.18-.38s.3-.13,.54-.13c.07,0,.15,0,.22,.01s.13,.02,.19,.04v.34s-.11-.03-.18-.04c-.07,0-.13-.01-.2-.01-.12,0-.2,.01-.25,.04-.05,.03-.07,.06-.07,.11,0,.03,0,.05,.02,.06,.01,.02,.03,.03,.05,.05s.06,.03,.11,.04l.14,.03c.16,.04,.28,.1,.36,.18s.12,.18,.12,.31c0,.11-.03,.2-.08,.28s-.13,.14-.24,.18c-.1,.04-.23,.06-.37,.06-.08,0-.17,0-.25-.02h-.01Z"/><path class="cls-8" d="M30.03,8.48l-.12-.41h-.58l-.12,.41h-.41l.51-1.64h.62l.51,1.64h-.41Zm-.6-.74h.38l-.19-.65-.19,.65Z"/><path class="cls-8" d="M31.55,8.48l-.39-.58h-.15v.58h-.42v-1.6c.08-.02,.17-.03,.26-.04,.09-.01,.19-.02,.28-.02,.25,0,.43,.04,.55,.13,.12,.09,.18,.23,.18,.41,0,.11-.03,.21-.08,.29s-.13,.14-.23,.18l.45,.65h-.45Zm-.54-.9h.16c.1,0,.18-.02,.22-.05,.05-.04,.07-.1,.07-.18s-.02-.14-.07-.18-.12-.06-.22-.06c-.06,0-.11,0-.17,.01v.46Z"/><path class="cls-8" d="M33.11,8.48l-.39-.58h-.15v.58h-.42v-1.6c.08-.02,.17-.03,.26-.04,.09-.01,.19-.02,.28-.02,.25,0,.43,.04,.55,.13s.18,.23,.18,.41c0,.11-.03,.21-.08,.29-.05,.08-.13,.14-.23,.18l.45,.65h-.45Zm-.54-.9h.16c.1,0,.18-.02,.22-.05,.05-.04,.07-.1,.07-.18s-.02-.14-.07-.18-.12-.06-.22-.06c-.06,0-.11,0-.17,.01v.46Z"/><path class="cls-8" d="M33.96,8.41c-.12-.06-.21-.16-.28-.28-.07-.13-.1-.28-.1-.47s.03-.34,.1-.47c.07-.13,.16-.22,.28-.28,.12-.06,.26-.09,.43-.09s.31,.03,.43,.09,.21,.16,.28,.28c.07,.13,.1,.28,.1,.47s-.03,.34-.1,.47-.16,.22-.28,.28c-.12,.06-.26,.1-.43,.1s-.31-.03-.43-.09h0Zm.71-.38c.06-.08,.1-.2,.1-.38s-.03-.31-.1-.39c-.06-.08-.16-.12-.28-.12s-.21,.04-.28,.12c-.06,.08-.1,.2-.1,.38s.03,.31,.09,.39,.16,.12,.28,.12,.21-.04,.28-.12h0Z"/><path class="cls-8" d="M35.42,8.48v-1.64h.43v1.29h.74v.35h-1.17Z"/><path class="cls-8" d="M36.72,8.48v-1.64h.43v1.29h.74v.35h-1.17Z"/><path class="cls-8" d="M38.31,8.41c-.12-.06-.21-.16-.28-.28-.07-.13-.1-.28-.1-.47s.03-.34,.1-.47c.07-.13,.16-.22,.28-.28,.12-.06,.26-.09,.43-.09s.31,.03,.43,.09,.21,.16,.28,.28c.07,.13,.1,.28,.1,.47s-.03,.34-.1,.47-.16,.22-.28,.28c-.12,.06-.26,.1-.43,.1s-.31-.03-.43-.09h0Zm.71-.38c.06-.08,.1-.2,.1-.38s-.03-.31-.1-.39c-.06-.08-.16-.12-.28-.12s-.21,.04-.28,.12c-.06,.08-.1,.2-.1,.38s.03,.31,.09,.39,.16,.12,.28,.12,.21-.04,.28-.12h0Z"/><path class="cls-8" d="M40.75,8.15h.79v.34h-1.22v-1.64h1.2v.34h-.78v.3h.67v.34h-.67v.33h0Z"/><path class="cls-8" d="M41.95,8.49c-.08-.01-.16-.03-.23-.05v-.34c.07,.02,.15,.04,.23,.05s.17,.02,.24,.02c.1,0,.17-.01,.21-.04s.06-.06,.06-.11c0-.03,0-.05-.02-.07,0-.02-.03-.03-.06-.05-.03-.01-.07-.03-.13-.04l-.14-.04c-.15-.04-.26-.09-.33-.17-.07-.08-.11-.18-.11-.31,0-.17,.06-.29,.18-.38s.3-.13,.54-.13c.07,0,.15,0,.22,.01s.13,.02,.19,.04v.34s-.11-.03-.18-.04c-.07,0-.13-.01-.2-.01-.12,0-.2,.01-.25,.04-.05,.03-.07,.06-.07,.11,0,.03,0,.05,.02,.06s.03,.03,.05,.05,.06,.03,.11,.04l.14,.03c.16,.04,.28,.1,.36,.18s.12,.18,.12,.31c0,.11-.03,.2-.08,.28-.05,.08-.13,.14-.24,.18-.1,.04-.23,.06-.37,.06-.08,0-.17,0-.25-.02h0Z"/><path class="cls-8" d="M43.39,8.48v-1.29h-.51v-.35h1.44v.35h-.51v1.29h-.42Z"/><path class="cls-8" d="M45.43,8.48l-.39-.58h-.15v.58h-.42v-1.6c.08-.02,.17-.03,.26-.04,.09-.01,.19-.02,.28-.02,.25,0,.43,.04,.55,.13s.18,.23,.18,.41c0,.11-.03,.21-.08,.29-.05,.08-.13,.14-.23,.18l.45,.65h-.45Zm-.54-.9h.16c.1,0,.18-.02,.22-.05,.05-.04,.07-.1,.07-.18s-.02-.14-.07-.18-.12-.06-.22-.06c-.06,0-.11,0-.17,.01v.46Z"/><path class="cls-8" d="M47.02,8.48l-.12-.41h-.58l-.12,.41h-.41l.51-1.64h.62l.51,1.64h-.41Zm-.6-.74h.38l-.19-.65-.19,.65Z"/><path class="cls-8" d="M47.77,8.48v-1.29h-.51v-.35h1.44v.35h-.51v1.29h-.42Z"/><path class="cls-8" d="M49.28,8.15h.79v.34h-1.22v-1.64h1.2v.34h-.78v.3h.67v.34h-.67v.33h0Zm.02-1.44l.2-.34h.44l-.26,.34h-.38Z"/><path class="cls-8" d="M51.6,7.68v.78c-.15,.03-.3,.04-.43,.04-.33,0-.57-.07-.73-.21s-.24-.35-.24-.63,.08-.49,.25-.63,.41-.22,.73-.22c.13,0,.25,.01,.37,.04v.35c-.11-.02-.22-.04-.33-.04-.14,0-.25,.02-.33,.05s-.15,.09-.19,.16c-.04,.07-.06,.17-.06,.29,0,.17,.04,.29,.12,.37s.21,.12,.37,.12h.06v-.47h.41Z"/><path class="cls-8" d="M51.87,8.48v-1.64h.43v1.64h-.43Z"/><path class="cls-8" d="M52.74,8.3c-.15-.14-.23-.35-.23-.63,0-.18,.04-.34,.11-.47,.07-.13,.17-.22,.31-.29,.14-.06,.3-.1,.5-.1,.12,0,.24,.01,.35,.04v.35c-.11-.02-.21-.03-.32-.03-.12,0-.21,.02-.29,.05-.07,.03-.13,.09-.17,.16-.04,.07-.05,.17-.05,.28s.02,.21,.05,.29c.04,.07,.09,.13,.16,.16,.07,.03,.17,.05,.28,.05,.1,0,.21-.02,.33-.05v.35s-.11,.03-.18,.04-.13,.01-.19,.01c-.3,0-.52-.07-.67-.21h0Z"/><path class="cls-8" d="M54.26,8.41c-.12-.06-.21-.16-.28-.28-.07-.13-.1-.28-.1-.47s.03-.34,.1-.47c.07-.13,.16-.22,.28-.28,.12-.06,.26-.09,.43-.09s.31,.03,.43,.09,.21,.16,.28,.28c.07,.13,.1,.28,.1,.47s-.03,.34-.1,.47-.16,.22-.28,.28c-.12,.06-.26,.1-.43,.1s-.31-.03-.43-.09h0Zm.71-.38c.06-.08,.1-.2,.1-.38s-.03-.31-.1-.39c-.06-.08-.16-.12-.28-.12s-.21,.04-.28,.12c-.06,.08-.1,.2-.1,.38s.03,.31,.09,.39,.16,.12,.28,.12,.21-.04,.28-.12h0Z"/></g></g><g><g><path class="cls-6" d="M121.81,5.84c-.14,0-.21-.06-.25-.1-.03-.04-.06-.09-.07-.15h0v-.2c.08-.41,.24-.68,.38-.85-.01,0-.03-.01-.04-.02"/><path class="cls-6" d="M122.56,5.82l.03,.84h2.82c0-.52-.08-1.02-.23-1.49-.15-.45-.35-.86-.62-1.21-.26-.35-.57-.62-.92-.81-.35-.2-.73-.3-1.11-.3s-.76,.1-1.11,.3c-.34,.19-.65,.46-.92,.81s-.47,.76-.62,1.21c-.15,.47-.23,.97-.23,1.49h2.78v-.88h.02"/><path class="cls-6" d="M121.72,4.26c.02-.14,.15-.27,.17-.3,.21-.25,.53-.26,.57-.27,.05,0,.47-.02,.69,.42,.27,.53,.33,.96,.39,1.31v.02c.01,.06,0,.11,0,.15h0c-.02,.06-.04,.1-.06,.12-.06,.06-.14,.1-.25,.12h-.11"/><path class="cls-2" d="M119.64,6.72c0,.39,.04,.78,.13,1.14,1.25-.14,1.99-.29,2.21-.44,.16-.11,.28-.17,.44-.17v-.54h-2.78Z"/><path class="cls-2" d="M122.62,7.28c.11,.02,.19,.05,.28,.1h.03c.16,0,.3,.04,.48,.11,.05,.02,.11,.04,.17,.06,.03,0,.92,.29,1.68,.33,.09-.37,.14-.76,.14-1.16h-2.78v.56Z"/><path class="cls-2" d="M123.75,8.5s-.03,.05-.05,.07c-.05,.05-.11,.07-.19,.07,0,.02-.02,.05-.05,.07-.04,.05-.12,.1-.24,.1-.01,.02-.03,.04-.05,.07-.06,.06-.15,.09-.24,.07-.02,.02-.05,.04-.1,.06-.05,.02-.13,.04-.22,.02v.74c0,.05-.04,.09-.09,.09s-.09-.04-.09-.09v-.71s-.08,.02-.12,.02h-.05c-.05-.01-.1-.04-.13-.08-.06,.01-.17,.02-.25-.04-.03-.02-.06-.05-.07-.09-.03,0-.06,0-.09-.02-.08-.03-.14-.07-.16-.14h-.06c-.07-.01-.16-.04-.19-.12,0-.02-.01-.03-.01-.05-.4,.2-.85,.41-1.05,.5,.08,.14,.16,.26,.26,.39,.26,.35,.57,.62,.92,.81,.16,.09,.32,.16,.49,.21,.02-.03,.04-.06,.07-.08,.16-.1,.46-.03,.55,0,.09-.02,.39-.1,.55,0,.03,.02,.06,.05,.07,.08,.17-.05,.33-.12,.49-.21,.34-.19,.65-.46,.92-.81,.09-.11,.17-.24,.24-.36-.23-.09-.72-.31-1.05-.56"/><path class="cls-6" d="M122.78,11.02v-.12c.09-.02,.25-.06,.33-.17,.05-.06,.07-.13,.06-.21,0-.07-.04-.13-.1-.16-.16-.1-.46-.03-.55,0-.09-.02-.39-.1-.55,0-.06,.04-.09,.09-.1,.16,0,.08,.01,.15,.06,.21,.08,.1,.24,.15,.33,.17v.12c-.07,.07-.29,.26-.61,.3h0s.04,.06,.09,.11c.28-.05,.48-.21,.57-.29l.03,.03c-.02,.08-.1,.28-.45,.36,.06,.03,.13,.05,.21,.06,.24-.11,.32-.27,.36-.37h.1c.03,.1,.12,.26,.35,.37,.08-.01,.15-.03,.21-.06-.34-.09-.43-.28-.45-.36,.01,0,.02-.02,.03-.03,.09,.08,.29,.24,.57,.29,.06-.05,.08-.09,.09-.11-.32-.03-.53-.23-.6-.29"/><path class="cls-2" d="M123,10.47s.04,.04,.04,.07c0,.05,0,.08-.03,.12-.04,.04-.1,.08-.16,.1,.03-.06,.03-.13,.01-.19-.02-.06-.06-.1-.1-.13,.09,0,.19,0,.24,.03"/><path class="cls-2" d="M122.3,10.61c.05-.12,.22-.13,.23-.13,0,0,.05,0,.1,.02,.07,.02,.11,.06,.13,.11,.02,.06-.02,.11-.05,.15-.05-.04-.11-.07-.17-.07s-.13,.03-.17,.07c-.03-.04-.07-.1-.05-.15"/><path class="cls-2" d="M122.19,10.75c-.06-.02-.12-.05-.16-.1-.03-.03-.04-.07-.03-.12,0-.03,.02-.06,.04-.07,.04-.02,.09-.03,.16-.03h.08s-.08,.07-.1,.13c-.03,.07-.01,.13,.01,.19"/><path class="cls-2" d="M122.39,10.96c0-.08,.06-.14,.14-.14s.14,.06,.14,.14-.06,.14-.14,.14-.14-.06-.14-.14"/><path class="cls-2" d="M123.29,11.43c-.28-.05-.48-.21-.57-.29,0,.01-.02,.02-.03,.03,.02,.08,.11,.28,.45,.36,.07-.03,.12-.07,.15-.1"/><path class="cls-2" d="M122.33,11.14c-.09,.08-.29,.24-.57,.29,.04,.03,.09,.07,.15,.1,.34-.09,.43-.29,.45-.36-.01,0-.02-.02-.03-.03"/><path class="cls-5" d="M126.01,7.46s0-.04-.02-.05c-.01,0-.03-.01-.04-.01,.01-.03,.02-.05,.03-.08,.04-.12,.07-.25,.07-.41,0-.02,0-.04-.03-.05-.01,0-.03-.01-.04,0,0-.02,.02-.05,.02-.08,.03-.12,.04-.26,.03-.41,0-.02-.01-.04-.03-.05h-.04s.01-.06,.02-.09c.02-.12,.02-.26-.01-.41,0-.02-.02-.04-.04-.04h-.03v-.06c.01-.13,0-.26-.03-.41,0-.02-.02-.04-.04-.04h-.06v-.1c0-.13-.03-.26-.09-.4,0-.02-.02-.03-.04-.04h-.05v-.09c-.02-.12-.06-.26-.13-.39,0-.02-.03-.03-.05-.03s-.03,0-.04,.01c0-.03-.01-.06-.02-.08-.03-.12-.09-.25-.17-.37-.01-.02-.03-.03-.05-.03s-.04,0-.05,.03c0-.03-.02-.07-.04-.1-.05-.12-.13-.23-.23-.34-.01-.02-.04-.02-.06-.02-.01,0-.03,0-.04,.02-.02-.03-.03-.07-.05-.1-.07-.11-.16-.21-.28-.3-.02,0-.04-.02-.06,0-.02,0-.03,.02-.03,.03-.08-.1-.19-.18-.33-.23h.08c.17,0,.28-.02,.29-.03,.04,0,.06-.05,.05-.08,0-.04-.03-.06-.07-.07-.18,0-.25-.05-.33-.09-.02,0-.03-.02-.05-.03l.42-.06s.06-.04,.06-.07c0-.04-.03-.07-.06-.07l-.42-.06s.11-.03,.16-.05c.16-.05,.25-.13,.25-.13,.03-.02,.04-.06,.02-.1-.02-.03-.06-.05-.09-.03-.17,.06-.25,.05-.34,.04h-.06l.37-.23s.05-.06,.03-.09c-.01-.03-.05-.05-.09-.04l-.41,.11s.09-.07,.13-.11c.12-.11,.18-.22,.18-.22,.02-.03,0-.07-.02-.1-.03-.02-.07-.02-.1,0-.13,.12-.21,.14-.3,.17-.02,0-.04,0-.05,.02l.25-.34s.02-.07,0-.1c-.03-.03-.07-.03-.1,0l-.34,.26s.05-.1,.08-.15c.07-.15,.08-.27,.08-.28,0-.04-.02-.07-.06-.08-.04,0-.07,0-.09,.04-.08,.16-.14,.21-.21,.27l-.04,.04,.1-.41s0-.07-.04-.09c-.03,0-.07,0-.09,.03l-.22,.37c0-.05,.01-.11,.02-.17,0-.17-.03-.28-.03-.29-.01-.04-.05-.06-.08-.05-.04,0-.06,.03-.07,.07,0,.18-.04,.25-.09,.33l-.03,.05-.06-.42s-.04-.06-.07-.06h0s-.07,.03-.07,.07l-.06,.42s-.03-.1-.05-.16c-.05-.16-.13-.25-.13-.25-.02-.03-.06-.04-.1-.02-.03,.02-.05,.06-.03,.09,.06,.17,.05,.25,.04,.34v.06l-.23-.37s-.06-.05-.09-.03c-.03,0-.05,.05-.04,.09l.11,.41s-.07-.09-.11-.13c-.11-.12-.22-.18-.22-.18-.03-.02-.07,0-.1,.02-.02,.03-.02,.07,0,.1,.12,.13,.14,.21,.17,.3,0,.02,.01,.04,.02,.06l-.34-.26s-.07-.02-.1,0c-.03,.03-.03,.07,0,.1l.26,.34s-.1-.05-.15-.08c-.15-.07-.27-.08-.28-.08-.04,0-.07,.02-.08,.06s0,.07,.04,.09c.16,.08,.21,.14,.27,.21l.04,.04-.41-.1s-.07,0-.09,.04c-.01,.03,0,.07,.03,.09l.37,.22c-.05,0-.11,0-.17-.02-.17,0-.28,.03-.29,.03-.04,0-.06,.05-.05,.08,0,.04,.03,.06,.07,.07,.18,0,.25,.05,.33,.09l.05,.03-.42,.06s-.06,.04-.06,.07,.03,.07,.06,.07l.43,.06s-.11,.03-.17,.05c-.16,.05-.25,.13-.25,.13-.03,.02-.04,.06-.02,.1,.02,.03,.06,.05,.09,.03,.1-.04,.17-.05,.22-.05-.09,.08-.16,.14-.19,.18-.02,.02-.03,.04-.05,.07,0,0-.02-.02-.03-.03h-.06c-.12,.09-.22,.19-.28,.3-.02,.03-.04,.06-.05,.09,0,0-.02-.02-.04-.03-.02,0-.04,0-.05,.02-.1,.11-.18,.22-.23,.34-.01,.03-.03,.06-.03,.09-.01,0-.02-.02-.04-.02s-.04,0-.05,.02c-.09,.12-.15,.24-.19,.36,0,.03-.02,.06-.02,.1-.01-.01-.03-.02-.05-.02s-.04,.01-.05,.03c-.07,.13-.12,.26-.13,.39v.09s-.03-.02-.05-.01c-.02,0-.04,.02-.04,.04-.05,.14-.08,.28-.08,.4v.09s-.03-.01-.05,0c-.02,0-.03,.02-.04,.04-.03,.15-.05,.28-.03,.41,0,.02,0,.05,.01,.07h-.03s-.03,.02-.04,.04c-.03,.15-.03,.29-.01,.41,0,.03,.01,.06,.02,.09h-.02s-.03,.03-.03,.05c-.02,.15-.01,.29,.01,.41,0,.03,.01,.05,.02,.08h-.04s-.03,.03-.03,.05c0,.15,.02,.29,.06,.41,.01,.03,.03,.07,.04,.1h0s-.04,0-.06,.01c-.01,.01-.02,.03-.02,.05,.02,.15,.07,.28,.13,.39,.01,.02,.02,.04,.04,.06-.01,0-.02,0-.03,.02-.01,.01-.02,.04-.01,.05,.03,.15,.09,.27,.16,.38,.02,.03,.03,.05,.05,.07-.02,0-.03,.01-.04,.02-.01,.02-.02,.04,0,.06,.05,.14,.12,.26,.2,.36l.06,.06s-.03,.01-.03,.03c-.01,.02-.01,.04,0,.06,.07,.13,.15,.25,.24,.34,.02,.02,.04,.04,.06,.05-.01,0-.02,.02-.03,.03v.06c.08,.13,.17,.23,.27,.31l.09,.06h-.01s-.03,.03-.04,.05c0,.02,0,.04,.02,.06,.1,.11,.21,.19,.32,.26,.09,.05,.18,.08,.26,.1,.08,.01,.15,.01,.21,0h.01c.19,.13,.38,.24,.59,.32,.17,.07,.34,.13,.52,.16,.04,0,.07,.01,.1,.02-.07-.03-.15-.07-.2-.13,0-.01-.02-.02-.02-.03-.12-.03-.24-.07-.36-.12-.19-.08-.38-.19-.56-.31h0c0-.07,0-.13-.02-.19,.13,.1,.24,.19,.37,.26,.17,.1,.35,.17,.53,.22v-.03s.01-.06,.03-.08c-.17-.05-.33-.12-.49-.21-.34-.19-.65-.46-.92-.81-.09-.12-.18-.25-.26-.39,.2-.09,.66-.29,1.05-.5,0,.02,0,.03,.01,.05,.03,.08,.12,.11,.19,.12h.06c.03,.06,.08,.11,.16,.14,.03,.01,.06,.02,.09,.02,.01,.04,.04,.07,.07,.09,.08,.05,.19,.05,.25,.04,.04,.04,.08,.07,.13,.08h.05s.08,0,.12-.02v.71c0,.05,.04,.09,.09,.09s.09-.04,.09-.09v-.74c.09,.02,.17,0,.22-.02,.04-.02,.07-.04,.1-.06,.09,.02,.17,0,.24-.07,.02-.02,.04-.05,.05-.07,.13,0,.2-.05,.24-.1,.02-.02,.04-.05,.05-.07,.08,0,.14-.03,.19-.07,.02-.02,.04-.05,.05-.07,.32,.25,.82,.47,1.04,.56-.07,.13-.16,.25-.24,.36-.26,.35-.57,.62-.92,.81-.16,.09-.37,.17-.54,.22,.01,.02,.02,.05,.03,.08v.03c.18-.05,.41-.14,.58-.23,.13-.07,.26-.17,.37-.26-.02,.06-.02,.12-.02,.18h0c-.05,.05-.2,.16-.41,.26-.16,.08-.35,.14-.52,.18h-.02s-.01,.02-.02,.03c-.05,.06-.1,.1-.17,.13,.09-.01,.18-.03,.28-.06,.17-.05,.35-.11,.51-.19,.22-.11,.37-.22,.43-.26h0c.06,.02,.14,.01,.21,0,.09-.02,.17-.05,.26-.1,.11-.06,.21-.15,.32-.26,.01-.01,.02-.04,.02-.06s-.02-.04-.04-.04h0s.06-.04,.1-.07c.1-.08,.19-.18,.27-.31,.01-.02,.01-.04,0-.06,0-.01-.02-.02-.03-.03,.02-.02,.04-.03,.06-.05,.09-.09,.17-.2,.24-.34v-.06s-.03-.03-.04-.03c.02-.02,.04-.04,.06-.07,.08-.1,.15-.22,.2-.36v-.05s-.03-.03-.05-.03h0s.03-.04,.05-.07c.07-.11,.12-.23,.16-.38,0-.02,0-.04-.01-.06-.01-.01-.03-.02-.05-.02,.02-.03,.03-.05,.05-.08,.06-.11,.09-.25,.11-.4m-4.39-2.03v-.02c.07-.36,.21-.6,.32-.74,.08-.11,.15-.17,.18-.2,.01,0,.02-.02,.03-.03,.03-.03,.04-.08,.01-.12s-.08-.04-.12-.02c0,0-.02,.01-.04,.03-.08,.06-.12,.04-.14,.03-.03-.01-.04-.05-.03-.09,.01-.08,.1-.18,.13-.21h0c.17-.21,.45-.22,.46-.22h0s.09,0,.2,.03c.15,.05,.26,.15,.34,.3,.11,.21,.19,.43,.25,.66-.16-.06-.28-.16-.28-.16-.04-.03-.09-.02-.12,.01-.01,.02-.02,.04-.02,.06s.01,.04,.03,.06c0,0,.2,.16,.43,.22,.02,.08,.03,.16,.05,.26-.07-.04-.16-.06-.23-.08-.05-.01-.1-.03-.13-.04-.16-.06-.29-.17-.3-.17-.04-.03-.09-.02-.12,.01-.03,.04-.02,.09,.01,.12,0,0,.16,.12,.34,.2,.05,.02,.1,.03,.15,.05,.2,.05,.29,.09,.3,.19,0,.02-.01,.03-.03,.04-.06,.07-.21,.08-.25,.07h-.2s-.23,0-.4-.12c-.43-.28-.62-.23-.86-.13m.73,.25h-.58c-.06,0-.1-.01-.12-.04,0,0,0-.01-.01-.02,.24-.11,.37-.15,.72,.07m.23,1.04v-.88h.62c.11-.02,.19-.06,.25-.12,.02-.03,.05-.06,.06-.11h0c.01-.06,.02-.11,0-.17v-.02c-.05-.35-.12-.78-.39-1.31-.23-.44-.65-.42-.69-.42s-.36,0-.57,.27c-.02,.02-.15,.16-.17,.3-.02,.11,.02,.21,.11,.26,.01,0,.03,.01,.04,.02-.13,.17-.3,.44-.38,.85-.01,.07-.02,.13,0,.19h0c0,.07,.03,.13,.07,.17,.04,.05,.11,.1,.25,.1h.62v1.42c-.16,0-.29,.06-.44,.17-.22,.15-.96,.29-2.21,.44-.09-.37-.13-.75-.13-1.14,0-.52,.08-1.02,.23-1.49,.15-.45,.35-.86,.62-1.21,.26-.35,.57-.62,.92-.81,.35-.2,.73-.3,1.11-.3s.76,.1,1.11,.3c.34,.19,.65,.46,.92,.81s.47,.76,.62,1.21c.15,.47,.23,.97,.23,1.49,0,.4-.05,.79-.14,1.16-.76-.04-1.65-.32-1.68-.33-.06-.02-.12-.04-.17-.06-.19-.07-.32-.12-.48-.11h-.03c-.09-.04-.17-.07-.28-.09v-.56l-.02-.03Z"/><path class="cls-3" d="M123.5,2.58c.1,0,.2,.02,.29,.06h.01c.05,0,.16,.03,.27,.03h.03c-.06-.02-.1-.04-.15-.07-.03-.02-.06-.03-.09-.05-.11-.05-.22-.07-.23-.07s-.03-.02-.03-.03,.01-.03,.03-.03l.53-.08-.53-.08s-.02,0-.03-.02c0,0,0-.03,.01-.03,0,0,.09-.05,.21-.08,.05,0,.15-.04,.26-.07h.03c-.06,0-.11,0-.17-.02h-.1c-.12,0-.23,.02-.24,.02s-.03,0-.04-.02c0,0,0-.03,.01-.04l.46-.27-.52,.13s-.03,0-.03,0v-.03s.06-.08,.16-.15c.04-.03,.13-.09,.21-.17l.02-.02c-.06,.03-.1,.04-.16,.06-.03,0-.06,.02-.1,.03-.12,.05-.21,.11-.22,.11h-.04s-.01-.03,0-.04l.32-.43-.43,.32h-.03s-.02-.02-.01-.03c0,0,.02-.1,.09-.2,.03-.04,.08-.13,.13-.24v-.03s-.07,.08-.11,.11c-.03,.02-.05,.04-.08,.07-.09,.09-.15,.18-.15,.19s-.02,.02-.04,0c-.01,0-.02-.02-.02-.04l.13-.52-.27,.46s-.02,.02-.03,0c-.01,0-.02,0-.02-.02,0,0-.02-.1,0-.22,0-.05,.03-.16,.03-.27v-.03c-.02,.06-.04,.1-.07,.15-.02,.03-.03,.06-.05,.09-.05,.12-.07,.23-.07,.23,0,0-.02,.03-.03,.03s-.03,0-.03-.03l-.08-.52-.07,.52s-.01,.02-.02,.03c-.01,0-.03,0-.03,0,0,0-.06-.09-.08-.21-.01-.05-.04-.15-.07-.26v-.03c0,.06,0,.11-.02,.17v.1c0,.13,.02,.24,.02,.24,0,0,0,.03-.02,.04-.01,0-.03,0-.04,0l-.28-.46,.13,.52s0,.03-.01,.03h-.03s-.09-.06-.15-.16c-.03-.04-.09-.13-.17-.21l-.02-.02c.03,.06,.04,.1,.06,.16,0,.03,.02,.06,.03,.1,.04,.12,.11,.21,.11,.22v.04s-.03,0-.04,0l-.43-.32,.32,.43v.03s-.02,.02-.03,0c0,0-.1-.02-.2-.09-.04-.03-.13-.08-.24-.13h-.03s.08,.07,.11,.11c.02,.03,.04,.05,.07,.08,.09,.09,.19,.15,.19,.16,.01,0,.02,.02,.01,.04,0,0-.02,.02-.04,.02l-.52-.13,.46,.27s.02,.02,.01,.03c0,0-.01,.02-.03,.02,0,0-.1,.02-.22,0-.05,0-.16-.03-.27-.03h-.03c.06,.02,.1,.04,.15,.07,.03,0,.06,.03,.09,.05,.12,.05,.23,.07,.23,.07,.01,0,.03,.02,.03,.03s-.01,.03-.03,.03l-.53,.08,.53,.08s.02,0,.03,.02c0,0,0,.03-.01,.03,0,0-.09,.05-.21,.08-.05,0-.15,.04-.26,.07h-.03c.06,0,.11,0,.17,.02h.18c.1-.08,.23-.13,.38-.17,.02,0,.04,0,.05,0s.02,.02,.02,.04c.03-.02,.06-.03,.09-.04,.11-.05,.24-.08,.4-.09,.02,0,.04,0,.05,.02,0,0,.01,.02,.02,.03,.04-.02,.09-.03,.13-.04,.12-.02,.26-.03,.41,0,.02,0,.04,.02,.05,.03v.02h.13c.12,0,.26,.03,.4,.08,.02,0,.03,.02,.04,.04h0"/><path class="cls-5" d="M122.71,1.87c.51-.08,.57,.07,.57,.07,0,0,.01,.03,.06,.02,0,0,.03,0,.02-.05,0,0-.06-.17-.33-.2,0,0-.14-.02-.29,0-.05,0-.06,.11-.06,.11,0,.05,.04,.04,.04,.04"/><path class="cls-5" d="M122.27,1.97c-.06-.03-.21-.02-.21-.02-.23,0-.29,.15-.29,.15-.02,.05,.02,.05,.02,.05,.05,0,.06-.03,.06-.03,0,0,.01-.04,.11-.06v.04c0,.07,.05,.12,.12,.12s.12-.05,.12-.12v-.05s.06,.04,.09,.08c0,.02,.03,.02,.07,.02,.05,0,.04-.03,.04-.03-.03-.12-.11-.16-.11-.16"/><path class="cls-5" d="M122.7,2.15s.06,0,.07-.02c.02-.04,.05-.06,.08-.08v.05c0,.07,.05,.12,.12,.12s.12-.05,.12-.12v-.04c.1,.02,.11,.06,.11,.06,0,0,.02,.04,.06,.03,0,0,.04,0,.02-.05,0,0-.06-.14-.29-.15,0,0-.14,0-.21,.02,0,0-.08,.04-.11,.16,0,0-.01,.03,.04,.03"/><path class="cls-5" d="M121.71,1.96l.06-.02s.06-.15,.57-.07c0,0,.05,0,.04-.04,0,0-.01-.1-.06-.11-.15-.03-.29,0-.29,0-.27,.03-.33,.2-.33,.2-.02,.04,.02,.04,.02,.04"/><path class="cls-7" d="M124.79,9.98c-.08-.01-.21-.01-.36,.05-.02,0-.04,0-.05-.01s-.02-.03,0-.05c0,0,.04-.11,.06-.22h0s-.08,.07-.11,.11c-.11,.13-.16,.26-.15,.39h.07s.07,0,.11-.01c.1-.02,.27-.08,.46-.26h0"/><path class="cls-7" d="M120.63,9.74h0c0,.12,.05,.23,.05,.23v.05s-.03,.02-.05,.01c-.15-.06-.28-.06-.36-.05h0c.15,.15,.31,.24,.46,.27,.04,0,.08,.01,.11,.01h.07c.01-.24-.16-.42-.27-.51"/><path class="cls-7" d="M125.12,9.54c-.08,0-.21,.03-.34,.12h-.05s-.02-.03-.02-.05c0,0,.02-.12,.01-.23h0s-.07,.08-.09,.12c-.09,.14-.13,.27-.12,.4h.02s.1,0,.17-.02c.08-.02,.15-.07,.22-.12s.14-.12,.2-.21h0"/><path class="cls-7" d="M125.4,9.08c-.08,.01-.2,.05-.33,.15-.01,.01-.03,.01-.05,0-.02,0-.02-.03-.02-.04,0,0,.01-.12-.01-.23h0s-.06,.09-.08,.13c-.07,.14-.1,.28-.07,.41h0s.1,0,.19-.04c.07-.03,.14-.08,.21-.14,.06-.06,.12-.14,.17-.23h0"/><path class="cls-7" d="M125.62,8.57s-.03,0-.05,.01c-.07,.02-.16,.07-.26,.18-.01,.01-.03,.02-.05,.01-.02,0-.03-.02-.03-.04,0,0,0-.12-.04-.23h0s-.04,.09-.06,.13c-.06,.15-.06,.29-.02,.42h0s.1-.02,.18-.07c.07-.04,.13-.1,.19-.17,.06-.07,.11-.16,.15-.25h0"/><path class="cls-7" d="M125.78,8.07c-.08,.03-.19,.09-.29,.22-.01,.01-.03,.02-.05,.01-.02,0-.03-.02-.03-.04,0,0-.02-.13-.06-.24h0s-.04,.1-.05,.15c-.03,.11-.04,.27,.02,.43h0s.1-.03,.17-.08,.12-.11,.17-.18c.05-.07,.09-.16,.12-.26h0"/><path class="cls-7" d="M125.89,7.53c-.07,.04-.18,.12-.26,.25,0,.02-.03,.02-.04,.02s-.03-.02-.04-.03c0,0-.03-.13-.09-.23h0l-.03,.15c-.02,.16,0,.31,.07,.43h0s.1-.04,.16-.11c.06-.06,.11-.12,.15-.2s.07-.17,.09-.27h0"/><path class="cls-7" d="M125.7,7.27s-.02,.03-.04,.03-.03-.01-.04-.03c0,0-.04-.12-.12-.21h0c0,.05-.02,.1-.02,.16,0,.16,.04,.3,.12,.41h0s.09-.05,.15-.12c.05-.06,.09-.13,.12-.22,.03-.08,.05-.18,.06-.28h0c-.07,.04-.16,.13-.23,.27"/><path class="cls-7" d="M125.68,6.78s-.03,0-.04-.02c0,0-.05-.11-.13-.19h0c0,.13,0,.38,.15,.54h0s.08-.06,.14-.14c.05-.07,.08-.14,.1-.23s.03-.18,.03-.28h0c-.06,.05-.15,.15-.2,.29,0,.02-.02,.03-.04,.03"/><path class="cls-7" d="M125.66,6.26s-.04,0-.04-.02c0,0-.06-.1-.15-.17h0c.01,.15,.06,.4,.2,.52h0s.08-.07,.12-.15c.04-.07,.07-.15,.08-.24,.01-.09,.01-.18,0-.29h0c-.06,.06-.13,.16-.17,.31,0,.02-.02,.03-.04,.03"/><path class="cls-7" d="M125.59,5.75s-.04,0-.05-.02c0,0-.07-.1-.16-.17h0c0,.05,.01,.11,.03,.15,.03,.11,.08,.26,.21,.36h0s.07-.07,.11-.16c.04-.07,.06-.15,.07-.24,0-.09,0-.18-.01-.29h0c-.05,.06-.12,.17-.16,.32,0,.02-.02,.03-.03,.03"/><path class="cls-7" d="M125.48,5.25s-.04,0-.05-.01c0,0-.08-.09-.18-.15h0c.01,.05,.03,.1,.04,.15,.06,.15,.15,.26,.26,.33h0s.06-.08,.09-.17c.03-.08,.04-.16,.03-.25,0-.09-.02-.18-.05-.28h0c-.04,.07-.1,.18-.11,.34,0,.02-.01,.03-.03,.04"/><path class="cls-7" d="M125.26,4.76s-.09-.08-.2-.13h0c.02,.05,.04,.1,.06,.14,.07,.14,.17,.25,.29,.31h0s.05-.09,.07-.18c.02-.08,.02-.16,0-.25-.01-.09-.04-.18-.08-.27h0c-.04,.07-.08,.19-.07,.35,0,.02,0,.03-.03,.04h-.05"/><path class="cls-7" d="M124.81,4.19h0c.02,.05,.05,.1,.07,.14,.09,.13,.2,.23,.33,.27h0s.04-.09,.05-.19c0-.08,0-.16-.02-.25s-.06-.17-.11-.26h0c-.03,.08-.06,.2-.03,.36,0,.02,0,.04-.02,.05h-.05s-.1-.08-.22-.11h0"/><path class="cls-7" d="M124.52,3.8h0s.07,.09,.1,.13c.11,.12,.23,.19,.37,.22h0s.03-.1,.02-.19c0-.08-.03-.16-.06-.24-.04-.08-.09-.16-.15-.24h0c-.01,.09-.02,.22,.02,.35,0,.02,0,.04-.02,.05s-.04,0-.05,0c0,0-.1-.07-.23-.08h0"/><path class="cls-7" d="M124.46,3.48s-.03,.02-.05,0c0,0-.11-.04-.22-.04h-.02s.08,.09,.13,.12c.09,.07,.23,.15,.37,.15h.01s0-.11-.01-.2c-.02-.08-.05-.16-.1-.23-.05-.07-.11-.14-.19-.21h0c0,.08,0,.21,.08,.35v.05"/><path class="cls-7" d="M120.52,9.9h.02c.01-.22-.13-.42-.21-.53h0c-.01,.12,.01,.23,.01,.23,0,.02,0,.04-.02,.05s-.03,.01-.05,0c-.13-.09-.26-.11-.34-.12h0c.06,.09,.13,.16,.2,.21,.07,.06,.15,.1,.22,.12,.07,.02,.13,.03,.17,.03"/><path class="cls-7" d="M120.22,9.5h0c.03-.16-.03-.31-.08-.41-.02-.05-.05-.09-.08-.13h0c-.02,.12-.01,.23-.01,.23,0,.02,0,.04-.02,.04h-.05c-.13-.1-.25-.14-.33-.15h0c.05,.09,.11,.17,.17,.23,.06,.06,.13,.11,.21,.14,.08,.04,.15,.05,.19,.05"/><path class="cls-7" d="M119.95,9.07h0c.04-.13,.03-.28-.02-.43-.02-.05-.04-.09-.06-.14h0c-.04,.11-.04,.23-.04,.23,0,.02-.01,.03-.03,.04h-.05c-.1-.1-.2-.15-.26-.17-.01,0-.03-.01-.04-.01h0c.04,.1,.09,.18,.15,.25,.06,.07,.12,.13,.19,.17,.08,.05,.15,.06,.18,.07"/><path class="cls-7" d="M119.72,8.61h0c.1-.23,.03-.46-.02-.57h0c-.05,.11-.07,.23-.07,.23,0,.02-.02,.03-.03,.04-.02,0-.04,0-.05-.02-.08-.11-.18-.17-.24-.2-.01,0-.03-.01-.04-.02h0c.12,.41,.36,.51,.46,.54"/><path class="cls-7" d="M119.39,8.02c.07,.06,.14,.09,.17,.1h0c.08-.14,.11-.29,.07-.44-.01-.05-.03-.1-.05-.14h0c-.06,.1-.09,.23-.09,.23h0s-.02,.03-.04,.03-.04,0-.05-.02c-.09-.13-.19-.2-.27-.24h0c.02,.1,.06,.19,.1,.27s.09,.15,.16,.2"/><path class="cls-7" d="M119.42,7.63h0c.17-.23,.15-.45,.13-.56h0c-.08,.09-.13,.21-.13,.21,0,.02-.02,.03-.04,.03h0s-.03-.01-.04-.03c-.06-.12-.13-.21-.19-.25-.01-.01-.02-.02-.04-.03h0c.02,.42,.22,.58,.31,.63"/><path class="cls-7" d="M119.38,7.13h0c.08-.08,.13-.18,.15-.3,.02-.1,0-.2,0-.26h0c-.09,.08-.11,.2-.11,.2,0,.02-.02,.04-.04,.04s-.04-.01-.05-.03c-.04-.13-.11-.22-.16-.27l-.03-.03h0c-.03,.42,.16,.61,.24,.66"/><path class="cls-7" d="M119.25,6.44c.05,.08,.1,.13,.12,.15h0c.1-.09,.16-.22,.19-.38,0-.05,.01-.1,.01-.16h0c-.09,.08-.14,.18-.14,.18,0,.02-.03,.03-.04,.03-.02,0-.03-.02-.04-.03-.04-.15-.11-.26-.17-.32h0c-.01,.1-.01,.2,0,.29s.04,.17,.08,.24"/><path class="cls-7" d="M119.31,5.92c.04,.08,.09,.13,.11,.15h0c.11-.1,.19-.23,.22-.38,.01-.05,.02-.09,.02-.14h0c-.09,.07-.16,.17-.16,.17-.01,.01-.03,.02-.05,.02s-.03-.02-.03-.03c-.03-.15-.1-.26-.16-.32h0c-.02,.1-.02,.2-.01,.29,0,.09,.03,.17,.07,.24"/><path class="cls-7" d="M119.49,5.57h0c.13-.08,.23-.2,.28-.35,.02-.05,.03-.09,.03-.14h0c-.11,.06-.19,.15-.19,.15-.01,.01-.03,.02-.05,.01-.02,0-.03-.02-.03-.04-.01-.16-.07-.27-.11-.34h0c-.03,.1-.05,.19-.05,.28s.01,.17,.04,.25c.03,.09,.08,.15,.09,.17"/><path class="cls-7" d="M119.62,5.07h0c.14-.07,.25-.18,.32-.31,.02-.04,.04-.09,.05-.13h0c-.11,.04-.2,.13-.21,.13-.01,.01-.03,.01-.05,0-.02,0-.03-.02-.02-.04,0-.16-.03-.28-.07-.35h0c-.04,.09-.07,.19-.08,.27-.01,.09-.01,.17,0,.25,.02,.09,.05,.15,.07,.18"/><path class="cls-7" d="M119.81,4.6h0c.13-.04,.24-.12,.34-.25,.04-.06,.07-.11,.09-.15h0c-.13,.01-.22,.1-.22,.1-.01,.01-.04,.02-.05,0-.02,0-.03-.03-.02-.05,.03-.16,0-.28-.02-.36h0c-.06,.09-.1,.17-.12,.26-.03,.09-.04,.17-.03,.25,0,.09,.03,.16,.04,.19"/><path class="cls-7" d="M120.07,4.15h0c.22-.04,.38-.23,.46-.34h0c-.12,0-.22,.07-.22,.07-.02,0-.04,0-.05,0-.02,0-.02-.03-.02-.05,.05-.15,.04-.28,.03-.36h0c-.27,.32-.23,.58-.19,.68h0"/><path class="cls-7" d="M120.37,3.72h.02c.13,0,.26-.08,.35-.15,.04-.03,.09-.07,.13-.12h0c-.11,0-.22,.03-.22,.04-.02,0-.04,0-.05,0s-.01-.03,0-.05c.07-.14,.09-.27,.08-.35h0c-.08,.07-.14,.14-.19,.21s-.08,.15-.1,.23c-.02,.09-.01,.17,0,.2h0"/><path class="cls-7" d="M121.27,3.15c-.12,0-.23,0-.23,0-.02,0-.04,0-.05-.02-.01,0-.01-.03,0-.05,.09-.13,.11-.26,.12-.34h0c-.34,.24-.37,.5-.36,.6h.03c.21,0,.4-.13,.5-.21h0"/><path class="cls-7" d="M121.7,2.94s-.08-.02-.12-.02h-.11s-.04,0-.04-.03,0-.04,.01-.05c.12-.1,.18-.2,.2-.26h0c-.4,.13-.49,.36-.5,.46h0s.09,.02,.16,.02,.16,0,.27-.05c.05-.02,.1-.04,.14-.06h0"/><path class="cls-7" d="M122.18,2.81c-.1-.05-.22-.07-.22-.07-.02,0-.03-.02-.04-.04s0-.04,.02-.05c.13-.06,.2-.13,.23-.18h0c-.2,.02-.37,.09-.47,.19-.05,.05-.08,.1-.09,.14h0c.09,.05,.18,.06,.27,.06,.06,0,.11,0,.15,0,.05,0,.1-.02,.15-.04h0"/><path class="cls-7" d="M122.49,2.68s-.03-.02-.03-.04,.01-.04,.03-.04c.13-.04,.21-.09,.25-.12h0c-.2-.02-.37,0-.49,.09-.06,.04-.1,.08-.12,.11h0c.14,.11,.31,.13,.45,.13h.11c-.09-.08-.2-.12-.2-.12"/><path class="cls-7" d="M123.02,2.71s-.02-.03-.02-.05,.02-.03,.04-.03c.13-.02,.22-.05,.27-.07h0c-.19-.06-.36-.06-.5,0-.07,.03-.12,.06-.14,.09h0c.17,.2,.4,.24,.52,.24h0c-.07-.1-.18-.17-.18-.17"/><path class="cls-7" d="M124.32,3.37h0s0-.13-.04-.22c-.06-.15-.18-.26-.36-.32h0c.02,.08,.07,.18,.14,.27,.01,0,.01,.04,0,.05-.01,.02-.03,.02-.05,.02,0,0-.11-.03-.23,0h0c.11,.08,.33,.2,.51,.2h.02"/><path class="cls-7" d="M123.9,3.04h0c-.1-.11-.23-.16-.38-.15-.05,0-.11,0-.16,.03h0c.12,.1,.25,.15,.38,.15h.02c.06,0,.11-.02,.14-.03h0"/><path class="cls-7" d="M123.17,2.72h0c.08,.06,.17,.08,.28,.08,.05,0,.09,0,.15,0,.08-.02,.15-.04,.2-.06h0c-.07-.05-.15-.07-.22-.09-.08,0-.16,0-.24,0-.07,.02-.13,.04-.16,.06h0"/><path class="cls-4" d="M121.68,5.56s.07,.04,.12,.04h.58c-.35-.22-.47-.18-.72-.07,0,0,0,.02,.01,.02"/><path class="cls-4" d="M123.07,5.3c-.05-.01-.11-.03-.15-.05-.18-.07-.33-.19-.34-.2-.04-.03-.04-.08-.01-.12s.08-.04,.12-.01c0,0,.14,.11,.3,.17,.04,.01,.08,.03,.13,.04,.07,.02,.16,.04,.23,.08-.02-.1-.03-.18-.05-.25-.23-.05-.42-.21-.43-.22-.02-.01-.03-.03-.03-.06,0-.02,0-.04,.02-.06,.03-.04,.08-.04,.12-.01,0,0,.12,.1,.28,.16-.06-.23-.14-.45-.25-.66-.08-.15-.19-.25-.34-.3-.11-.04-.2-.03-.2-.03h0s-.28,0-.46,.21h0s-.12,.14-.13,.22c0,.04,0,.08,.03,.09,.01,0,.06,.02,.14-.03,.02-.02,.03-.03,.04-.03,.04-.03,.09-.02,.12,.02,.03,.04,.02,.09-.01,.12-.01,0-.02,.02-.03,.03-.04,.03-.11,.1-.18,.2-.1,.14-.24,.38-.31,.74v.02c.24-.1,.43-.15,.86,.13,.17,.11,.36,.12,.4,.12h.2s.19,0,.25-.07c.01-.01,.02-.03,.03-.04,0-.1-.1-.14-.3-.19"/><path class="cls-1" d="M122.26,8.68s.05-.05,.05-.07c0,0,0-.02-.02-.04-.02-.02-.04-.02-.06-.02-.04,0-.09,.03-.17,.08-.05,.03-.13,.1-.12,.16,0,.03,.01,.04,.02,.04,.04,.03,.12,.02,.15,.01,.03-.07,.08-.12,.16-.17"/><path class="cls-1" d="M122.55,8.78s0-.02-.02-.04c0,0-.04-.03-.12,.02-.06,.04-.13,.08-.17,.15,.02,.02,.03,.02,.04,.03,.07,.01,.17-.05,.2-.07h0s.06-.05,.06-.08"/><path class="cls-1" d="M121.66,8.37h-.02c-.06,0-.15,.04-.19,.09-.03,.04-.02,.06-.02,.07s.03,.03,.08,.03h.03c.02-.06,.07-.12,.11-.16l.03-.03h-.03"/><path class="cls-1" d="M121.68,8.64s0,.05,.08,.07h.03c.02-.07,.08-.14,.18-.21l.04-.03h0s-.02-.04-.04-.05c-.02,0-.03-.01-.05-.01-.05,0-.1,.03-.17,.09-.06,.05-.08,.09-.07,.12"/><path class="cls-1" d="M123.5,8.5s.08-.01,.1-.03c.02-.02,.03-.05,.03-.07-.04-.05-.19-.22-.38-.35-.08-.05-.17-.11-.26-.14-.1-.04-.18-.05-.26-.03h0s-.05,.03-.09,.05c-.02,.02-.05,.03-.08,.05-.09,.05-.21,.09-.3,.09s-.19,.01-.26-.08c-.04-.06-.05-.12-.03-.18,.02-.06,.09-.09,.18-.14,.04-.02,.07-.04,.1-.05,.04-.03,.07-.05,.1-.07,.03-.03,.07-.06,.13-.1,.02-.02,.05-.03,.08-.04h-.09c-.14-.01-.24,.04-.39,.14-.13,.08-.37,.16-.76,.24-.37,.07-.87,.15-1.49,.22l.06,.21c.08,.25,.18,.48,.29,.7,.22-.1,.77-.34,1.19-.57,.08-.08,.21-.13,.31-.11,.02,0,.1,.01,.16,.06,.07-.02,.14-.02,.2,.01,.07,.03,.1,.08,.11,.11h0c.09-.03,.17-.01,.23,.05,.04,.04,.07,.08,.07,.12,.08-.01,.15,.02,.18,.05,.06,.06,.07,.12,.07,.16,0,.03-.01,.06-.03,.09,.04,0,.08,0,.12-.01,.01,0,.03-.01,.04-.02-.02-.04-.05-.09-.1-.15-.01-.01-.02-.03-.02-.05s0-.04,.02-.05c.03-.03,.08-.02,.1,0,.07,.08,.12,.16,.14,.21,.04,0,.07,0,.1-.03,.02-.02,.03-.03,.03-.05s-.03-.05-.08-.11c-.04-.05-.14-.12-.17-.14-.02-.01-.03-.03-.03-.05s0-.04,.01-.06,.03-.03,.05-.03,.04,0,.06,.01c0,0,.13,.09,.2,.17,.05,.05,.08,.1,.1,.14,.05,0,.09-.02,.12-.05,0,0,.02-.02,.02-.03-.06-.08-.2-.25-.37-.33-.02,0-.03-.02-.04-.04v-.06s.02-.03,.04-.04h.06c.21,.1,.37,.3,.43,.38"/><path class="cls-1" d="M122.55,7.81s.09-.06,.14-.07c.25-.07,.5,.1,.64,.19,.19,.12,.33,.27,.39,.35h.01v.02h0s.07,.07,.13,.12c.31,.23,.79,.44,.99,.52,.12-.23,.23-.47,.31-.73,.02-.06,.04-.12,.06-.19-.39-.03-.82-.11-1.1-.18-.33-.08-.57-.15-.58-.16-.07-.02-.13-.04-.18-.06-.18-.06-.3-.11-.43-.1h-.11c-.12,0-.2,0-.28,.06-.05,.04-.09,.07-.12,.09-.03,.03-.06,.05-.11,.08l-.12,.06s-.09,.04-.11,.06c0,0,0,.01,.01,.04,.02,.02,.06,.02,.13,.02,.06,0,.16-.03,.24-.07,.03-.02,.05-.03,.07-.05"/></g><g><path class="cls-5" d="M129.35,2.27h.38v1.74h-.29v-1.32l-.48,1.07h-.26l-.48-1.04v1.29h-.29v-1.74h.38l.53,1.17,.52-1.17h-.01Z"/><path class="cls-5" d="M130.07,2.46s-.05-.07-.05-.12,.02-.1,.05-.12c.03-.03,.08-.04,.15-.04s.11,0,.15,.04c.03,.03,.05,.07,.05,.12s-.02,.1-.05,.12c-.03,.03-.08,.04-.15,.04s-.11,0-.15-.04Zm0,1.55v-1.28h.31v1.28h-.31Z"/><path class="cls-5" d="M130.68,2.72h.26l.02,.14h.02c.05-.05,.11-.09,.17-.12,.07-.03,.14-.04,.21-.04,.13,0,.24,.04,.31,.12,.08,.08,.12,.2,.12,.37v.82h-.31v-.8c0-.09-.02-.15-.05-.18s-.09-.05-.16-.05c-.05,0-.1,0-.15,.03-.05,.02-.09,.05-.13,.1v.91h-.31v-1.3Z"/><path class="cls-5" d="M132.09,2.46s-.05-.07-.05-.12,.02-.1,.05-.12c.03-.03,.08-.04,.15-.04s.11,0,.15,.04c.03,.03,.05,.07,.05,.12s-.02,.1-.05,.12c-.03,.03-.08,.04-.15,.04s-.11,0-.15-.04Zm0,1.55v-1.28h.31v1.28h-.31Z"/><path class="cls-5" d="M132.66,3.98v-.23c.12,.04,.25,.06,.39,.06,.09,0,.16,0,.2-.04s.06-.07,.06-.12c0-.04,0-.07-.03-.1-.02-.02-.06-.04-.11-.05l-.2-.04c-.12-.02-.2-.07-.26-.12-.05-.06-.08-.14-.08-.24,0-.08,.02-.15,.06-.21s.11-.11,.19-.14c.09-.03,.19-.05,.32-.05,.12,0,.23,0,.33,.04v.23c-.1-.03-.21-.04-.32-.04-.19,0-.29,.05-.29,.16,0,.04,0,.07,.03,.09s.06,.04,.11,.05l.2,.04c.12,.02,.2,.06,.26,.12s.08,.14,.08,.24c0,.08-.02,.15-.06,.21s-.1,.11-.19,.14c-.08,.03-.18,.05-.3,.05-.15,0-.28-.02-.39-.05Z"/><path class="cls-5" d="M134.57,3.76v.25c-.07,.02-.15,.03-.22,.03-.3,0-.46-.15-.46-.46v-.6h-.22v-.25h.22l.05-.46h.25v.46h.36v.25h-.36v.55c0,.06,0,.11,.02,.15s.04,.06,.07,.08,.08,.02,.13,.02c.04,0,.09,0,.14-.02h.02Z"/><path class="cls-5" d="M135.79,3.46h-.79c0,.08,.02,.15,.05,.2s.07,.08,.13,.11,.13,.03,.23,.03,.2,0,.32-.04v.23c-.12,.03-.24,.05-.36,.05-.15,0-.28-.02-.38-.07s-.17-.12-.22-.22c-.05-.1-.07-.22-.07-.38,0-.14,.02-.26,.07-.36,.04-.1,.11-.17,.19-.22s.19-.07,.31-.07c.18,0,.31,.06,.4,.17,.09,.11,.14,.28,.14,.5v.08h-.02Zm-.73-.48c-.04,.06-.07,.15-.07,.28h.51c0-.13-.02-.23-.07-.28-.04-.06-.1-.08-.18-.08s-.15,.03-.19,.08h0Z"/><path class="cls-5" d="M136.02,2.72h.25l.02,.17h.02c.04-.06,.09-.11,.15-.14,.06-.03,.13-.05,.2-.05h.1v.28h-.12c-.06,0-.12,0-.18,.04s-.11,.06-.14,.11v.87h-.31v-1.28h0Z"/><path class="cls-5" d="M136.96,2.46s-.05-.07-.05-.12,.02-.1,.05-.12c.03-.03,.08-.04,.15-.04s.11,0,.15,.04c.03,.03,.05,.07,.05,.12s-.02,.1-.05,.12c-.03,.03-.08,.04-.15,.04s-.11,0-.15-.04Zm0,1.55v-1.28h.31v1.28h-.31Z"/><path class="cls-5" d="M137.66,3.87c-.11-.11-.16-.28-.16-.5s.05-.39,.16-.5c.1-.11,.25-.17,.44-.17s.34,.06,.44,.17c.1,.11,.16,.28,.16,.5,0,.15-.02,.27-.07,.37s-.12,.17-.21,.22-.2,.07-.32,.07c-.19,0-.33-.06-.44-.17h0Zm.65-.16c.05-.06,.07-.17,.07-.33s-.02-.27-.07-.33-.12-.1-.21-.1-.17,.03-.21,.1-.07,.17-.07,.33c0,.11,0,.19,.03,.25s.05,.11,.1,.13c.04,.03,.09,.04,.16,.04,.09,0,.17-.03,.21-.1h0Z"/><path class="cls-5" d="M139.72,3.97c-.08-.04-.14-.11-.19-.21-.05-.1-.07-.22-.07-.36,0-.23,.06-.4,.17-.51,.12-.12,.28-.18,.51-.18,.05,0,.11,0,.17,0v-.61h.31v1.9h-.26l-.02-.14h-.02s-.09,.09-.15,.12-.13,.04-.2,.04c-.1,0-.19-.02-.27-.07h.02Zm.49-.21s.08-.05,.11-.09v-.7c-.05,0-.11-.02-.17-.02-.12,0-.22,.03-.28,.1s-.09,.18-.09,.33,.03,.25,.08,.32c.05,.06,.12,.09,.22,.09,.05,0,.09,0,.14-.03h-.01Z"/><path class="cls-5" d="M141.98,3.46h-.79c0,.08,.02,.15,.05,.2s.07,.08,.13,.11,.13,.03,.23,.03,.2,0,.32-.04v.23c-.12,.03-.24,.05-.36,.05-.15,0-.28-.02-.38-.07s-.17-.12-.22-.22c-.05-.1-.07-.22-.07-.38,0-.14,.02-.26,.07-.36,.04-.1,.11-.17,.19-.22s.19-.07,.31-.07c.18,0,.31,.06,.4,.17,.09,.11,.14,.28,.14,.5v.08h-.02Zm-.73-.48c-.04,.06-.07,.15-.07,.28h.51c0-.13-.02-.23-.07-.28-.04-.06-.1-.08-.18-.08s-.15,.03-.19,.08h0Z"/></g><g><path class="cls-5" d="M128.33,6.65v-1.48h-.56v-.26h1.44v.26h-.56v1.48h-.32Z"/><path class="cls-5" d="M129.33,6.56c-.08-.08-.12-.2-.12-.37v-.82h.31v.8c0,.09,.02,.15,.05,.18,.04,.04,.09,.05,.15,.05,.05,0,.1-.01,.15-.03s.09-.05,.12-.1v-.91h.31v1.28h-.26l-.02-.13h0c-.05,.05-.11,.09-.17,.12-.06,.03-.13,.04-.2,.04-.13,0-.24-.04-.32-.12h.01Z"/><path class="cls-5" d="M130.61,5.37h.25l.02,.17h.02c.04-.06,.09-.11,.15-.14,.06-.03,.13-.05,.2-.05h.1v.28h-.12c-.06,0-.12,.01-.18,.04-.06,.03-.11,.06-.14,.11v.87h-.31v-1.28h0Z"/><path class="cls-5" d="M131.55,5.1s-.05-.07-.05-.12,.02-.1,.05-.12c.03-.03,.08-.04,.15-.04s.11,.01,.15,.04c.03,.03,.05,.07,.05,.12s-.02,.1-.05,.12c-.03,.03-.08,.04-.15,.04s-.11-.01-.15-.04Zm0,1.55v-1.28h.31v1.28h-.31Z"/><path class="cls-5" d="M132.12,6.62v-.23c.12,.04,.25,.06,.39,.06,.09,0,.16-.01,.2-.04,.04-.03,.06-.07,.06-.12,0-.04,0-.07-.03-.1-.02-.02-.06-.04-.11-.05l-.2-.04c-.12-.02-.2-.07-.26-.12-.05-.06-.08-.14-.08-.24,0-.08,.02-.15,.06-.21s.11-.11,.19-.14c.09-.03,.19-.05,.32-.05,.12,0,.23,.01,.33,.04v.23c-.1-.03-.21-.04-.32-.04-.19,0-.29,.05-.29,.16,0,.04,0,.07,.03,.09s.06,.04,.11,.05l.2,.04c.12,.02,.2,.06,.26,.12s.08,.14,.08,.24c0,.08-.02,.15-.06,.21s-.1,.11-.19,.14c-.08,.03-.18,.05-.3,.05-.15,0-.28-.02-.39-.05Z"/><path class="cls-5" d="M134.95,5.46c.07,.08,.11,.2,.11,.37v.82h-.31v-.8c0-.08-.02-.15-.05-.18s-.08-.05-.14-.05c-.04,0-.09,0-.13,.03-.04,.02-.08,.05-.11,.09v.93h-.3v-.8c0-.09-.02-.15-.05-.18s-.08-.05-.14-.05c-.05,0-.09,.01-.14,.03-.04,.02-.08,.06-.11,.1v.9h-.31v-1.28h.26l.02,.14h.02c.05-.05,.1-.09,.16-.12,.06-.03,.13-.04,.2-.04s.14,.01,.19,.04c.06,.03,.1,.07,.13,.13,.05-.06,.11-.1,.18-.13,.07-.03,.14-.04,.21-.04,.13,0,.23,.04,.3,.12v-.03Z"/><path class="cls-5" d="M135.46,6.51c-.11-.11-.16-.28-.16-.5s.05-.39,.16-.5c.1-.11,.25-.17,.44-.17s.34,.06,.44,.17,.16,.28,.16,.5c0,.15-.02,.27-.07,.37s-.12,.17-.21,.22-.2,.07-.32,.07c-.19,0-.33-.06-.44-.17h0Zm.65-.16c.05-.06,.07-.17,.07-.33s-.02-.27-.07-.33-.12-.1-.21-.1-.17,.03-.21,.1-.07,.17-.07,.33c0,.11,0,.19,.03,.25s.05,.11,.1,.13c.04,.03,.09,.04,.16,.04,.09,0,.17-.03,.21-.1h0Z"/><path class="cls-5" d="M138.19,5.37h.3l-.65,1.8h-.3l.19-.52h-.09l-.47-1.28h.32l.34,1.02,.35-1.02h0Z"/><path class="cls-5" d="M139.26,6.64v-1.7c.08-.02,.16-.03,.25-.04,.09,0,.18-.01,.26-.01,.31,0,.54,.07,.7,.22s.23,.37,.23,.67c0,.21-.04,.37-.11,.51-.07,.13-.18,.23-.33,.29-.15,.06-.33,.09-.55,.09-.15,0-.3,0-.45-.03h0Zm.86-.29c.09-.04,.15-.11,.19-.2,.04-.09,.06-.21,.06-.36s-.02-.27-.06-.36-.11-.16-.19-.2c-.09-.04-.2-.07-.33-.07-.07,0-.14,0-.22,.02v1.23c.06,0,.13,.01,.22,.01,.13,0,.25-.02,.33-.06h0Z"/><path class="cls-5" d="M142.01,6.1h-.79c0,.08,.02,.15,.05,.2,.03,.05,.07,.08,.13,.11s.13,.03,.23,.03,.2-.01,.32-.04v.23c-.12,.03-.24,.05-.36,.05-.15,0-.28-.02-.38-.07s-.17-.12-.22-.22-.07-.22-.07-.38c0-.14,.02-.26,.07-.36,.04-.1,.11-.17,.19-.22s.19-.07,.31-.07c.18,0,.31,.06,.4,.17s.14,.28,.14,.5v.08h-.02Zm-.73-.48c-.04,.06-.07,.15-.07,.28h.51c0-.13-.02-.23-.07-.28-.04-.06-.1-.08-.18-.08s-.15,.03-.19,.08h0Z"/><path class="cls-5" d="M142.24,5.37h.26l.02,.14h.02s.09-.09,.15-.12c.06-.03,.13-.04,.2-.04,.1,0,.19,.02,.26,.07,.08,.04,.14,.11,.19,.21,.05,.09,.07,.22,.07,.36,0,.23-.06,.4-.17,.51-.12,.12-.28,.18-.51,.18-.05,0-.1,0-.17-.01v.51h-.31v-1.8h-.01Zm.76,.96c.06-.07,.09-.18,.09-.33s-.03-.26-.08-.32-.12-.09-.22-.09c-.05,0-.09,0-.14,.03-.04,.02-.08,.05-.11,.09v.7c.05,.01,.11,.02,.17,.02,.12,0,.22-.03,.28-.1h.01Z"/><path class="cls-5" d="M143.75,6.51c-.11-.11-.16-.28-.16-.5s.05-.39,.16-.5c.1-.11,.25-.17,.44-.17s.34,.06,.44,.17,.16,.28,.16,.5c0,.15-.02,.27-.07,.37s-.12,.17-.21,.22-.2,.07-.32,.07c-.19,0-.33-.06-.44-.17h0Zm.65-.16c.05-.06,.07-.17,.07-.33s-.02-.27-.07-.33-.12-.1-.21-.1-.17,.03-.21,.1-.07,.17-.07,.33c0,.11,0,.19,.03,.25s.05,.11,.1,.13c.04,.03,.09,.04,.16,.04,.09,0,.17-.03,.21-.1h0Z"/><path class="cls-5" d="M145.04,5.37h.25l.02,.17h.02c.04-.06,.09-.11,.15-.14,.06-.03,.13-.05,.2-.05h.1v.28h-.12c-.06,0-.12,.01-.18,.04-.06,.03-.11,.06-.14,.11v.87h-.31v-1.28h0Z"/><path class="cls-5" d="M146.75,6.4v.25c-.07,.02-.15,.03-.22,.03-.3,0-.46-.15-.46-.46v-.6h-.22v-.25h.22l.05-.46h.25v.46h.36v.25h-.36v.55c0,.06,0,.11,.02,.15s.04,.06,.07,.08,.08,.02,.13,.02c.04,0,.09,0,.14-.02h.02Z"/><path class="cls-5" d="M147.97,6.1h-.79c0,.08,.02,.15,.05,.2,.03,.05,.07,.08,.13,.11s.13,.03,.23,.03,.2-.01,.32-.04v.23c-.12,.03-.24,.05-.36,.05-.15,0-.28-.02-.38-.07s-.17-.12-.22-.22-.07-.22-.07-.38c0-.14,.02-.26,.07-.36,.04-.1,.11-.17,.19-.22s.19-.07,.31-.07c.18,0,.31,.06,.4,.17s.14,.28,.14,.5v.08h-.02Zm-.73-.48c-.04,.06-.07,.15-.07,.28h.51c0-.13-.02-.23-.07-.28-.04-.06-.1-.08-.18-.08s-.15,.03-.19,.08h0Z"/><path class="cls-5" d="M148.16,6.62v-.23c.12,.04,.25,.06,.39,.06,.09,0,.16-.01,.2-.04,.04-.03,.06-.07,.06-.12,0-.04,0-.07-.03-.1-.02-.02-.06-.04-.11-.05l-.2-.04c-.12-.02-.2-.07-.26-.12-.05-.06-.08-.14-.08-.24,0-.08,.02-.15,.06-.21s.11-.11,.19-.14c.09-.03,.19-.05,.32-.05,.12,0,.23,.01,.33,.04v.23c-.1-.03-.21-.04-.32-.04-.19,0-.29,.05-.29,.16,0,.04,0,.07,.03,.09s.06,.04,.11,.05l.2,.04c.12,.02,.2,.06,.26,.12s.08,.14,.08,.24c0,.08-.02,.15-.06,.21s-.1,.11-.19,.14c-.08,.03-.18,.05-.3,.05-.15,0-.28-.02-.39-.05Z"/></g><g><path class="cls-5" d="M129.42,10.08l-.19-.59s-.03-.03-.05-.03h-.82s-.04,.01-.05,.03l-.19,.59s-.03,.03-.05,.03h-.3s-.06-.03-.05-.06l.74-2.19s.03-.03,.05-.03h.53s.04,.01,.05,.03l.74,2.19s0,.06-.05,.06h-.3s-.04-.01-.05-.03m-.92-.95h.54s.06-.03,.05-.06l-.27-.83s-.08-.05-.09,0l-.27,.83s0,.06,.05,.06"/><path class="cls-5" d="M130.12,8.43h.24s.05,.02,.05,.04l.02,.18h.02c.05-.08,.11-.14,.2-.18,.08-.04,.17-.06,.27-.06h.09s.04,.02,.04,.05v.27s-.02,.05-.05,.05h-.1c-.08,0-.16,.02-.24,.05-.07,.03-.13,.07-.17,.13,0,0,0,.02,0,.03v1.08s-.02,.05-.05,.05h-.31s-.05-.02-.05-.05v-1.59s.02-.05,.05-.05"/><path class="cls-5" d="M131.55,10.81c-.08-.01-.16-.02-.23-.04-.02,0-.04-.03-.04-.05v-.22s.03-.06,.06-.05c.16,.04,.31,.06,.45,.06,.12,0,.21-.01,.28-.04,.07-.03,.13-.08,.16-.14s.05-.15,.05-.26v-.13h-.02c-.05,.06-.12,.11-.19,.14-.08,.03-.16,.05-.26,.05-.12,0-.23-.03-.33-.09s-.18-.15-.23-.27c-.06-.12-.09-.28-.09-.46,0-.3,.08-.52,.23-.67s.38-.23,.69-.23c.1,0,.21,0,.31,.02,.09,.01,.18,.03,.25,.05,.02,0,.03,.03,.03,.05v1.47c0,.19-.03,.35-.1,.47-.06,.12-.16,.21-.29,.27-.13,.06-.29,.09-.49,.09-.09,0-.18,0-.28-.02m.59-1.04c.05-.02,.09-.05,.13-.09,0,0,0-.02,0-.03v-.86s-.02-.04-.04-.05c-.06-.01-.13-.02-.19-.02-.16,0-.28,.04-.36,.13s-.12,.23-.12,.42,.03,.33,.1,.41,.16,.12,.29,.12c.06,0,.12-.01,.18-.03"/><path class="cls-5" d="M134.41,9.39h-.94s-.05,.03-.05,.06c0,.08,.03,.15,.06,.2,.04,.06,.09,.11,.17,.14,.08,.03,.18,.04,.3,.04,.11,0,.23-.01,.36-.04,.03,0,.06,.02,.06,.05v.21s-.02,.04-.04,.05c-.15,.03-.3,.05-.44,.05-.2,0-.37-.03-.49-.09-.13-.06-.23-.16-.29-.28-.06-.13-.1-.29-.1-.5,0-.19,.03-.35,.09-.48,.06-.13,.14-.23,.25-.29,.11-.07,.25-.1,.4-.1,.23,0,.4,.07,.52,.22,.12,.15,.18,.37,.18,.66v.06s-.02,.05-.05,.05m-.9-.61c-.05,.07-.08,.17-.09,.32,0,.03,.02,.05,.05,.05h.56s.05-.02,.05-.05c0-.15-.04-.25-.08-.32-.05-.07-.13-.11-.24-.11s-.19,.04-.25,.11"/><path class="cls-5" d="M134.81,8.43h.24s.04,.02,.05,.04l.02,.14h.02c.06-.07,.14-.12,.23-.15s.18-.05,.28-.05c.17,0,.31,.05,.41,.15,.1,.1,.15,.26,.15,.49v1.02s-.02,.05-.05,.05h-.31s-.05-.02-.05-.05v-1c0-.11-.02-.19-.07-.24s-.12-.07-.21-.07c-.07,0-.13,.01-.2,.04-.06,.03-.11,.06-.15,.11,0,0,0,.02,0,.03v1.12s-.02,.05-.05,.05h-.31s-.05-.02-.05-.05v-1.59s.02-.05,.05-.05"/><path class="cls-5" d="M137.6,9.85v.23s-.02,.04-.04,.05c-.08,.02-.17,.03-.25,.03-.4,0-.6-.2-.6-.6v-.74s-.02-.05-.05-.05h-.19s-.05-.02-.05-.05v-.22s.02-.05,.05-.05h.2s.05-.02,.05-.04l.06-.51s.02-.04,.05-.04h.24s.05,.02,.05,.05v.5s.02,.05,.05,.05h.37s.05,.02,.05,.05v.22s-.02,.05-.05,.05h-.37s-.05,.02-.05,.05v.67c0,.08,0,.15,.03,.2s.05,.08,.1,.1c.04,.02,.1,.03,.17,.03,.04,0,.08,0,.13-.01,.03,0,.06,.02,.06,.05"/><path class="cls-5" d="M137.9,8.09s-.06-.09-.06-.16,.02-.13,.06-.16c.04-.04,.11-.06,.19-.06s.15,.02,.19,.06c.04,.04,.06,.09,.06,.16s-.02,.13-.06,.16c-.04,.04-.11,.06-.19,.06s-.15-.02-.19-.06m0,1.98v-1.59s.02-.05,.05-.05h.31s.05,.02,.05,.05v1.59s-.02,.05-.05,.05h-.31s-.05-.02-.05-.05"/><path class="cls-5" d="M138.67,8.43h.24s.04,.02,.05,.04l.02,.14h.02c.06-.07,.14-.12,.23-.15s.18-.05,.28-.05c.17,0,.31,.05,.41,.15,.1,.1,.15,.26,.15,.49v1.02s-.02,.05-.05,.05h-.31s-.05-.02-.05-.05v-1c0-.11-.02-.19-.07-.24s-.12-.07-.21-.07c-.07,0-.13,.01-.2,.04-.06,.03-.11,.06-.15,.11,0,0,0,.02,0,.03v1.12s-.02,.05-.05,.05h-.31s-.05-.02-.05-.05v-1.59s.02-.05,.05-.05"/><path class="cls-5" d="M141.44,8.47c.11,.04,.19,.11,.24,.21s.08,.23,.08,.4v.99s-.02,.05-.05,.05h-.24s-.04-.02-.05-.04l-.02-.13h-.02c-.05,.07-.12,.12-.2,.15s-.17,.05-.26,.05c-.11,0-.21-.02-.29-.06-.08-.04-.14-.09-.18-.17-.04-.07-.06-.16-.06-.25,0-.16,.05-.28,.16-.36,.11-.09,.28-.14,.51-.16l.31-.03v-.07c0-.09,0-.15-.04-.2s-.07-.08-.13-.1-.14-.03-.23-.03c-.07,0-.14,0-.22,.02-.06,0-.11,.02-.17,.03-.03,0-.06-.01-.06-.05v-.21s0-.04,.04-.05c.07-.02,.14-.03,.22-.04,.09-.01,.18-.02,.27-.02,.17,0,.31,.02,.42,.06m-.23,1.35c.05-.02,.1-.05,.14-.09,0,0,0-.02,0-.04v-.28s-.02-.05-.05-.05l-.22,.02c-.11,.01-.18,.04-.23,.08s-.07,.1-.07,.17,.02,.13,.07,.17c.04,.04,.11,.06,.19,.06,.06,0,.12-.01,.17-.03"/></g></g></svg>