<?xml version="1.0" encoding="utf-8"?>
<!-- Generator: Adobe Illustrator 27.7.0, SVG Export Plug-In . SVG Version: 6.00 Build 0)  -->
<svg version="1.1" id="Capa_1" xmlns="http://www.w3.org/2000/svg" xmlns:xlink="http://www.w3.org/1999/xlink" x="0px" y="0px"
	 viewBox="0 0 150 12" style="enable-background:new 0 0 150 12;" xml:space="preserve">
<style type="text/css">
	.st0{fill:#26B1E7;}
	.st1{fill:#FFFFFF;}
	.st2{fill:#1D1D1B;}
	.st3{fill:#FDC600;}
	.st4{fill:#57A333;}
	.st5{fill:#E53212;}
	.st6{fill:#F9C081;}
</style>
<g>
	<path class="st0" d="M122.49,6.11h-0.53c-0.12,0-0.18-0.05-0.21-0.09c-0.03-0.03-0.05-0.08-0.06-0.13c0,0,0-0.01,0-0.01
		c-0.01-0.05,0-0.1,0.01-0.16c0.07-0.35,0.21-0.58,0.32-0.72c-0.01,0-0.02-0.01-0.04-0.02c-0.07-0.04-0.11-0.13-0.09-0.22
		c0.02-0.11,0.13-0.23,0.15-0.25c0.18-0.21,0.45-0.22,0.49-0.22c0.04,0,0.4-0.02,0.59,0.36c0.23,0.45,0.28,0.81,0.33,1.11l0,0.01
		c0.01,0.05,0,0.09-0.01,0.13c0,0,0,0.01,0,0.01c-0.01,0.04-0.03,0.07-0.05,0.09c-0.05,0.05-0.12,0.08-0.21,0.1
		c-0.04,0.01-0.07,0.01-0.09,0.01c-0.01,0-0.02,0-0.02,0h-0.15c0,0,0,0,0,0c0,0,0,0,0,0h-0.25v0.75h2.36c0-0.44-0.06-0.86-0.19-1.26
		c-0.12-0.38-0.3-0.73-0.53-1.03c-0.22-0.3-0.49-0.53-0.78-0.69c-0.3-0.17-0.62-0.25-0.94-0.25c-0.33,0-0.64,0.08-0.94,0.25
		c-0.29,0.16-0.55,0.39-0.78,0.69c-0.23,0.3-0.4,0.64-0.53,1.03c-0.13,0.4-0.19,0.82-0.19,1.26h2.36V6.11z"/>
	<path class="st1" d="M120.13,6.85c0,0.33,0.04,0.66,0.11,0.97c1.05-0.12,1.68-0.24,1.87-0.37c0.13-0.09,0.24-0.15,0.38-0.14V6.85
		H120.13z"/>
	<path class="st1" d="M122.65,7.33c0.09,0.02,0.16,0.04,0.24,0.08c0.01,0,0.02,0,0.02,0c0.14-0.01,0.25,0.04,0.41,0.09
		c0.04,0.02,0.09,0.03,0.15,0.05c0.02,0.01,0.78,0.25,1.42,0.28c0.08-0.32,0.11-0.64,0.11-0.98h-2.36V7.33z"/>
	<polyline class="st2" points="122.41,3.21 122.41,3.21 122.41,3.21 	"/>
	<path class="st1" d="M123.61,8.36c-0.01,0.02-0.02,0.04-0.04,0.06c-0.04,0.04-0.09,0.06-0.16,0.06c-0.01,0.02-0.02,0.04-0.04,0.06
		c-0.04,0.04-0.1,0.09-0.21,0.08c-0.01,0.02-0.02,0.04-0.04,0.06c-0.05,0.05-0.12,0.07-0.2,0.06c-0.02,0.01-0.05,0.03-0.08,0.05
		c-0.04,0.02-0.11,0.03-0.19,0.02v0.63c0,0.04-0.04,0.08-0.08,0.08s-0.08-0.04-0.08-0.08v-0.6c-0.03,0.01-0.07,0.02-0.1,0.02
		c-0.01,0-0.03,0-0.04,0c-0.04-0.01-0.08-0.03-0.11-0.07c-0.05,0.01-0.15,0.01-0.21-0.03c-0.03-0.02-0.05-0.04-0.06-0.07
		c-0.02,0-0.05-0.01-0.07-0.02c-0.07-0.02-0.12-0.06-0.14-0.12c-0.02,0-0.03,0-0.05-0.01c-0.06-0.01-0.13-0.03-0.16-0.1
		c-0.01-0.01-0.01-0.03-0.01-0.04c-0.34,0.17-0.72,0.35-0.89,0.42c0.07,0.11,0.14,0.22,0.22,0.33c0.22,0.3,0.49,0.53,0.78,0.69
		c0.14,0.08,0.27,0.13,0.42,0.18c0.01-0.03,0.03-0.05,0.06-0.07c0.14-0.09,0.39-0.02,0.47,0c0.07-0.02,0.33-0.09,0.47,0
		c0.03,0.02,0.05,0.04,0.06,0.07c0.14-0.04,0.28-0.1,0.42-0.18c0.29-0.16,0.55-0.39,0.78-0.69c0.07-0.1,0.14-0.2,0.21-0.31
		C124.3,8.76,123.88,8.57,123.61,8.36"/>
	<path class="st0" d="M122.79,10.5c0-0.02,0.01-0.04,0.01-0.05c0-0.02,0-0.03-0.01-0.05c0.08-0.02,0.21-0.05,0.28-0.14
		c0.04-0.05,0.06-0.11,0.05-0.18c-0.01-0.06-0.04-0.11-0.08-0.14c-0.14-0.09-0.39-0.02-0.47,0c-0.07-0.02-0.33-0.09-0.47,0
		c-0.05,0.03-0.08,0.08-0.08,0.14c-0.01,0.07,0.01,0.13,0.05,0.18c0.07,0.09,0.2,0.13,0.28,0.14c0,0.02-0.01,0.03-0.01,0.05
		c0,0.02,0,0.04,0.01,0.05c-0.06,0.06-0.24,0.22-0.51,0.25v0c0.01,0.01,0.03,0.05,0.08,0.09c0.24-0.04,0.41-0.18,0.49-0.25
		c0.01,0.01,0.02,0.02,0.02,0.02c-0.02,0.07-0.09,0.24-0.38,0.31c0.05,0.02,0.11,0.04,0.18,0.05c0.2-0.09,0.28-0.23,0.3-0.31
		c0.01,0,0.03,0,0.04,0c0.01,0,0.03,0,0.04,0c0.03,0.08,0.1,0.22,0.3,0.31c0.07-0.01,0.13-0.03,0.18-0.05
		c-0.29-0.07-0.36-0.24-0.38-0.31c0.01-0.01,0.02-0.02,0.03-0.02c0.08,0.07,0.25,0.2,0.49,0.25c0.05-0.04,0.07-0.08,0.08-0.09
		C123.03,10.72,122.85,10.56,122.79,10.5"/>
	<path class="st1" d="M122.98,10.03c0.02,0.01,0.03,0.03,0.04,0.06c0,0.04,0,0.07-0.03,0.1c-0.03,0.04-0.08,0.06-0.14,0.08
		c0.03-0.05,0.03-0.11,0.01-0.16c-0.02-0.05-0.05-0.09-0.08-0.11C122.86,9.99,122.93,10,122.98,10.03"/>
	<path class="st1" d="M122.38,10.15c0.04-0.11,0.19-0.11,0.19-0.11h0c0,0,0.04,0,0.08,0.01c0.06,0.02,0.09,0.05,0.11,0.09
		c0.02,0.05-0.02,0.1-0.04,0.13c-0.04-0.03-0.09-0.06-0.15-0.06c-0.06,0-0.11,0.02-0.15,0.06C122.39,10.25,122.36,10.2,122.38,10.15
		"/>
	<path class="st1" d="M122.29,10.27c-0.05-0.02-0.1-0.04-0.14-0.08c-0.02-0.03-0.03-0.06-0.03-0.1c0-0.03,0.01-0.05,0.04-0.06
		c0.03-0.02,0.08-0.03,0.13-0.03c0.02,0,0.04,0,0.07,0c-0.03,0.03-0.07,0.06-0.08,0.11C122.26,10.17,122.27,10.23,122.29,10.27"/>
	<path class="st1" d="M122.45,10.45c0-0.06,0.05-0.12,0.12-0.12c0.06,0,0.12,0.05,0.12,0.12c0,0.06-0.05,0.12-0.12,0.12
		C122.51,10.56,122.45,10.51,122.45,10.45"/>
	<path class="st1" d="M123.22,10.84c-0.24-0.04-0.41-0.18-0.49-0.25c-0.01,0.01-0.02,0.02-0.03,0.02c0.02,0.07,0.09,0.23,0.38,0.31
		C123.14,10.9,123.19,10.87,123.22,10.84"/>
	<path class="st1" d="M122.41,10.59c-0.08,0.07-0.25,0.2-0.49,0.25c0.03,0.03,0.08,0.06,0.13,0.08c0.29-0.07,0.36-0.24,0.38-0.31
		C122.42,10.61,122.41,10.6,122.41,10.59"/>
	<path class="st2" d="M125.52,7.48c0-0.02,0-0.03-0.02-0.04c-0.01-0.01-0.02-0.01-0.04-0.01c0.01-0.02,0.02-0.04,0.03-0.07
		c0.04-0.1,0.06-0.22,0.06-0.34c0-0.02-0.01-0.03-0.02-0.04c-0.01-0.01-0.02-0.01-0.03-0.01c0.01-0.02,0.01-0.04,0.02-0.06
		c0.03-0.1,0.03-0.22,0.02-0.35c0-0.02-0.01-0.03-0.03-0.04c-0.01-0.01-0.02-0.01-0.04,0c0.01-0.02,0.01-0.05,0.02-0.08
		c0.02-0.11,0.01-0.22-0.01-0.35c0-0.02-0.01-0.03-0.03-0.04c-0.01,0-0.02,0-0.03,0c0-0.02,0.01-0.04,0.01-0.05
		c0.01-0.11,0-0.22-0.03-0.35c0-0.02-0.02-0.03-0.03-0.04c-0.02-0.01-0.03,0-0.05,0.01l0,0c0-0.03,0-0.06,0-0.08
		c0-0.11-0.03-0.22-0.07-0.34c-0.01-0.02-0.02-0.03-0.04-0.03c-0.01,0-0.03,0-0.04,0.01c0-0.03,0-0.05-0.01-0.08
		c-0.01-0.11-0.05-0.22-0.11-0.33c-0.01-0.02-0.02-0.03-0.04-0.03c-0.01,0-0.03,0-0.04,0.01c0-0.02-0.01-0.05-0.01-0.07
		c-0.03-0.1-0.08-0.21-0.15-0.32c-0.01-0.01-0.03-0.02-0.04-0.02c-0.02,0-0.03,0.01-0.04,0.02c-0.01-0.03-0.02-0.06-0.03-0.08
		c-0.04-0.1-0.11-0.19-0.2-0.29c-0.01-0.01-0.03-0.02-0.05-0.01c-0.01,0-0.02,0.01-0.03,0.02c-0.01-0.03-0.03-0.05-0.05-0.08
		c-0.06-0.09-0.14-0.17-0.24-0.25c-0.01-0.01-0.03-0.01-0.05-0.01c-0.01,0-0.02,0.01-0.03,0.03c-0.07-0.09-0.16-0.15-0.28-0.2
		c0.02,0,0.04,0,0.06,0.01c0.14,0.01,0.24-0.02,0.24-0.02c0.03-0.01,0.05-0.04,0.04-0.07c0-0.03-0.03-0.05-0.06-0.06
		c-0.15-0.01-0.21-0.04-0.28-0.08c-0.01-0.01-0.03-0.02-0.04-0.02l0.36-0.05c0.03,0,0.05-0.03,0.05-0.06c0-0.03-0.02-0.06-0.05-0.06
		L123.76,3c0.04-0.01,0.09-0.03,0.14-0.04c0.13-0.05,0.21-0.11,0.22-0.11c0.02-0.02,0.03-0.05,0.01-0.08
		c-0.02-0.03-0.05-0.04-0.08-0.03c-0.14,0.05-0.21,0.04-0.29,0.04c-0.02,0-0.03,0-0.05,0l0.31-0.19c0.03-0.02,0.04-0.05,0.03-0.08
		c-0.01-0.03-0.04-0.05-0.07-0.04l-0.35,0.09c0.03-0.03,0.07-0.06,0.11-0.09c0.1-0.09,0.15-0.18,0.16-0.19
		c0.01-0.03,0.01-0.06-0.02-0.08c-0.02-0.02-0.06-0.02-0.08,0c-0.11,0.1-0.18,0.12-0.26,0.15c-0.01,0-0.03,0.01-0.05,0.01l0.22-0.29
		c0.02-0.03,0.02-0.06-0.01-0.08c-0.02-0.02-0.06-0.02-0.08-0.01l-0.29,0.22c0.02-0.04,0.05-0.08,0.07-0.13
		c0.06-0.13,0.07-0.23,0.07-0.23c0-0.03-0.02-0.06-0.05-0.07c-0.03-0.01-0.06,0.01-0.07,0.03c-0.07,0.14-0.12,0.18-0.18,0.23
		c-0.01,0.01-0.02,0.02-0.04,0.03l0.09-0.35c0.01-0.03-0.01-0.06-0.04-0.07c-0.03-0.01-0.06,0-0.08,0.03l-0.19,0.31
		c0.01-0.04,0.01-0.09,0.01-0.15c0.01-0.14-0.02-0.24-0.02-0.24c-0.01-0.03-0.04-0.05-0.07-0.04s-0.05,0.03-0.06,0.06
		c-0.01,0.15-0.04,0.21-0.08,0.28c-0.01,0.01-0.01,0.03-0.02,0.04l-0.05-0.36c0-0.03-0.03-0.05-0.06-0.05h0
		c-0.03,0-0.06,0.02-0.06,0.06l-0.05,0.35c-0.01-0.04-0.02-0.09-0.04-0.14c-0.05-0.13-0.11-0.21-0.11-0.22
		c-0.02-0.02-0.05-0.03-0.08-0.01c-0.03,0.02-0.04,0.05-0.03,0.08c0.05,0.14,0.04,0.21,0.04,0.29c0,0.02,0,0.03,0,0.05l-0.19-0.31
		c-0.02-0.03-0.05-0.04-0.08-0.03c-0.03,0.01-0.05,0.04-0.04,0.07l0.09,0.35c-0.03-0.03-0.06-0.07-0.09-0.11
		c-0.09-0.1-0.18-0.15-0.19-0.16c-0.03-0.01-0.06-0.01-0.08,0.02c-0.02,0.02-0.02,0.06,0,0.08c0.1,0.11,0.12,0.18,0.15,0.26
		c0,0.02,0.01,0.03,0.01,0.05l-0.29-0.22c-0.03-0.02-0.06-0.02-0.08,0.01c-0.02,0.02-0.02,0.06-0.01,0.08l0.22,0.29
		c-0.04-0.02-0.08-0.05-0.13-0.07c-0.13-0.06-0.23-0.07-0.23-0.07c-0.03,0-0.06,0.02-0.07,0.05c-0.01,0.03,0.01,0.06,0.03,0.07
		c0.14,0.07,0.18,0.12,0.23,0.18c0.01,0.01,0.02,0.02,0.03,0.04l-0.35-0.09c-0.03-0.01-0.06,0.01-0.07,0.04
		c-0.01,0.03,0,0.06,0.03,0.08l0.31,0.18c-0.04-0.01-0.09-0.01-0.15-0.01c-0.14-0.01-0.24,0.02-0.24,0.02
		c-0.03,0.01-0.05,0.04-0.04,0.07c0,0.03,0.03,0.05,0.06,0.06c0.15,0.01,0.21,0.04,0.28,0.08c0.01,0.01,0.03,0.01,0.04,0.02
		l-0.36,0.05c-0.03,0-0.05,0.03-0.05,0.06c0,0.03,0.02,0.06,0.05,0.06l0.36,0.05c-0.04,0.01-0.09,0.03-0.14,0.04
		c-0.13,0.05-0.21,0.11-0.22,0.11c-0.02,0.02-0.03,0.05-0.01,0.08c0.02,0.03,0.05,0.04,0.08,0.03c0.08-0.03,0.14-0.04,0.19-0.04
		c-0.08,0.07-0.13,0.12-0.16,0.16c-0.01,0.02-0.03,0.04-0.04,0.06c-0.01-0.01-0.02-0.02-0.03-0.02c-0.02-0.01-0.03,0-0.05,0.01
		c-0.1,0.08-0.18,0.16-0.24,0.25c-0.02,0.03-0.03,0.05-0.05,0.08c-0.01-0.01-0.02-0.02-0.03-0.02c-0.02,0-0.03,0-0.05,0.02
		c-0.09,0.09-0.15,0.19-0.2,0.29c-0.01,0.03-0.02,0.05-0.03,0.08c-0.01-0.01-0.02-0.01-0.03-0.01c-0.02,0-0.03,0.01-0.04,0.02
		c-0.08,0.1-0.13,0.21-0.16,0.31c-0.01,0.03-0.01,0.05-0.02,0.08c-0.01-0.01-0.03-0.02-0.04-0.02c-0.02,0-0.03,0.01-0.04,0.03
		c-0.06,0.11-0.1,0.22-0.11,0.33c0,0.03-0.01,0.05-0.01,0.08c-0.01-0.01-0.03-0.01-0.04-0.01c-0.02,0-0.03,0.02-0.04,0.03
		c-0.04,0.12-0.07,0.23-0.07,0.34c0,0.03,0,0.05,0,0.08c-0.01-0.01-0.03-0.01-0.04,0c-0.02,0.01-0.03,0.02-0.03,0.04
		c-0.03,0.12-0.04,0.24-0.03,0.35c0,0.02,0.01,0.04,0.01,0.06c-0.01,0-0.02,0-0.02,0c-0.02,0.01-0.03,0.02-0.03,0.04
		c-0.02,0.13-0.03,0.24-0.01,0.35c0,0.03,0.01,0.05,0.02,0.08c-0.01,0-0.01,0-0.02,0.01c-0.02,0.01-0.03,0.02-0.03,0.04
		c-0.02,0.13-0.01,0.24,0.01,0.35c0,0.02,0.01,0.04,0.02,0.07c-0.01,0-0.02,0-0.03,0.01c-0.01,0.01-0.02,0.02-0.02,0.04
		c0,0.13,0.01,0.24,0.05,0.34c0.01,0.03,0.02,0.06,0.03,0.09c0,0-0.01,0-0.01,0c-0.02,0-0.03,0-0.05,0.01
		c-0.01,0.01-0.02,0.03-0.02,0.05c0.02,0.13,0.06,0.24,0.11,0.33c0.01,0.02,0.02,0.04,0.03,0.05c-0.01,0-0.02,0.01-0.02,0.01
		c-0.01,0.01-0.02,0.03-0.01,0.05c0.03,0.12,0.07,0.23,0.13,0.32c0.01,0.02,0.03,0.04,0.04,0.06c-0.01,0-0.03,0.01-0.03,0.02
		c-0.01,0.01-0.01,0.03-0.01,0.05c0.04,0.12,0.1,0.22,0.17,0.31c0.01,0.02,0.03,0.04,0.05,0.05c-0.01,0-0.02,0.01-0.03,0.02
		c-0.01,0.01-0.01,0.03,0,0.05c0.06,0.11,0.13,0.21,0.2,0.28c0.02,0.02,0.03,0.03,0.05,0.04c-0.01,0-0.02,0.01-0.03,0.03
		c-0.01,0.02-0.01,0.03,0,0.05c0.07,0.11,0.15,0.2,0.23,0.26c0.03,0.02,0.05,0.04,0.08,0.05c-0.01,0-0.01,0-0.01,0
		c-0.02,0.01-0.03,0.02-0.03,0.04c0,0.02,0,0.03,0.01,0.05c0.09,0.09,0.18,0.16,0.27,0.22c0.07,0.04,0.15,0.07,0.22,0.08
		c0.06,0.01,0.13,0.01,0.18,0c0,0,0.01,0,0.01,0c0.16,0.11,0.32,0.2,0.5,0.28c0.14,0.06,0.29,0.11,0.44,0.14
		c0.03,0.01,0.06,0.01,0.09,0.02c-0.06-0.02-0.13-0.06-0.17-0.11c-0.01-0.01-0.01-0.02-0.02-0.03c-0.1-0.03-0.2-0.06-0.3-0.1
		c-0.16-0.07-0.32-0.16-0.47-0.26c0,0,0-0.01,0-0.01c0-0.05,0-0.1-0.02-0.15c0.11,0.09,0.21,0.16,0.31,0.22
		c0.14,0.08,0.29,0.14,0.45,0.19c0-0.01,0-0.02,0-0.03c0-0.03,0.01-0.05,0.02-0.07c-0.14-0.04-0.28-0.1-0.42-0.18
		c-0.29-0.16-0.55-0.39-0.78-0.69c-0.08-0.1-0.15-0.21-0.22-0.33c0.17-0.08,0.56-0.25,0.89-0.42c0,0.01,0.01,0.03,0.01,0.04
		c0.03,0.07,0.1,0.09,0.16,0.1c0.02,0,0.04,0,0.05,0.01c0.02,0.05,0.07,0.09,0.14,0.12c0.03,0.01,0.05,0.01,0.07,0.02
		c0.01,0.03,0.03,0.06,0.06,0.07c0.07,0.04,0.16,0.04,0.21,0.03c0.03,0.04,0.07,0.06,0.11,0.07c0.01,0,0.03,0,0.04,0
		c0.04,0,0.07-0.01,0.1-0.02v0.6c0,0.04,0.04,0.08,0.08,0.08c0.04,0,0.08-0.04,0.08-0.08V8.8c0.08,0.02,0.14,0,0.19-0.02
		c0.04-0.01,0.06-0.03,0.08-0.05c0.08,0.01,0.15-0.01,0.2-0.06c0.02-0.02,0.03-0.04,0.04-0.06c0.11,0,0.17-0.04,0.21-0.08
		c0.02-0.02,0.03-0.04,0.04-0.06c0.07,0,0.12-0.02,0.16-0.06c0.02-0.02,0.03-0.04,0.04-0.06c0.27,0.21,0.69,0.4,0.89,0.48
		c-0.06,0.11-0.13,0.21-0.21,0.31c-0.22,0.3-0.49,0.53-0.78,0.69c-0.14,0.08-0.27,0.13-0.42,0.18c0.01,0.02,0.02,0.04,0.02,0.07
		c0,0.01,0,0.02,0,0.03c0.15-0.04,0.3-0.11,0.45-0.19c0.11-0.06,0.22-0.14,0.32-0.22c-0.01,0.05-0.02,0.1-0.02,0.16
		c0,0,0,0.01,0,0.01c-0.05,0.04-0.17,0.12-0.35,0.21c-0.13,0.07-0.27,0.12-0.42,0.16c-0.01,0-0.01,0-0.02,0
		c-0.01,0.01-0.01,0.02-0.02,0.02c-0.04,0.05-0.11,0.09-0.17,0.11c0.08-0.01,0.16-0.03,0.23-0.05c0.15-0.04,0.29-0.09,0.43-0.16
		c0.19-0.09,0.32-0.18,0.36-0.22c0,0,0.01,0,0.01,0c0.05,0.01,0.12,0.01,0.18,0c0.07-0.01,0.15-0.04,0.22-0.08
		c0.09-0.05,0.18-0.12,0.27-0.22c0.01-0.01,0.02-0.03,0.01-0.05c0-0.02-0.02-0.03-0.03-0.04c0,0,0,0-0.01,0
		c0.03-0.02,0.05-0.03,0.08-0.05c0.08-0.07,0.16-0.15,0.23-0.26c0.01-0.01,0.01-0.03,0-0.05c-0.01-0.01-0.01-0.02-0.03-0.03
		c0.02-0.01,0.03-0.03,0.05-0.04c0.08-0.07,0.15-0.17,0.2-0.28c0.01-0.02,0.01-0.03,0-0.05c-0.01-0.01-0.02-0.02-0.04-0.02
		c0.02-0.02,0.03-0.04,0.05-0.06c0.07-0.08,0.12-0.19,0.17-0.31c0.01-0.02,0-0.03-0.01-0.05c-0.01-0.01-0.02-0.02-0.04-0.02
		c0,0,0,0,0,0c0.01-0.02,0.03-0.04,0.04-0.06c0.06-0.09,0.11-0.2,0.14-0.32c0-0.02,0-0.03-0.01-0.05c-0.01-0.01-0.03-0.02-0.04-0.02
		c0.01-0.02,0.03-0.04,0.04-0.07C125.47,7.72,125.51,7.61,125.52,7.48 M125.46,7.09C125.46,7.09,125.46,7.09,125.46,7.09
		c0,0.09-0.02,0.17-0.05,0.24c-0.03,0.07-0.06,0.13-0.11,0.19c-0.05,0.06-0.11,0.09-0.13,0.1c0,0,0,0,0,0c0,0,0,0,0,0
		c-0.07-0.09-0.1-0.21-0.1-0.35c0-0.04,0.01-0.09,0.01-0.13c0,0,0,0,0,0c0,0,0,0,0,0c0.06,0.08,0.1,0.18,0.1,0.18
		c0,0.01,0.02,0.02,0.03,0.03c0.02,0,0.03-0.01,0.04-0.02C125.32,7.2,125.4,7.13,125.46,7.09C125.46,7.09,125.46,7.09,125.46,7.09
		 M125.45,6.63C125.45,6.63,125.45,6.63,125.45,6.63C125.46,6.63,125.46,6.63,125.45,6.63c0.01,0.09,0,0.17-0.02,0.24
		c-0.02,0.07-0.05,0.14-0.09,0.19c-0.05,0.07-0.1,0.1-0.12,0.12c0,0,0,0,0,0c0,0,0,0,0,0c-0.12-0.14-0.14-0.35-0.13-0.46
		c0,0,0,0,0,0c0,0,0,0,0,0c0.07,0.07,0.11,0.16,0.11,0.16c0.01,0.01,0.02,0.02,0.04,0.02c0.02,0,0.03-0.01,0.03-0.02
		C125.33,6.76,125.4,6.68,125.45,6.63 M125.4,6.17C125.4,6.17,125.4,6.17,125.4,6.17C125.41,6.17,125.41,6.17,125.4,6.17
		c0.02,0.09,0.02,0.17,0,0.24c-0.01,0.07-0.03,0.14-0.07,0.2c-0.04,0.07-0.09,0.11-0.1,0.13c0,0,0,0,0,0c0,0,0,0,0,0
		c-0.12-0.1-0.16-0.32-0.17-0.44c0,0,0,0,0,0c0,0,0,0,0,0c0.07,0.06,0.12,0.15,0.12,0.15c0.01,0.01,0.02,0.02,0.04,0.02
		c0.01,0,0.03-0.01,0.03-0.03C125.29,6.31,125.35,6.22,125.4,6.17 M125.33,5.73C125.33,5.73,125.33,5.73,125.33,5.73
		C125.33,5.73,125.33,5.73,125.33,5.73c0.02,0.09,0.02,0.17,0.02,0.24c-0.01,0.08-0.03,0.14-0.06,0.21
		c-0.04,0.07-0.08,0.12-0.1,0.13c0,0,0,0,0,0c0,0,0,0,0,0c-0.1-0.09-0.15-0.21-0.17-0.31C125,5.97,125,5.92,124.99,5.88c0,0,0,0,0,0
		c0,0,0,0,0,0c0.08,0.06,0.13,0.14,0.13,0.14c0.01,0.01,0.02,0.02,0.04,0.02c0.01,0,0.03-0.01,0.03-0.03
		C125.22,5.88,125.28,5.79,125.33,5.73 M121.83,5.76c0-0.01,0-0.01,0-0.02c0.06-0.3,0.18-0.51,0.27-0.63
		c0.07-0.09,0.13-0.15,0.16-0.17c0.01-0.01,0.02-0.01,0.03-0.02c0.03-0.02,0.03-0.07,0.01-0.1c-0.02-0.03-0.07-0.04-0.1-0.02
		c0,0-0.01,0.01-0.03,0.02c-0.07,0.05-0.11,0.03-0.12,0.03c-0.02-0.01-0.03-0.04-0.02-0.08c0.01-0.07,0.08-0.15,0.11-0.18
		c0,0,0,0,0,0c0.15-0.17,0.38-0.18,0.39-0.18c0,0,0,0,0.01,0c0,0,0.07-0.01,0.17,0.02c0.13,0.04,0.22,0.13,0.29,0.26
		c0.09,0.18,0.16,0.36,0.22,0.56c-0.13-0.05-0.24-0.13-0.24-0.13c-0.03-0.03-0.08-0.02-0.1,0.01c-0.01,0.01-0.02,0.03-0.02,0.05
		c0,0.02,0.01,0.04,0.03,0.05c0.01,0.01,0.17,0.14,0.37,0.18c0.01,0.07,0.03,0.13,0.04,0.22c-0.06-0.03-0.14-0.05-0.2-0.07
		c-0.04-0.01-0.08-0.02-0.11-0.03c-0.13-0.05-0.25-0.14-0.25-0.14c-0.03-0.02-0.08-0.02-0.1,0.01c-0.02,0.03-0.02,0.08,0.01,0.1
		c0.01,0,0.13,0.1,0.29,0.17c0.04,0.02,0.08,0.03,0.13,0.04c0.17,0.05,0.25,0.08,0.25,0.16c0,0.01-0.01,0.02-0.02,0.04
		c-0.05,0.06-0.17,0.07-0.22,0.06c0,0,0,0,0,0h-0.16c-0.03,0-0.2-0.01-0.34-0.1C122.2,5.64,122.04,5.67,121.83,5.76 M122.45,5.97
		h-0.49c-0.05,0-0.08-0.01-0.11-0.04c0-0.01-0.01-0.01-0.01-0.02C122.05,5.82,122.16,5.79,122.45,5.97 M122.65,6.85V6.11h0.25
		c0,0,0,0,0,0c0,0,0,0,0,0h0.15c0,0,0.01,0,0.02,0c0.02,0,0.06,0,0.09-0.01c0.09-0.01,0.16-0.05,0.21-0.1
		c0.02-0.02,0.04-0.05,0.05-0.09c0,0,0-0.01,0-0.01c0.01-0.04,0.01-0.08,0.01-0.13l0-0.01c-0.04-0.3-0.1-0.66-0.33-1.11
		c-0.19-0.37-0.55-0.36-0.59-0.36c-0.03,0-0.3,0.01-0.49,0.22c-0.02,0.02-0.13,0.14-0.15,0.25c-0.02,0.09,0.02,0.18,0.09,0.22
		c0.01,0.01,0.02,0.01,0.04,0.02c-0.11,0.14-0.25,0.38-0.32,0.72c-0.01,0.06-0.01,0.11-0.01,0.16c0,0,0,0.01,0,0.01
		c0.01,0.05,0.03,0.1,0.06,0.13c0.03,0.04,0.1,0.09,0.21,0.09h0.53v0.75v0.46c-0.14,0-0.24,0.05-0.38,0.14
		c-0.19,0.12-0.82,0.25-1.87,0.37c-0.07-0.31-0.11-0.64-0.11-0.97c0-0.44,0.06-0.86,0.19-1.26c0.12-0.38,0.3-0.73,0.53-1.03
		c0.22-0.3,0.49-0.53,0.78-0.69c0.3-0.17,0.62-0.25,0.94-0.25c0.33,0,0.64,0.08,0.94,0.25c0.29,0.16,0.55,0.39,0.78,0.69
		c0.22,0.3,0.4,0.64,0.53,1.03c0.13,0.4,0.19,0.82,0.19,1.26c0,0.34-0.04,0.67-0.11,0.98c-0.64-0.04-1.4-0.27-1.42-0.28
		c-0.05-0.02-0.1-0.04-0.15-0.05c-0.16-0.06-0.27-0.1-0.41-0.09c-0.01,0-0.02,0-0.02,0c-0.08-0.04-0.15-0.06-0.24-0.08V6.85z
		 M123.65,3.48c-0.04,0.02-0.1,0.04-0.17,0.05c-0.04,0.01-0.08,0.01-0.12,0.01c-0.09,0-0.17-0.02-0.24-0.07c0,0,0,0,0,0c0,0,0,0,0,0
		c0.03-0.02,0.08-0.04,0.14-0.05c0.07-0.02,0.13-0.02,0.2-0.01C123.52,3.42,123.58,3.44,123.65,3.48
		C123.65,3.47,123.65,3.47,123.65,3.48C123.65,3.48,123.65,3.48,123.65,3.48 M123.74,3.74C123.74,3.74,123.74,3.74,123.74,3.74
		C123.74,3.74,123.74,3.74,123.74,3.74c-0.03,0.01-0.07,0.02-0.12,0.03c-0.01,0-0.01,0-0.02,0c-0.11,0-0.22-0.04-0.32-0.12
		c0,0,0,0,0,0c0,0,0,0,0,0c0.05-0.01,0.09-0.02,0.14-0.03C123.55,3.61,123.65,3.65,123.74,3.74 M123.23,3.33
		c-0.04,0.02-0.12,0.05-0.23,0.06c-0.02,0-0.03,0.01-0.03,0.03c0,0.02,0,0.03,0.02,0.04c0,0,0.09,0.06,0.15,0.14c0,0,0,0,0,0
		c0,0,0,0,0,0h0c-0.11,0-0.3-0.03-0.44-0.2c0,0,0,0,0,0c0.02-0.02,0.06-0.05,0.12-0.07C122.93,3.28,123.07,3.28,123.23,3.33
		C123.23,3.33,123.24,3.33,123.23,3.33C123.24,3.33,123.23,3.33,123.23,3.33 M122.76,3.26c-0.04,0.03-0.1,0.07-0.22,0.1
		c-0.02,0-0.03,0.02-0.03,0.03c0,0.02,0.01,0.03,0.02,0.04c0,0,0.09,0.04,0.17,0.1c0,0,0,0,0,0c0,0,0,0,0,0c-0.03,0-0.06,0-0.09,0
		c-0.11,0-0.26-0.02-0.38-0.11c0,0,0,0,0,0c0.02-0.03,0.05-0.06,0.1-0.1C122.45,3.27,122.59,3.24,122.76,3.26
		C122.76,3.25,122.76,3.25,122.76,3.26C122.76,3.25,122.76,3.26,122.76,3.26 M122.28,3.26c-0.03,0.04-0.08,0.09-0.19,0.15
		c-0.01,0.01-0.02,0.02-0.02,0.04s0.01,0.03,0.03,0.03c0,0,0.1,0.02,0.19,0.06c0,0,0,0,0,0c0,0,0,0,0,0
		c-0.04,0.01-0.08,0.02-0.12,0.03c-0.04,0.01-0.08,0.01-0.13,0.01c-0.07,0-0.15-0.01-0.23-0.05c0,0,0,0,0,0
		c0.01-0.03,0.03-0.07,0.08-0.12C121.97,3.34,122.1,3.28,122.28,3.26C122.28,3.26,122.28,3.26,122.28,3.26
		C122.28,3.26,122.28,3.26,122.28,3.26 M121.65,3.56c-0.01,0.01-0.02,0.03-0.01,0.04c0.01,0.01,0.02,0.02,0.04,0.02h0
		c0,0,0.04,0,0.1,0.01c0.04,0,0.07,0.01,0.1,0.02c0,0,0,0,0,0c0,0,0,0,0,0c-0.04,0.02-0.08,0.04-0.12,0.05
		c-0.09,0.03-0.16,0.04-0.23,0.04c-0.05,0-0.1-0.01-0.13-0.02c0,0,0,0,0,0c0.02-0.08,0.09-0.28,0.43-0.39c0,0,0,0,0,0c0,0,0,0,0,0
		C121.8,3.4,121.76,3.47,121.65,3.56 M125.1,5.58c0.01-0.13,0.06-0.23,0.09-0.29c0,0,0,0,0,0c0,0,0,0,0,0
		c0.03,0.08,0.04,0.16,0.04,0.24c0,0.08-0.01,0.15-0.03,0.21c-0.03,0.08-0.06,0.13-0.08,0.14c0,0,0,0,0,0c0,0,0,0,0,0
		c-0.1-0.06-0.17-0.15-0.22-0.28c-0.02-0.04-0.03-0.08-0.04-0.12c0,0,0,0,0,0c0,0,0,0,0,0c0.08,0.05,0.15,0.13,0.15,0.13
		c0.01,0.01,0.03,0.02,0.04,0.01C125.09,5.61,125.1,5.59,125.1,5.58 M124.95,5.16c-0.01-0.13,0.03-0.24,0.06-0.3c0,0,0,0,0,0
		c0,0,0,0,0,0c0.04,0.08,0.06,0.16,0.07,0.23c0.01,0.07,0.01,0.15-0.01,0.21c-0.02,0.08-0.05,0.13-0.06,0.15c0,0,0,0,0,0
		c0,0,0,0,0,0c-0.1-0.05-0.18-0.14-0.25-0.26c-0.02-0.04-0.04-0.08-0.05-0.12c0,0,0,0,0,0c0,0,0,0,0,0
		c0.09,0.04,0.17,0.11,0.17,0.11c0.01,0.01,0.03,0.01,0.04,0.01C124.94,5.19,124.95,5.18,124.95,5.16 M124.74,4.81L124.74,4.81
		c0.01-0.01,0.02-0.02,0.02-0.04c-0.02-0.13,0-0.24,0.03-0.3c0,0,0,0,0,0c0,0,0,0,0,0c0.04,0.08,0.08,0.15,0.1,0.22
		c0.02,0.07,0.03,0.14,0.02,0.21c-0.01,0.08-0.03,0.14-0.04,0.16c0,0,0,0,0,0c0,0,0,0,0,0c-0.11-0.04-0.21-0.12-0.28-0.23
		c-0.02-0.04-0.04-0.08-0.06-0.12c0,0,0,0,0,0c0,0,0,0,0,0c0.1,0.03,0.18,0.09,0.18,0.09C124.71,4.81,124.72,4.81,124.74,4.81
		 M124.45,4.44c0.01,0.01,0.03,0.01,0.04,0c0.01-0.01,0.02-0.03,0.01-0.04c-0.04-0.12-0.03-0.23-0.02-0.3c0,0,0,0,0,0c0,0,0,0,0,0
		c0.05,0.07,0.1,0.13,0.13,0.2c0.03,0.07,0.05,0.14,0.05,0.21c0,0.08-0.01,0.13-0.02,0.16c0,0,0,0,0,0c0,0,0,0,0,0
		c-0.11-0.02-0.22-0.08-0.31-0.18c-0.03-0.03-0.06-0.07-0.09-0.11c0,0,0,0,0,0c0,0,0,0,0,0C124.37,4.39,124.45,4.44,124.45,4.44
		 M124.17,4.12c0.01,0.01,0.03,0,0.04-0.01c0.01-0.01,0.01-0.03,0.01-0.04c-0.06-0.12-0.07-0.23-0.07-0.29c0,0,0,0,0,0c0,0,0,0,0,0
		c0.06,0.06,0.12,0.12,0.16,0.18c0.04,0.06,0.07,0.13,0.09,0.2c0.02,0.08,0.01,0.14,0.01,0.17c0,0,0,0,0,0c0,0,0,0-0.01,0
		c-0.13,0-0.24-0.07-0.32-0.13c-0.04-0.03-0.07-0.06-0.11-0.1c0,0,0,0,0,0c0,0,0,0,0,0c0,0,0.01,0,0.01,0
		C124.08,4.09,124.17,4.12,124.17,4.12 M124.06,3.83c0.03,0.08,0.03,0.15,0.03,0.18c0,0,0,0,0,0c-0.01,0-0.01,0-0.02,0
		c-0.16,0-0.34-0.1-0.43-0.17c0,0,0,0,0,0c0,0,0,0,0,0c0.1-0.02,0.19,0,0.19,0c0.02,0,0.03,0,0.04-0.02c0.01-0.01,0.01-0.03,0-0.04
		c-0.06-0.08-0.1-0.17-0.12-0.23c0,0,0,0,0,0c0,0,0,0,0,0C123.91,3.61,124.01,3.7,124.06,3.83 M121.25,3.37
		c0.01,0,0.01-0.01,0.02-0.01c0.09-0.03,0.18-0.05,0.22-0.06c0.1-0.02,0.17-0.07,0.17-0.07c0.01-0.01,0.01-0.02,0.01-0.03
		c0-0.01-0.01-0.02-0.02-0.02l-0.45-0.07l0.45-0.07c0.01,0,0.02-0.01,0.02-0.03c0-0.01-0.01-0.02-0.02-0.03c0,0-0.1-0.02-0.2-0.06
		c-0.03-0.01-0.06-0.03-0.08-0.04c-0.04-0.02-0.08-0.04-0.13-0.06c0.01,0,0.02,0,0.02,0c0.1,0.01,0.18,0.02,0.23,0.03
		c0.1,0.02,0.18,0,0.19,0c0.01,0,0.02-0.01,0.02-0.02c0-0.01,0-0.02-0.01-0.03l-0.39-0.23l0.44,0.11c0.01,0,0.03,0,0.03-0.02
		c0-0.01,0-0.03-0.01-0.03c0,0-0.08-0.05-0.16-0.13c-0.02-0.02-0.04-0.05-0.06-0.07c-0.03-0.03-0.06-0.07-0.1-0.1
		c0.01,0,0.01,0.01,0.02,0.01c0.09,0.04,0.16,0.09,0.2,0.11c0.09,0.06,0.17,0.07,0.17,0.08c0.01,0,0.02,0,0.03-0.01
		c0.01-0.01,0.01-0.02,0-0.03l-0.27-0.36l0.36,0.27c0.01,0.01,0.02,0.01,0.03,0c0.01-0.01,0.01-0.02,0-0.03
		c-0.01-0.01-0.06-0.08-0.1-0.18c-0.01-0.03-0.02-0.06-0.03-0.08c-0.01-0.04-0.02-0.08-0.05-0.13c0.01,0.01,0.01,0.01,0.02,0.02
		c0.06,0.07,0.12,0.14,0.14,0.18c0.06,0.08,0.12,0.13,0.13,0.14c0.01,0.01,0.02,0.01,0.03,0c0.01-0.01,0.01-0.02,0.01-0.03
		l-0.11-0.44l0.23,0.39c0.01,0.01,0.02,0.02,0.03,0.01c0.01,0,0.02-0.02,0.02-0.03c0,0-0.02-0.1-0.02-0.21c0-0.03,0-0.06,0.01-0.09
		c0-0.04,0.01-0.09,0-0.14c0,0.01,0.01,0.01,0.01,0.02c0.03,0.09,0.05,0.18,0.06,0.22c0.02,0.1,0.06,0.17,0.07,0.17
		c0.01,0.01,0.02,0.01,0.03,0.01c0.01,0,0.02-0.01,0.02-0.02l0.06-0.44l0.06,0.44c0,0.01,0.01,0.02,0.03,0.02
		c0.01,0,0.02-0.01,0.03-0.02c0,0,0.02-0.1,0.06-0.2c0.01-0.03,0.03-0.05,0.04-0.08c0.02-0.04,0.04-0.08,0.06-0.13
		c0,0.01,0,0.02,0,0.02c-0.01,0.1-0.02,0.18-0.03,0.23c-0.02,0.1,0,0.18,0,0.19c0,0.01,0.01,0.02,0.02,0.02c0.01,0,0.02,0,0.03-0.01
		l0.23-0.39l-0.11,0.44c0,0.01,0,0.03,0.02,0.03c0.01,0,0.03,0,0.03-0.01c0.01-0.01,0.05-0.09,0.13-0.16
		c0.02-0.02,0.04-0.04,0.07-0.06c0.03-0.03,0.07-0.06,0.1-0.1c0,0.01-0.01,0.01-0.01,0.02c-0.04,0.09-0.09,0.16-0.11,0.2
		c-0.05,0.09-0.07,0.17-0.07,0.17c0,0.01,0,0.02,0.01,0.03c0.01,0.01,0.02,0.01,0.03,0l0.36-0.27l-0.27,0.36
		c-0.01,0.01-0.01,0.02,0,0.03c0.01,0.01,0.02,0.01,0.03,0c0,0,0.08-0.06,0.18-0.1c0.03-0.01,0.06-0.02,0.08-0.03
		c0.04-0.01,0.08-0.03,0.13-0.05c-0.01,0.01-0.01,0.01-0.02,0.02c-0.07,0.06-0.14,0.12-0.18,0.14c-0.08,0.06-0.13,0.13-0.14,0.13
		c-0.01,0.01-0.01,0.02,0,0.03c0.01,0.01,0.02,0.01,0.03,0.01l0.44-0.11l-0.39,0.23c-0.01,0.01-0.02,0.02-0.01,0.03
		c0,0.01,0.02,0.02,0.03,0.02c0.01,0,0.1-0.02,0.21-0.02c0.03,0,0.06,0,0.09,0.01c0.04,0,0.09,0.01,0.14,0
		c-0.01,0-0.01,0.01-0.02,0.01c-0.09,0.03-0.18,0.05-0.22,0.06c-0.1,0.02-0.17,0.07-0.17,0.07c-0.01,0.01-0.01,0.02-0.01,0.03
		c0,0.01,0.01,0.02,0.02,0.02l0.45,0.06l-0.45,0.07c-0.01,0-0.02,0.01-0.02,0.03c0,0.01,0.01,0.02,0.02,0.03
		c0.01,0,0.1,0.02,0.2,0.06c0.03,0.01,0.05,0.03,0.08,0.04c0.04,0.02,0.08,0.04,0.13,0.06c-0.01,0-0.02,0-0.02,0
		c-0.1-0.01-0.18-0.02-0.23-0.03l-0.01,0c-0.08-0.04-0.16-0.05-0.25-0.05c0,0,0,0,0,0c0-0.02-0.02-0.03-0.03-0.04
		c-0.12-0.04-0.24-0.06-0.34-0.06c-0.04,0-0.07,0-0.11,0.01c0,0,0-0.01,0-0.01c-0.01-0.02-0.02-0.03-0.04-0.03
		c-0.13-0.02-0.24-0.02-0.34,0c-0.04,0.01-0.08,0.02-0.11,0.03c0-0.01-0.01-0.02-0.01-0.03c-0.01-0.01-0.03-0.02-0.04-0.02
		c-0.13,0.01-0.24,0.04-0.34,0.08c-0.03,0.01-0.05,0.02-0.07,0.04c0-0.01-0.01-0.03-0.02-0.03c-0.01-0.01-0.03-0.01-0.05-0.01
		c-0.13,0.03-0.23,0.08-0.32,0.14l-0.01,0c-0.02,0-0.05,0-0.07,0c-0.02,0-0.08-0.01-0.09-0.01C121.34,3.37,121.3,3.37,121.25,3.37
		 M121.37,3.5C121.37,3.5,121.37,3.5,121.37,3.5C121.37,3.5,121.37,3.5,121.37,3.5c0,0.07-0.02,0.18-0.09,0.29
		c-0.01,0.01-0.01,0.03,0,0.04c0.01,0.01,0.02,0.02,0.04,0.02c0,0,0.1-0.02,0.19-0.01c0,0,0,0,0,0c0,0,0,0,0,0
		c-0.08,0.07-0.25,0.18-0.43,0.18c-0.01,0-0.01,0-0.02,0c0,0,0,0,0,0C121.06,3.93,121.08,3.71,121.37,3.5 M120.75,4.15
		c0.01-0.07,0.04-0.13,0.09-0.2c0.04-0.06,0.1-0.12,0.16-0.18c0,0,0,0,0,0c0,0,0,0,0,0c0,0.07-0.01,0.18-0.07,0.29
		c-0.01,0.01-0.01,0.03,0,0.04c0.01,0.01,0.03,0.02,0.04,0.01c0,0,0.09-0.03,0.19-0.03c0,0,0,0,0,0c0,0,0,0,0,0
		c-0.04,0.04-0.07,0.07-0.11,0.1c-0.08,0.06-0.19,0.13-0.3,0.13c0,0-0.01,0-0.01,0c0,0,0,0,0,0C120.74,4.29,120.73,4.23,120.75,4.15
		 M120.65,4.1C120.65,4.1,120.65,4.1,120.65,4.1C120.66,4.1,120.66,4.1,120.65,4.1c0.02,0.07,0.02,0.18-0.02,0.3
		c-0.01,0.02,0,0.03,0.01,0.04c0.01,0.01,0.03,0.01,0.04,0c0,0,0.08-0.06,0.19-0.07c0,0,0,0,0,0c0,0,0,0,0,0
		c-0.07,0.1-0.21,0.26-0.39,0.29c0,0,0,0,0,0c0,0,0,0,0,0C120.46,4.59,120.42,4.37,120.65,4.1 M120.26,4.69
		c0.02-0.07,0.06-0.15,0.11-0.22c0,0,0,0,0,0c0,0,0,0,0,0c0.02,0.07,0.04,0.17,0.01,0.3c0,0.02,0,0.03,0.02,0.04
		c0.01,0.01,0.03,0.01,0.04-0.01c0,0,0.08-0.08,0.18-0.09c0,0,0,0,0,0c0,0,0,0,0,0c-0.01,0.03-0.04,0.08-0.07,0.12
		c-0.08,0.11-0.18,0.18-0.29,0.22c0,0,0,0,0,0c0,0,0,0,0,0c-0.01-0.02-0.03-0.08-0.04-0.16C120.23,4.83,120.24,4.76,120.26,4.69
		 M120.05,5.1c0.01-0.07,0.03-0.15,0.07-0.23c0,0,0,0,0,0h0c0,0,0,0,0,0c0.03,0.06,0.07,0.16,0.06,0.3c0,0.02,0.01,0.03,0.02,0.04
		c0.01,0.01,0.03,0,0.04-0.01c0,0,0.08-0.07,0.18-0.11c0,0,0,0,0,0c0,0,0,0,0,0c-0.01,0.04-0.02,0.08-0.04,0.11
		c-0.06,0.12-0.15,0.21-0.27,0.27c0,0,0,0,0,0c0,0,0,0,0,0c-0.02-0.02-0.04-0.08-0.06-0.15C120.04,5.24,120.04,5.17,120.05,5.1
		 M119.93,5.29C119.93,5.29,119.93,5.28,119.93,5.29C119.93,5.28,119.94,5.28,119.93,5.29c0.04,0.06,0.09,0.15,0.1,0.29
		c0,0.02,0.01,0.03,0.03,0.03c0.01,0,0.03,0,0.04-0.01c0,0,0.07-0.08,0.16-0.13c0,0,0,0,0,0c0,0,0,0,0,0c0,0.04-0.01,0.08-0.03,0.12
		c-0.04,0.13-0.12,0.23-0.23,0.3c0,0,0,0,0,0c0,0,0,0,0,0c-0.02-0.02-0.05-0.07-0.08-0.14c-0.02-0.06-0.03-0.13-0.03-0.21
		C119.89,5.45,119.91,5.37,119.93,5.29 M119.8,5.73C119.8,5.73,119.8,5.73,119.8,5.73C119.8,5.73,119.8,5.73,119.8,5.73
		c0.05,0.05,0.11,0.14,0.14,0.27c0,0.01,0.01,0.03,0.03,0.03c0.01,0,0.03,0,0.04-0.02c0,0,0.06-0.09,0.14-0.15c0,0,0,0,0,0
		c0,0,0,0,0,0c0,0.04-0.01,0.08-0.02,0.12c-0.03,0.13-0.09,0.24-0.19,0.32c0,0,0,0,0,0c0,0,0,0,0,0c-0.02-0.02-0.06-0.06-0.1-0.13
		c-0.03-0.06-0.05-0.13-0.06-0.21C119.78,5.9,119.79,5.81,119.8,5.73 M119.73,6.17C119.73,6.17,119.73,6.17,119.73,6.17
		C119.74,6.17,119.74,6.17,119.73,6.17c0.05,0.05,0.12,0.14,0.15,0.27c0,0.02,0.02,0.03,0.03,0.03c0.02,0,0.03-0.01,0.04-0.02
		c0,0,0.04-0.09,0.12-0.15c0,0,0,0,0,0c0,0,0,0,0,0c0,0.05,0,0.09-0.01,0.13c-0.02,0.14-0.08,0.24-0.16,0.32c0,0,0,0,0,0
		c0,0,0,0,0,0c-0.02-0.01-0.06-0.06-0.1-0.13c-0.03-0.06-0.06-0.13-0.07-0.2C119.72,6.34,119.72,6.26,119.73,6.17 M119.7,6.64
		C119.7,6.64,119.7,6.64,119.7,6.64C119.7,6.64,119.7,6.64,119.7,6.64c0.01,0.01,0.02,0.02,0.03,0.03c0.04,0.04,0.1,0.12,0.13,0.23
		c0.01,0.02,0.02,0.03,0.04,0.03c0.02,0,0.03-0.01,0.03-0.03v0c0,0,0.02-0.1,0.1-0.17c0,0,0,0,0,0c0,0,0,0,0,0
		c0.01,0.05,0.02,0.13,0,0.22c-0.02,0.1-0.06,0.19-0.13,0.26c0,0,0,0,0,0c0,0,0,0,0,0C119.83,7.15,119.68,6.99,119.7,6.64
		 M119.68,7.09C119.68,7.09,119.68,7.09,119.68,7.09c0.01,0.01,0.02,0.02,0.03,0.03c0.05,0.04,0.11,0.11,0.16,0.21
		c0.01,0.01,0.02,0.02,0.03,0.02c0,0,0,0,0,0h0c0.02,0,0.03-0.01,0.03-0.02c0,0,0.04-0.1,0.11-0.18c0,0,0,0,0,0c0,0,0,0,0,0
		c0.02,0.1,0.03,0.28-0.11,0.47c0,0,0,0,0,0c0,0,0,0,0,0C119.87,7.59,119.69,7.45,119.68,7.09C119.68,7.09,119.68,7.09,119.68,7.09
		 M119.7,7.56C119.7,7.56,119.7,7.56,119.7,7.56C119.7,7.56,119.71,7.56,119.7,7.56c0.07,0.03,0.16,0.09,0.23,0.2
		c0.01,0.01,0.02,0.02,0.04,0.02c0.01,0,0.03-0.01,0.03-0.03v0l0,0l0,0c0,0,0.03-0.11,0.08-0.2c0,0,0,0,0,0c0,0,0,0,0,0
		c0.02,0.04,0.03,0.08,0.04,0.12c0.03,0.13,0.01,0.25-0.06,0.37c0,0,0,0,0,0c0,0,0,0,0,0c-0.02-0.01-0.08-0.03-0.14-0.09
		c-0.05-0.05-0.1-0.1-0.13-0.17C119.75,7.72,119.72,7.65,119.7,7.56 M119.81,8C119.81,8,119.81,8,119.81,8
		C119.81,8,119.81,8,119.81,8c0.02,0,0.03,0.01,0.04,0.01c0.05,0.03,0.13,0.08,0.21,0.17c0.01,0.01,0.02,0.02,0.04,0.01
		c0.01,0,0.03-0.02,0.03-0.03c0,0,0.02-0.1,0.06-0.19c0,0,0,0,0,0c0,0,0,0,0,0c0.04,0.1,0.11,0.29,0.02,0.48c0,0,0,0,0,0
		c0,0,0,0,0,0C120.12,8.43,119.91,8.34,119.81,8 M120.07,8.65c-0.05-0.06-0.09-0.13-0.12-0.21c0,0,0,0,0,0c0,0,0,0,0,0
		c0.01,0,0.03,0.01,0.04,0.01c0.06,0.02,0.14,0.06,0.22,0.15c0.01,0.01,0.03,0.01,0.04,0.01c0.01-0.01,0.02-0.02,0.02-0.03
		c0,0,0-0.1,0.03-0.2c0,0,0,0,0,0c0,0,0,0,0,0c0.02,0.04,0.04,0.08,0.05,0.12c0.05,0.13,0.05,0.25,0.02,0.36c0,0,0,0,0,0
		c0,0,0,0,0,0c-0.02,0-0.08-0.02-0.15-0.06C120.17,8.75,120.12,8.71,120.07,8.65 M120.14,8.85C120.14,8.85,120.14,8.85,120.14,8.85
		C120.14,8.85,120.14,8.85,120.14,8.85c0.07,0.01,0.18,0.04,0.28,0.12c0.01,0.01,0.03,0.01,0.04,0c0.01-0.01,0.02-0.02,0.02-0.04
		c0,0-0.01-0.1,0.01-0.2c0,0,0,0,0,0c0,0,0,0,0,0c0.03,0.04,0.05,0.07,0.07,0.11c0.04,0.08,0.09,0.21,0.06,0.35c0,0,0,0,0,0h0
		c-0.03,0-0.09-0.01-0.16-0.04c-0.06-0.03-0.12-0.07-0.18-0.12C120.23,8.99,120.18,8.93,120.14,8.85 M121.01,9.61
		c0,0-0.04-0.09-0.05-0.19c0,0,0,0,0,0c0,0,0,0,0,0c0.09,0.07,0.23,0.23,0.22,0.43c0,0,0,0,0,0c-0.01,0-0.03,0-0.06,0
		c-0.02,0-0.06,0-0.09-0.01c-0.13-0.03-0.26-0.1-0.39-0.22c0,0,0,0,0,0c0,0,0,0,0,0c0.07-0.01,0.18-0.01,0.3,0.04
		c0.01,0.01,0.03,0,0.04-0.01C121.01,9.64,121.01,9.62,121.01,9.61 M120.66,9.34c0.01,0.01,0.03,0.01,0.04,0
		c0.01-0.01,0.02-0.02,0.01-0.04c0,0-0.02-0.09-0.01-0.19c0,0,0,0,0,0c0,0,0,0,0,0c0.07,0.09,0.19,0.26,0.18,0.44c0,0,0,0,0,0
		c-0.01,0-0.01,0-0.02,0c-0.03,0-0.08,0-0.15-0.02c-0.07-0.02-0.13-0.06-0.19-0.1c-0.06-0.05-0.12-0.11-0.17-0.18c0,0,0,0,0,0
		c0,0,0,0,0,0C120.44,9.24,120.55,9.27,120.66,9.34 M122.14,8.35c-0.01,0.01-0.02,0.02-0.03,0.02c-0.08,0.06-0.13,0.12-0.15,0.18
		c-0.01,0-0.02,0-0.03-0.01c-0.06-0.02-0.06-0.05-0.07-0.06c0-0.03,0.01-0.06,0.06-0.11c0.06-0.05,0.1-0.08,0.14-0.08
		c0.01,0,0.03,0,0.04,0.01c0.02,0.01,0.03,0.02,0.04,0.03C122.14,8.34,122.14,8.34,122.14,8.35 M122.22,8.66
		c-0.02,0-0.09,0.01-0.12-0.01c-0.01-0.01-0.02-0.01-0.02-0.04c-0.01-0.05,0.06-0.11,0.1-0.14c0.06-0.04,0.11-0.07,0.14-0.07
		c0.02,0,0.03,0.01,0.05,0.02c0.01,0.01,0.02,0.02,0.02,0.03c0,0.02-0.02,0.04-0.04,0.06C122.28,8.56,122.24,8.6,122.22,8.66
		 M122.54,8.67c-0.02,0.02-0.11,0.07-0.17,0.06c-0.01,0-0.02-0.01-0.04-0.02c0.03-0.06,0.09-0.09,0.14-0.13
		c0.07-0.04,0.1-0.02,0.1-0.02c0.02,0.02,0.02,0.03,0.02,0.04C122.59,8.63,122.56,8.66,122.54,8.67
		C122.54,8.67,122.54,8.67,122.54,8.67 M121.86,8.26c-0.01,0.01-0.02,0.02-0.03,0.03c-0.04,0.04-0.08,0.08-0.09,0.14
		c-0.01,0-0.02,0-0.03,0c-0.04-0.01-0.06-0.02-0.07-0.03c0-0.01-0.01-0.02,0.01-0.06c0.03-0.04,0.11-0.08,0.16-0.08
		c0,0,0.01,0,0.01,0c0,0,0,0,0.01,0C121.85,8.25,121.85,8.25,121.86,8.26 M123.48,8.33c-0.02,0.02-0.05,0.03-0.08,0.03
		c-0.05-0.07-0.19-0.24-0.36-0.32c-0.02-0.01-0.03-0.01-0.05,0c-0.02,0.01-0.03,0.02-0.04,0.03c-0.01,0.02-0.01,0.03,0,0.05
		c0.01,0.02,0.02,0.03,0.03,0.04c0.15,0.07,0.27,0.22,0.32,0.28c-0.01,0.01-0.01,0.02-0.02,0.03c-0.02,0.03-0.06,0.04-0.1,0.04
		c-0.02-0.03-0.04-0.08-0.08-0.12c-0.05-0.06-0.16-0.14-0.17-0.14c-0.01-0.01-0.03-0.01-0.05-0.01c-0.02,0-0.03,0.01-0.04,0.03
		c-0.01,0.01-0.01,0.03-0.01,0.05s0.01,0.03,0.03,0.04c0.03,0.02,0.11,0.08,0.14,0.12c0.04,0.05,0.06,0.08,0.07,0.09
		c-0.01,0.01-0.01,0.03-0.03,0.04c-0.02,0.02-0.05,0.03-0.08,0.03c-0.02-0.04-0.05-0.1-0.11-0.17c-0.02-0.03-0.06-0.03-0.09-0.01
		c-0.01,0.01-0.02,0.03-0.02,0.04c0,0.02,0,0.03,0.02,0.05c0.04,0.05,0.07,0.09,0.09,0.13c-0.01,0.01-0.02,0.01-0.03,0.02
		c-0.03,0.01-0.07,0.02-0.1,0.01c0.02-0.02,0.03-0.05,0.03-0.08c0-0.03,0-0.09-0.06-0.14c-0.03-0.03-0.08-0.05-0.15-0.04
		c-0.01-0.04-0.03-0.07-0.06-0.1c-0.06-0.05-0.12-0.06-0.2-0.04v0c-0.01-0.03-0.04-0.07-0.1-0.1c-0.05-0.03-0.11-0.03-0.17-0.01
		c-0.05-0.04-0.12-0.05-0.14-0.05c-0.08-0.01-0.19,0.03-0.26,0.1c-0.36,0.19-0.82,0.4-1.01,0.48c-0.1-0.19-0.18-0.38-0.25-0.59
		c-0.02-0.06-0.04-0.12-0.05-0.17c0.53-0.06,0.95-0.12,1.26-0.18c0.32-0.06,0.53-0.13,0.64-0.2c0.12-0.09,0.21-0.13,0.33-0.12
		c0.03,0,0.05,0.01,0.08,0.01c-0.02,0.01-0.04,0.02-0.06,0.04c-0.05,0.03-0.08,0.06-0.11,0.08c-0.03,0.02-0.05,0.04-0.08,0.06
		c-0.02,0.02-0.06,0.03-0.09,0.05c-0.07,0.04-0.13,0.06-0.15,0.11c-0.02,0.05-0.01,0.1,0.02,0.15c0.06,0.08,0.15,0.07,0.22,0.07
		c0.08,0,0.18-0.03,0.26-0.08c0.03-0.02,0.05-0.03,0.07-0.04c0.03-0.02,0.06-0.04,0.08-0.04c0,0,0,0,0,0
		c0.06-0.02,0.14-0.01,0.22,0.02c0.08,0.03,0.15,0.08,0.22,0.12c0.16,0.11,0.29,0.25,0.32,0.3C123.51,8.29,123.5,8.32,123.48,8.33
		 M123.71,8.29c-0.05-0.04-0.09-0.08-0.11-0.1c0,0,0,0,0,0l0,0c0-0.01-0.01-0.01-0.01-0.01c-0.06-0.07-0.17-0.2-0.33-0.3
		c-0.12-0.08-0.33-0.22-0.54-0.16c-0.04,0.01-0.08,0.03-0.12,0.06c-0.02,0.01-0.04,0.03-0.06,0.04c-0.07,0.04-0.15,0.06-0.2,0.06
		c-0.06,0-0.1,0-0.11-0.02c-0.01-0.02-0.01-0.03-0.01-0.03c0.01-0.01,0.06-0.04,0.09-0.05c0.03-0.02,0.07-0.03,0.1-0.05
		c0.04-0.03,0.07-0.05,0.09-0.07c0.03-0.02,0.05-0.04,0.1-0.08c0.06-0.04,0.13-0.05,0.24-0.05l0,0c0.02,0,0.03,0,0.05,0
		c0.01,0,0.03,0,0.04,0c0.11,0,0.21,0.03,0.36,0.09c0.04,0.02,0.09,0.03,0.15,0.05c0.01,0,0.21,0.07,0.49,0.13
		c0.24,0.06,0.6,0.13,0.93,0.15c-0.01,0.05-0.03,0.11-0.05,0.16c-0.07,0.22-0.16,0.42-0.26,0.61
		C124.38,8.66,123.98,8.48,123.71,8.29 M124.49,9.62c-0.16,0.15-0.3,0.2-0.39,0.22c-0.03,0.01-0.06,0.01-0.09,0.01
		c-0.03,0-0.05,0-0.06,0c0,0,0,0,0,0c-0.01-0.11,0.04-0.23,0.13-0.33c0.03-0.03,0.06-0.06,0.1-0.09c0,0,0,0,0,0c0,0,0,0,0,0
		c-0.01,0.1-0.05,0.19-0.05,0.19c-0.01,0.01,0,0.03,0.01,0.04c0.01,0.01,0.03,0.01,0.04,0.01C124.31,9.61,124.42,9.61,124.49,9.62
		C124.49,9.62,124.49,9.62,124.49,9.62C124.49,9.62,124.49,9.62,124.49,9.62 M124.78,9.24c-0.05,0.07-0.11,0.13-0.17,0.18
		c-0.06,0.05-0.12,0.08-0.19,0.1c-0.06,0.02-0.11,0.02-0.15,0.02c-0.01,0-0.01,0-0.02,0c0,0,0,0,0,0c-0.01-0.11,0.03-0.23,0.1-0.34
		c0.02-0.04,0.05-0.07,0.08-0.1c0,0,0,0,0,0c0,0,0,0,0,0c0.01,0.1-0.01,0.2-0.01,0.2c0,0.01,0,0.03,0.02,0.04
		c0.01,0.01,0.03,0.01,0.04,0C124.6,9.27,124.7,9.24,124.78,9.24C124.77,9.24,124.78,9.24,124.78,9.24
		C124.78,9.24,124.78,9.24,124.78,9.24 M124.86,9.05c-0.05,0.05-0.11,0.09-0.18,0.12c-0.07,0.03-0.14,0.04-0.16,0.04h0c0,0,0,0,0,0
		c-0.02-0.11,0-0.23,0.06-0.35c0.02-0.04,0.04-0.08,0.07-0.11c0,0,0,0,0,0c0,0,0,0,0,0c0.02,0.1,0.01,0.2,0.01,0.2
		c0,0.02,0.01,0.03,0.02,0.04c0.01,0.01,0.03,0.01,0.04,0c0.11-0.08,0.21-0.12,0.28-0.13c0,0,0,0,0,0c0,0,0,0,0,0
		C124.97,8.93,124.92,8.99,124.86,9.05 M125.07,8.64c-0.05,0.06-0.1,0.11-0.16,0.14c-0.07,0.04-0.12,0.05-0.15,0.06c0,0,0,0,0,0
		c0,0,0,0,0,0c-0.03-0.11-0.03-0.23,0.02-0.36c0.01-0.04,0.03-0.08,0.05-0.11c0,0,0,0,0,0c0,0,0,0,0,0c0.03,0.09,0.04,0.19,0.04,0.2
		c0,0.02,0.01,0.03,0.02,0.03c0.01,0.01,0.03,0,0.04-0.01c0.08-0.09,0.17-0.13,0.22-0.15c0.01,0,0.03-0.01,0.04-0.01c0,0,0,0,0,0
		c0,0,0,0,0,0C125.16,8.51,125.12,8.58,125.07,8.64 M125.23,8.22c-0.04,0.06-0.09,0.12-0.15,0.16c-0.06,0.05-0.12,0.07-0.15,0.07
		c0,0,0,0,0,0c0,0,0,0,0,0c-0.05-0.13-0.04-0.27-0.02-0.36c0.01-0.04,0.02-0.08,0.04-0.13c0,0,0,0,0,0h0c0,0,0,0,0,0
		c0.04,0.09,0.05,0.2,0.05,0.2c0,0.01,0.01,0.03,0.03,0.03c0.01,0,0.03,0,0.04-0.01c0.08-0.1,0.18-0.16,0.24-0.18c0,0,0,0,0,0
		c0,0,0,0,0,0C125.31,8.08,125.27,8.15,125.23,8.22 M125.35,7.77c-0.03,0.07-0.08,0.13-0.13,0.17c-0.06,0.05-0.11,0.08-0.14,0.09
		c0,0,0,0,0,0c0,0,0,0,0,0c-0.06-0.1-0.08-0.23-0.06-0.36c0.01-0.04,0.01-0.09,0.03-0.13c0,0,0,0,0,0c0,0,0,0,0,0
		c0.05,0.09,0.08,0.2,0.08,0.2c0,0.01,0.02,0.03,0.03,0.03c0.02,0,0.03,0,0.04-0.02c0.07-0.11,0.16-0.18,0.22-0.21c0,0,0,0,0,0
		c0,0,0,0,0,0C125.41,7.63,125.38,7.71,125.35,7.77"/>
	<path class="st3" d="M123.38,3.31c0.08,0,0.17,0.02,0.25,0.05l0.01,0c0.04,0.01,0.13,0.02,0.23,0.03c0.01,0,0.02,0,0.02,0
		c-0.05-0.02-0.09-0.04-0.13-0.06c-0.02-0.01-0.05-0.03-0.08-0.04c-0.1-0.04-0.19-0.06-0.2-0.06c-0.01,0-0.02-0.01-0.02-0.03
		c0-0.01,0.01-0.02,0.02-0.03l0.45-0.07l-0.45-0.06c-0.01,0-0.02-0.01-0.02-0.02c0-0.01,0-0.02,0.01-0.03c0,0,0.07-0.05,0.17-0.07
		c0.04-0.01,0.13-0.03,0.22-0.06c0.01,0,0.01-0.01,0.02-0.01c-0.05,0-0.1,0-0.14,0c-0.03,0-0.06-0.01-0.09-0.01
		c-0.1,0-0.2,0.02-0.21,0.02c-0.01,0-0.03,0-0.03-0.02c0-0.01,0-0.03,0.01-0.03l0.39-0.23l-0.44,0.11c-0.01,0-0.02,0-0.03-0.01
		c-0.01-0.01-0.01-0.02,0-0.03c0,0,0.05-0.07,0.14-0.13c0.04-0.03,0.11-0.08,0.18-0.14c0.01-0.01,0.01-0.01,0.02-0.02
		c-0.05,0.02-0.09,0.04-0.13,0.05c-0.03,0.01-0.05,0.02-0.08,0.03c-0.1,0.04-0.18,0.1-0.18,0.1c-0.01,0.01-0.02,0.01-0.03,0
		c-0.01-0.01-0.01-0.02,0-0.03l0.27-0.36l-0.36,0.27c-0.01,0.01-0.02,0.01-0.03,0c-0.01-0.01-0.01-0.02-0.01-0.03
		c0,0,0.02-0.09,0.07-0.17c0.02-0.04,0.07-0.11,0.11-0.2c0-0.01,0.01-0.01,0.01-0.02c-0.03,0.04-0.07,0.07-0.1,0.1
		c-0.02,0.02-0.04,0.04-0.07,0.06c-0.08,0.07-0.13,0.15-0.13,0.16c-0.01,0.01-0.02,0.02-0.03,0.01c-0.01,0-0.02-0.02-0.02-0.03
		l0.11-0.44l-0.23,0.39c-0.01,0.01-0.02,0.01-0.03,0.01c-0.01,0-0.02-0.01-0.02-0.02c0,0-0.01-0.09,0-0.19
		c0.01-0.04,0.02-0.13,0.03-0.23c0-0.01,0-0.02,0-0.02c-0.02,0.05-0.04,0.09-0.06,0.13c-0.01,0.02-0.03,0.05-0.04,0.08
		c-0.04,0.1-0.06,0.19-0.06,0.2c0,0.01-0.01,0.02-0.03,0.02c-0.01,0-0.02-0.01-0.03-0.02l-0.06-0.44l-0.06,0.44
		c0,0.01-0.01,0.02-0.02,0.02c-0.01,0-0.02,0-0.03-0.01c0-0.01-0.05-0.08-0.07-0.17c-0.01-0.04-0.03-0.13-0.06-0.22
		c0-0.01-0.01-0.01-0.01-0.02c0,0.05,0,0.1,0,0.14c0,0.03-0.01,0.06-0.01,0.09c0,0.11,0.02,0.2,0.02,0.21c0,0.01,0,0.03-0.02,0.03
		c-0.01,0-0.03,0-0.03-0.01l-0.23-0.39l0.11,0.44c0,0.01,0,0.02-0.01,0.03c-0.01,0.01-0.02,0.01-0.03,0
		c-0.01-0.01-0.07-0.05-0.13-0.14c-0.03-0.04-0.08-0.11-0.14-0.18c-0.01-0.01-0.01-0.01-0.02-0.02c0.02,0.05,0.04,0.09,0.05,0.13
		c0.01,0.03,0.02,0.05,0.03,0.08c0.04,0.1,0.09,0.17,0.1,0.18c0.01,0.01,0.01,0.02,0,0.03c-0.01,0.01-0.02,0.01-0.03,0l-0.36-0.27
		l0.27,0.36c0.01,0.01,0.01,0.02,0,0.03c-0.01,0.01-0.02,0.01-0.03,0.01c0,0-0.08-0.02-0.17-0.08c-0.04-0.02-0.11-0.07-0.2-0.11
		c-0.01,0-0.01-0.01-0.02-0.01c0.04,0.03,0.07,0.07,0.1,0.1c0.02,0.02,0.04,0.04,0.06,0.07c0.08,0.08,0.16,0.13,0.16,0.13
		c0.01,0.01,0.02,0.02,0.01,0.03c0,0.01-0.02,0.02-0.03,0.02l-0.44-0.11l0.39,0.23c0.01,0.01,0.01,0.02,0.01,0.03
		c0,0.01-0.01,0.02-0.02,0.02c0,0-0.09,0.01-0.19,0c-0.04-0.01-0.13-0.02-0.23-0.03c-0.01,0-0.02,0-0.02,0
		c0.05,0.02,0.09,0.04,0.13,0.06c0.02,0.01,0.05,0.03,0.08,0.04c0.1,0.05,0.2,0.06,0.2,0.06c0.01,0,0.02,0.01,0.02,0.03
		c0,0.01-0.01,0.02-0.02,0.03l-0.45,0.07l0.45,0.07c0.01,0,0.02,0.01,0.02,0.02c0,0.01,0,0.02-0.01,0.03c0,0-0.07,0.05-0.17,0.07
		c-0.04,0.01-0.13,0.03-0.22,0.06c-0.01,0-0.01,0.01-0.02,0.01c0.05,0,0.1,0,0.14,0c0.01,0,0.07,0.01,0.09,0.01
		c0.02,0,0.05,0,0.07,0l0.01,0c0.09-0.06,0.19-0.11,0.32-0.14c0.02,0,0.03,0,0.05,0.01c0.01,0.01,0.02,0.02,0.02,0.03
		c0.02-0.01,0.05-0.03,0.07-0.04c0.09-0.04,0.21-0.07,0.34-0.08c0.02,0,0.03,0,0.04,0.02c0.01,0.01,0.01,0.02,0.01,0.03
		c0.04-0.01,0.07-0.02,0.11-0.03c0.1-0.02,0.22-0.02,0.34,0c0.02,0,0.03,0.01,0.04,0.03c0,0,0,0.01,0,0.01
		c0.03-0.01,0.07-0.01,0.11-0.01c0.1,0,0.22,0.02,0.34,0.06C123.36,3.28,123.37,3.29,123.38,3.31
		C123.38,3.31,123.38,3.31,123.38,3.31"/>
	<path class="st2" d="M122.73,2.74c0.43-0.07,0.48,0.06,0.48,0.06s0.01,0.03,0.05,0.02c0,0,0.03,0,0.01-0.04
		c0,0-0.05-0.14-0.28-0.17c0,0-0.12-0.02-0.25,0.01c-0.04,0.01-0.05,0.09-0.05,0.09C122.69,2.75,122.73,2.74,122.73,2.74"/>
	<path class="st2" d="M122.36,2.83c-0.05-0.02-0.17-0.02-0.17-0.02c-0.2,0.01-0.25,0.13-0.25,0.13c-0.02,0.04,0.02,0.04,0.02,0.04
		c0.04,0.01,0.05-0.02,0.05-0.02s0.01-0.03,0.09-0.05c0,0.01-0.01,0.02-0.01,0.04c0,0.06,0.05,0.1,0.1,0.1c0.06,0,0.1-0.05,0.1-0.1
		c0-0.01,0-0.03-0.01-0.04c0.03,0.01,0.05,0.03,0.07,0.06c0.01,0.01,0.02,0.02,0.06,0.02c0.04,0,0.03-0.03,0.03-0.03
		C122.42,2.86,122.36,2.83,122.36,2.83"/>
	<path class="st2" d="M122.72,2.99c0.04,0,0.05-0.01,0.06-0.02c0.02-0.03,0.04-0.05,0.07-0.06c-0.01,0.01-0.01,0.03-0.01,0.04
		c0,0.06,0.05,0.1,0.1,0.1c0.06,0,0.1-0.04,0.1-0.1c0-0.01,0-0.03-0.01-0.04c0.08,0.02,0.09,0.05,0.09,0.05s0.01,0.03,0.05,0.02
		c0,0,0.03,0,0.02-0.04c0,0-0.05-0.12-0.25-0.13c0,0-0.12-0.01-0.17,0.02c0,0-0.07,0.03-0.09,0.13
		C122.69,2.96,122.68,2.99,122.72,2.99"/>
	<path class="st2" d="M121.88,2.82c0.04,0.01,0.05-0.02,0.05-0.02s0.05-0.13,0.48-0.06c0,0,0.04,0.01,0.03-0.03
		c0,0-0.01-0.09-0.05-0.09c-0.13-0.02-0.25-0.01-0.25-0.01c-0.23,0.02-0.28,0.17-0.28,0.17C121.85,2.82,121.88,2.82,121.88,2.82"/>
	<path class="st4" d="M124.49,9.62c-0.07-0.01-0.18-0.01-0.3,0.04c-0.01,0.01-0.03,0-0.04-0.01c-0.01-0.01-0.01-0.03-0.01-0.04
		c0,0,0.04-0.09,0.05-0.19c0,0,0,0,0,0c0,0,0,0,0,0c-0.04,0.03-0.07,0.06-0.1,0.09c-0.09,0.11-0.14,0.22-0.13,0.33c0,0,0,0,0,0
		c0.01,0,0.03,0,0.06,0c0.02,0,0.06,0,0.09-0.01C124.19,9.83,124.33,9.77,124.49,9.62C124.49,9.62,124.49,9.62,124.49,9.62
		C124.49,9.62,124.49,9.62,124.49,9.62"/>
	<path class="st4" d="M120.96,9.42C120.96,9.42,120.96,9.42,120.96,9.42C120.96,9.42,120.96,9.42,120.96,9.42
		c0,0.1,0.04,0.19,0.04,0.19c0.01,0.01,0,0.03-0.01,0.04c-0.01,0.01-0.03,0.01-0.04,0.01c-0.13-0.05-0.24-0.05-0.3-0.04c0,0,0,0,0,0
		c0,0,0,0,0,0c0.13,0.12,0.26,0.2,0.39,0.22c0.03,0.01,0.07,0.01,0.09,0.01c0.03,0,0.05,0,0.06,0c0,0,0,0,0,0
		C121.2,9.64,121.05,9.49,120.96,9.42"/>
	<path class="st4" d="M124.77,9.24c-0.07,0-0.18,0.03-0.29,0.1c-0.01,0.01-0.03,0.01-0.04,0c-0.01-0.01-0.02-0.02-0.02-0.04
		c0,0,0.02-0.1,0.01-0.2c0,0,0,0,0,0c0,0,0,0,0,0c-0.03,0.03-0.06,0.07-0.08,0.1c-0.07,0.12-0.11,0.23-0.1,0.34c0,0,0,0,0,0
		c0.01,0,0.01,0,0.02,0c0.03,0,0.08,0,0.15-0.02c0.07-0.02,0.13-0.06,0.19-0.1C124.67,9.37,124.72,9.31,124.77,9.24
		C124.78,9.24,124.78,9.24,124.77,9.24C124.78,9.24,124.77,9.24,124.77,9.24"/>
	<path class="st4" d="M125.01,8.85c-0.07,0.01-0.17,0.04-0.28,0.13c-0.01,0.01-0.03,0.01-0.04,0c-0.01-0.01-0.02-0.02-0.02-0.04
		c0,0,0.01-0.1-0.01-0.2c0,0,0,0,0,0c0,0,0,0,0,0c-0.03,0.04-0.05,0.07-0.07,0.11c-0.06,0.12-0.08,0.24-0.06,0.35c0,0,0,0,0,0h0
		c0.02,0,0.09-0.01,0.16-0.04c0.06-0.03,0.12-0.07,0.18-0.12C124.92,8.99,124.97,8.93,125.01,8.85
		C125.01,8.85,125.01,8.85,125.01,8.85C125.01,8.85,125.01,8.85,125.01,8.85"/>
	<path class="st4" d="M125.19,8.42c-0.01,0-0.03,0.01-0.04,0.01c-0.06,0.02-0.14,0.06-0.22,0.15c-0.01,0.01-0.03,0.02-0.04,0.01
		c-0.01-0.01-0.02-0.02-0.02-0.03c0,0,0-0.1-0.04-0.2c0,0,0,0,0,0c0,0,0,0,0,0c-0.02,0.04-0.04,0.07-0.05,0.11
		c-0.05,0.13-0.05,0.25-0.02,0.36c0,0,0,0,0,0c0,0,0,0,0,0c0.03,0,0.09-0.02,0.15-0.06c0.06-0.03,0.11-0.08,0.16-0.14
		C125.12,8.58,125.16,8.51,125.19,8.42C125.2,8.43,125.2,8.42,125.19,8.42C125.2,8.42,125.2,8.42,125.19,8.42"/>
	<path class="st4" d="M125.33,7.99c-0.06,0.03-0.16,0.08-0.24,0.18c-0.01,0.01-0.03,0.02-0.04,0.01c-0.01,0-0.03-0.02-0.03-0.03
		c0,0-0.01-0.11-0.05-0.2c0,0,0,0,0,0c0,0,0,0,0,0c-0.02,0.04-0.03,0.08-0.04,0.13c-0.02,0.09-0.04,0.23,0.02,0.36c0,0,0,0,0,0
		c0,0,0,0,0,0c0.02-0.01,0.08-0.03,0.15-0.07c0.06-0.04,0.1-0.09,0.15-0.16C125.27,8.15,125.31,8.08,125.33,7.99
		C125.33,8,125.33,8,125.33,7.99C125.33,7.99,125.33,7.99,125.33,7.99"/>
	<path class="st4" d="M125.42,7.54c-0.06,0.03-0.15,0.1-0.22,0.21c-0.01,0.01-0.02,0.02-0.04,0.02c-0.01,0-0.03-0.01-0.03-0.03
		c0,0-0.03-0.11-0.08-0.2c0,0,0,0,0,0c0,0,0,0,0,0c-0.01,0.04-0.02,0.09-0.03,0.13c-0.02,0.14,0,0.26,0.06,0.36c0,0,0,0,0,0
		c0,0,0,0,0,0c0.03-0.01,0.08-0.04,0.14-0.09c0.05-0.05,0.09-0.11,0.13-0.17C125.38,7.71,125.41,7.63,125.42,7.54
		C125.42,7.54,125.42,7.54,125.42,7.54C125.42,7.54,125.42,7.54,125.42,7.54"/>
	<path class="st4" d="M125.26,7.32c-0.01,0.01-0.02,0.02-0.04,0.02c-0.02,0-0.03-0.01-0.03-0.03c0,0-0.03-0.1-0.1-0.18c0,0,0,0,0,0
		c0,0,0,0,0,0c-0.01,0.04-0.01,0.09-0.01,0.13c0,0.14,0.03,0.25,0.1,0.35c0,0,0,0,0,0c0,0,0,0,0,0c0.02-0.01,0.07-0.04,0.13-0.1
		c0.04-0.05,0.08-0.11,0.11-0.19c0.03-0.07,0.04-0.15,0.05-0.24c0,0,0,0,0,0c0,0,0,0,0,0C125.4,7.13,125.32,7.2,125.26,7.32"/>
	<path class="st4" d="M125.25,6.91c-0.02,0-0.03-0.01-0.04-0.02c0,0-0.04-0.09-0.11-0.16c0,0,0,0,0,0c0,0,0,0,0,0
		c0,0.11,0.01,0.32,0.13,0.46c0,0,0,0,0,0c0,0,0,0,0,0c0.02-0.01,0.07-0.05,0.11-0.12c0.04-0.06,0.07-0.12,0.09-0.19
		c0.02-0.07,0.03-0.15,0.02-0.24c0,0,0,0,0,0c0,0,0,0,0,0c-0.05,0.05-0.12,0.13-0.17,0.25C125.28,6.9,125.26,6.91,125.25,6.91"/>
	<path class="st4" d="M125.23,6.47c-0.01,0-0.03,0-0.04-0.02c0,0-0.05-0.08-0.12-0.15c0,0,0,0,0,0s0,0,0,0
		c0.01,0.12,0.05,0.34,0.17,0.44c0,0,0,0,0,0s0,0,0,0c0.02-0.01,0.07-0.06,0.1-0.13c0.03-0.06,0.06-0.13,0.07-0.2
		c0.01-0.07,0.01-0.16,0-0.24c0,0,0,0,0,0c0,0,0,0,0,0c-0.05,0.05-0.11,0.14-0.14,0.27C125.25,6.45,125.24,6.46,125.23,6.47"/>
	<path class="st4" d="M125.17,6.04c-0.01,0-0.03,0-0.04-0.02c0,0-0.06-0.08-0.13-0.14c0,0,0,0,0,0c0,0,0,0,0,0
		c0,0.04,0.01,0.09,0.02,0.13c0.02,0.09,0.07,0.22,0.17,0.31c0,0,0,0,0,0c0,0,0,0,0,0c0.02-0.02,0.06-0.06,0.1-0.13
		c0.03-0.06,0.05-0.13,0.06-0.21c0.01-0.07,0-0.16-0.01-0.24c0,0,0,0,0,0c0,0,0,0,0,0c-0.05,0.05-0.11,0.14-0.13,0.27
		C125.19,6.02,125.18,6.03,125.17,6.04"/>
	<path class="st4" d="M125.07,5.61c-0.01,0.01-0.03,0-0.04-0.01c0,0-0.07-0.08-0.15-0.13c0,0,0,0,0,0c0,0,0,0,0,0
		c0.01,0.04,0.02,0.08,0.04,0.12c0.05,0.13,0.12,0.22,0.22,0.28c0,0,0,0,0,0c0,0,0,0,0,0c0.01-0.02,0.05-0.07,0.08-0.14
		c0.02-0.06,0.03-0.14,0.03-0.21c0-0.07-0.02-0.16-0.04-0.24c0,0,0,0,0,0c0,0,0,0,0,0c-0.04,0.06-0.08,0.16-0.09,0.29
		C125.1,5.59,125.09,5.61,125.07,5.61"/>
	<path class="st4" d="M124.88,5.19c0,0-0.08-0.07-0.17-0.11c0,0,0,0,0,0c0,0,0,0,0,0c0.01,0.04,0.03,0.08,0.05,0.12
		c0.06,0.12,0.15,0.21,0.25,0.26c0,0,0,0,0,0c0,0,0,0,0,0c0.01-0.02,0.05-0.07,0.06-0.15c0.01-0.07,0.02-0.14,0.01-0.21
		c-0.01-0.07-0.03-0.15-0.07-0.23c0,0,0,0,0,0c0,0,0,0,0,0c-0.03,0.06-0.07,0.16-0.06,0.3c0,0.02-0.01,0.03-0.02,0.04
		C124.91,5.2,124.9,5.2,124.88,5.19"/>
	<path class="st4" d="M124.51,4.71C124.51,4.71,124.51,4.71,124.51,4.71c0.02,0.04,0.04,0.08,0.06,0.12
		c0.07,0.11,0.17,0.19,0.28,0.23c0,0,0,0,0,0c0,0,0,0,0,0c0.01-0.02,0.04-0.08,0.04-0.16c0.01-0.07,0-0.14-0.02-0.21
		c-0.02-0.07-0.05-0.15-0.1-0.22c0,0,0,0,0,0c0,0,0,0,0,0c-0.02,0.06-0.05,0.17-0.03,0.3c0,0.02,0,0.03-0.02,0.04
		c-0.01,0.01-0.03,0.01-0.04,0C124.69,4.8,124.61,4.74,124.51,4.71C124.51,4.71,124.51,4.71,124.51,4.71"/>
	<path class="st4" d="M124.26,4.38C124.26,4.38,124.26,4.38,124.26,4.38c0.03,0.04,0.06,0.08,0.09,0.11c0.09,0.1,0.2,0.16,0.31,0.18
		c0,0,0,0,0,0c0,0,0,0,0,0c0.01-0.03,0.02-0.08,0.02-0.16c0-0.07-0.02-0.14-0.05-0.21c-0.03-0.07-0.07-0.14-0.13-0.2c0,0,0,0,0,0
		c0,0,0,0,0,0c-0.01,0.07-0.02,0.18,0.02,0.3c0,0.02,0,0.03-0.01,0.04c-0.01,0.01-0.03,0.01-0.04,0
		C124.45,4.44,124.37,4.39,124.26,4.38C124.26,4.38,124.26,4.38,124.26,4.38"/>
	<path class="st4" d="M124.21,4.11c-0.01,0.01-0.03,0.02-0.04,0.01c0,0-0.09-0.03-0.18-0.03c0,0-0.01,0-0.01,0c0,0,0,0,0,0
		c0,0,0,0,0,0c0.03,0.04,0.07,0.07,0.11,0.1c0.08,0.06,0.19,0.13,0.32,0.13c0,0,0,0,0.01,0c0,0,0,0,0,0c0-0.02,0.01-0.09-0.01-0.17
		c-0.02-0.07-0.04-0.13-0.09-0.2c-0.04-0.06-0.09-0.12-0.16-0.18c0,0,0,0,0,0c0,0,0,0,0,0c0,0.07,0.01,0.18,0.07,0.29
		C124.23,4.08,124.22,4.1,124.21,4.11"/>
	<path class="st4" d="M120.87,9.55c0.01,0,0.01,0,0.02,0c0,0,0,0,0,0c0.01-0.18-0.11-0.36-0.18-0.44c0,0,0,0,0,0c0,0,0,0,0,0
		c-0.01,0.1,0.01,0.19,0.01,0.19c0,0.02,0,0.03-0.01,0.04c-0.01,0.01-0.03,0.01-0.04,0c-0.11-0.07-0.22-0.09-0.29-0.1c0,0,0,0,0,0
		c0,0,0,0,0,0c0.05,0.07,0.11,0.13,0.17,0.18c0.06,0.05,0.12,0.08,0.19,0.1C120.79,9.54,120.84,9.55,120.87,9.55"/>
	<path class="st4" d="M120.62,9.21L120.62,9.21C120.62,9.21,120.62,9.21,120.62,9.21c0.03-0.14-0.02-0.26-0.06-0.35
		c-0.02-0.04-0.04-0.08-0.07-0.11c0,0,0,0,0,0c0,0,0,0,0,0c-0.02,0.1-0.01,0.19-0.01,0.2c0,0.02-0.01,0.03-0.02,0.04
		c-0.01,0.01-0.03,0.01-0.04,0c-0.11-0.08-0.21-0.12-0.28-0.13c0,0,0,0,0,0c0,0,0,0,0,0c0.04,0.08,0.09,0.14,0.15,0.19
		c0.05,0.05,0.11,0.09,0.18,0.12C120.53,9.2,120.59,9.21,120.62,9.21"/>
	<path class="st4" d="M120.39,8.85C120.39,8.85,120.39,8.85,120.39,8.85C120.39,8.85,120.39,8.85,120.39,8.85
		c0.04-0.11,0.03-0.23-0.02-0.36c-0.01-0.04-0.03-0.08-0.05-0.12c0,0,0,0,0,0c0,0,0,0,0,0c-0.03,0.09-0.03,0.2-0.03,0.2
		c0,0.02-0.01,0.03-0.02,0.03c-0.01,0.01-0.03,0-0.04-0.01c-0.08-0.08-0.17-0.12-0.22-0.15c-0.01,0-0.03-0.01-0.04-0.01c0,0,0,0,0,0
		s0,0,0,0c0.03,0.08,0.08,0.15,0.12,0.21c0.05,0.06,0.1,0.11,0.16,0.14C120.3,8.83,120.36,8.84,120.39,8.85"/>
	<path class="st4" d="M120.2,8.45C120.2,8.45,120.2,8.45,120.2,8.45C120.2,8.45,120.2,8.45,120.2,8.45c0.09-0.2,0.03-0.39-0.01-0.48
		c0,0,0,0,0,0h0c0,0,0,0,0,0c-0.04,0.09-0.06,0.19-0.06,0.19c0,0.02-0.01,0.03-0.03,0.03c-0.01,0-0.03,0-0.04-0.01
		c-0.07-0.09-0.15-0.14-0.21-0.17C119.84,8.01,119.82,8,119.81,8c0,0,0,0,0,0c0,0,0,0,0,0C119.91,8.34,120.12,8.43,120.2,8.45"/>
	<path class="st4" d="M119.92,7.96c0.06,0.05,0.12,0.08,0.14,0.09c0,0,0,0,0,0c0,0,0,0,0,0c0.07-0.12,0.09-0.24,0.06-0.37
		c-0.01-0.04-0.02-0.08-0.04-0.12c0,0,0,0,0,0c0,0,0,0,0,0c-0.05,0.09-0.08,0.19-0.08,0.2l0,0l0,0c0,0.01-0.01,0.03-0.03,0.03
		c-0.01,0-0.03,0-0.04-0.02c-0.08-0.11-0.17-0.17-0.23-0.2c0,0,0,0,0,0c0,0,0,0,0,0c0.02,0.09,0.05,0.16,0.08,0.23
		C119.82,7.86,119.86,7.91,119.92,7.96"/>
	<path class="st4" d="M119.94,7.63C119.94,7.63,119.94,7.63,119.94,7.63C119.94,7.63,119.94,7.63,119.94,7.63
		c0.14-0.19,0.13-0.38,0.11-0.48c0,0,0,0,0,0c0,0,0,0,0,0c-0.07,0.08-0.11,0.18-0.11,0.18c-0.01,0.01-0.02,0.02-0.03,0.02
		c0,0,0,0,0,0c-0.01,0-0.03-0.01-0.03-0.02c-0.05-0.11-0.11-0.18-0.16-0.21c-0.01-0.01-0.02-0.02-0.03-0.03c0,0,0,0,0,0c0,0,0,0,0,0
		C119.69,7.45,119.87,7.59,119.94,7.63"/>
	<path class="st4" d="M119.9,7.2C119.9,7.2,119.91,7.2,119.9,7.2C119.91,7.2,119.91,7.2,119.9,7.2c0.07-0.07,0.12-0.15,0.13-0.26
		c0.01-0.09,0.01-0.17,0-0.22c0,0,0,0,0,0c0,0,0,0,0,0c-0.08,0.07-0.1,0.17-0.1,0.17c0,0.02-0.02,0.03-0.03,0.03
		c-0.02,0-0.03-0.01-0.04-0.03c-0.04-0.11-0.09-0.19-0.13-0.23c-0.01-0.01-0.02-0.02-0.03-0.03c0,0,0,0,0,0c0,0,0,0,0,0
		C119.68,6.99,119.83,7.15,119.9,7.2"/>
	<path class="st4" d="M119.8,6.62c0.04,0.07,0.09,0.11,0.1,0.13c0,0,0,0,0,0c0,0,0,0,0,0c0.08-0.08,0.13-0.18,0.16-0.32
		c0.01-0.04,0.01-0.09,0.01-0.13c0,0,0,0,0,0c0,0,0,0,0,0c-0.08,0.07-0.12,0.15-0.12,0.15c-0.01,0.01-0.02,0.02-0.04,0.02
		c-0.02,0-0.03-0.01-0.03-0.03c-0.03-0.13-0.1-0.22-0.14-0.27c0,0,0,0,0,0c0,0,0,0,0,0c-0.01,0.09-0.01,0.17,0,0.24
		C119.75,6.49,119.77,6.56,119.8,6.62"/>
	<path class="st4" d="M119.85,6.18c0.03,0.07,0.07,0.11,0.1,0.13c0,0,0,0,0,0c0,0,0,0,0,0c0.09-0.08,0.16-0.19,0.19-0.32
		c0.01-0.04,0.01-0.08,0.02-0.12c0,0,0,0,0,0c0,0,0,0,0,0c-0.08,0.06-0.14,0.15-0.14,0.15c-0.01,0.01-0.02,0.02-0.04,0.02
		c-0.01,0-0.03-0.01-0.03-0.03c-0.03-0.13-0.09-0.22-0.13-0.27c0,0,0,0,0,0c0,0,0,0,0,0c-0.02,0.09-0.02,0.17-0.01,0.24
		C119.8,6.05,119.82,6.12,119.85,6.18"/>
	<path class="st4" d="M120,5.88C120,5.88,120,5.88,120,5.88C120,5.88,120,5.88,120,5.88c0.12-0.07,0.2-0.17,0.24-0.3
		c0.01-0.04,0.02-0.08,0.03-0.12c0,0,0,0,0,0c0,0,0,0,0,0c-0.09,0.05-0.16,0.13-0.16,0.13c-0.01,0.01-0.03,0.02-0.04,0.01
		c-0.01,0-0.02-0.02-0.03-0.03c-0.01-0.13-0.06-0.23-0.1-0.29c0,0,0,0,0,0c0,0,0,0,0,0c-0.03,0.08-0.04,0.16-0.04,0.24
		c0,0.08,0.01,0.15,0.03,0.21C119.95,5.81,119.99,5.86,120,5.88"/>
	<path class="st4" d="M120.11,5.46C120.11,5.46,120.11,5.46,120.11,5.46C120.11,5.46,120.11,5.46,120.11,5.46
		c0.12-0.06,0.22-0.15,0.27-0.27c0.02-0.04,0.03-0.07,0.04-0.11c0,0,0,0,0,0c0,0,0,0,0,0c-0.09,0.04-0.17,0.11-0.18,0.11
		c-0.01,0.01-0.03,0.01-0.04,0.01c-0.01-0.01-0.02-0.02-0.02-0.04c0.01-0.13-0.03-0.24-0.06-0.3c0,0,0,0,0,0h0c0,0,0,0,0,0
		c-0.04,0.08-0.06,0.16-0.07,0.23c-0.01,0.07-0.01,0.15,0,0.21C120.07,5.38,120.1,5.43,120.11,5.46"/>
	<path class="st4" d="M120.27,5.06C120.27,5.06,120.27,5.06,120.27,5.06C120.27,5.06,120.27,5.06,120.27,5.06
		c0.11-0.03,0.21-0.1,0.29-0.21c0.03-0.05,0.06-0.09,0.07-0.12c0,0,0,0,0,0c0,0,0,0,0,0c-0.11,0.01-0.18,0.09-0.18,0.09
		c-0.01,0.01-0.03,0.01-0.04,0.01c-0.01-0.01-0.02-0.02-0.02-0.04c0.03-0.13,0.01-0.24-0.01-0.3c0,0,0,0,0,0c0,0,0,0,0,0
		c-0.05,0.07-0.08,0.15-0.11,0.22c-0.02,0.07-0.03,0.14-0.03,0.21C120.24,4.98,120.26,5.04,120.27,5.06"/>
	<path class="st4" d="M120.49,4.67C120.49,4.67,120.49,4.67,120.49,4.67c0.18-0.03,0.32-0.2,0.39-0.29c0,0,0,0,0,0c0,0,0,0,0,0
		c-0.11,0.01-0.19,0.06-0.19,0.07c-0.01,0.01-0.03,0.01-0.04,0c-0.01-0.01-0.02-0.03-0.01-0.04c0.04-0.13,0.04-0.23,0.02-0.3
		c0,0,0,0,0,0c0,0,0,0,0,0C120.42,4.37,120.46,4.59,120.49,4.67C120.49,4.67,120.49,4.67,120.49,4.67"/>
	<path class="st4" d="M120.75,4.32c0,0,0.01,0,0.01,0c0.11,0,0.22-0.07,0.3-0.13c0.04-0.03,0.08-0.06,0.11-0.1c0,0,0,0,0,0
		c0,0,0,0,0,0c-0.1,0-0.19,0.03-0.19,0.03c-0.01,0-0.03,0-0.04-0.01c-0.01-0.01-0.01-0.03,0-0.04c0.06-0.12,0.07-0.23,0.07-0.29
		c0,0,0,0,0,0c0,0,0,0,0,0c-0.07,0.06-0.12,0.12-0.16,0.18c-0.04,0.06-0.07,0.13-0.09,0.2C120.73,4.23,120.74,4.29,120.75,4.32
		C120.75,4.32,120.75,4.32,120.75,4.32"/>
	<path class="st4" d="M121.51,3.83c-0.1-0.01-0.19,0.01-0.19,0.01c-0.01,0-0.03,0-0.04-0.02c-0.01-0.01-0.01-0.03,0-0.04
		c0.07-0.11,0.09-0.22,0.1-0.29c0,0,0,0,0,0c0,0,0,0,0,0c-0.29,0.21-0.31,0.43-0.31,0.51c0,0,0,0,0,0c0.01,0,0.01,0,0.02,0
		C121.26,4.02,121.42,3.91,121.51,3.83C121.51,3.84,121.51,3.84,121.51,3.83C121.51,3.83,121.51,3.83,121.51,3.83"/>
	<path class="st4" d="M121.88,3.66c-0.03-0.01-0.06-0.02-0.1-0.02c-0.05-0.01-0.1-0.01-0.1-0.01h0c-0.02,0-0.03-0.01-0.04-0.02
		c-0.01-0.01,0-0.03,0.01-0.04c0.1-0.09,0.15-0.17,0.17-0.22c0,0,0,0,0,0c0,0,0,0,0,0c-0.34,0.11-0.41,0.31-0.43,0.39c0,0,0,0,0,0
		c0.03,0.01,0.08,0.02,0.13,0.02c0.06,0,0.14-0.01,0.23-0.04C121.8,3.7,121.84,3.68,121.88,3.66
		C121.88,3.66,121.88,3.66,121.88,3.66C121.88,3.66,121.88,3.66,121.88,3.66"/>
	<path class="st4" d="M122.28,3.55c-0.09-0.04-0.19-0.06-0.19-0.06c-0.02,0-0.03-0.02-0.03-0.03c0-0.02,0.01-0.03,0.02-0.04
		c0.11-0.05,0.17-0.11,0.19-0.15c0,0,0,0,0,0c0,0,0,0,0,0c-0.17,0.02-0.31,0.08-0.4,0.17c-0.04,0.04-0.07,0.09-0.08,0.12
		c0,0,0,0,0,0c0.08,0.03,0.15,0.05,0.23,0.05c0.05,0,0.09-0.01,0.13-0.01C122.2,3.58,122.24,3.56,122.28,3.55
		C122.28,3.55,122.28,3.55,122.28,3.55C122.28,3.55,122.28,3.55,122.28,3.55"/>
	<path class="st4" d="M122.54,3.43c-0.02-0.01-0.03-0.02-0.02-0.04c0-0.02,0.01-0.03,0.03-0.03c0.11-0.03,0.18-0.08,0.22-0.1
		c0,0,0,0,0,0c0,0,0,0,0,0c-0.17-0.01-0.31,0.02-0.42,0.08c-0.05,0.03-0.09,0.07-0.1,0.1c0,0,0,0,0,0c0.12,0.09,0.26,0.11,0.38,0.11
		c0.04,0,0.07,0,0.09,0c0,0,0,0,0,0c0,0,0,0,0,0C122.64,3.47,122.55,3.43,122.54,3.43"/>
	<path class="st4" d="M122.99,3.46c-0.01-0.01-0.02-0.02-0.02-0.04c0-0.02,0.02-0.03,0.03-0.03c0.11-0.01,0.19-0.04,0.23-0.06
		c0,0,0,0,0,0c0,0,0,0,0,0c-0.16-0.04-0.31-0.04-0.42,0c-0.06,0.02-0.1,0.05-0.12,0.07c0,0,0,0,0,0c0.14,0.17,0.34,0.2,0.44,0.2h0
		c0,0,0,0,0,0c0,0,0,0,0,0C123.08,3.52,122.99,3.46,122.99,3.46"/>
	<path class="st4" d="M124.09,4.01C124.09,4.01,124.09,4.01,124.09,4.01c0-0.04,0-0.11-0.03-0.19c-0.05-0.13-0.15-0.22-0.31-0.27
		c0,0,0,0,0,0c0,0,0,0,0,0c0.02,0.06,0.06,0.15,0.12,0.23c0.01,0.01,0.01,0.03,0,0.04c-0.01,0.01-0.02,0.02-0.04,0.02
		c0,0-0.09-0.02-0.19,0c0,0,0,0,0,0c0,0,0,0,0,0c0.1,0.06,0.28,0.17,0.43,0.17C124.08,4.01,124.08,4.01,124.09,4.01"/>
	<path class="st4" d="M123.74,3.74C123.74,3.74,123.74,3.74,123.74,3.74c-0.08-0.09-0.19-0.13-0.32-0.12
		c-0.05,0-0.09,0.01-0.14,0.03c0,0,0,0,0,0s0,0,0,0c0.1,0.08,0.21,0.12,0.32,0.12c0.01,0,0.01,0,0.02,0
		C123.67,3.76,123.71,3.75,123.74,3.74C123.74,3.74,123.74,3.74,123.74,3.74"/>
	<path class="st4" d="M123.12,3.47C123.12,3.47,123.12,3.47,123.12,3.47c0.07,0.05,0.14,0.07,0.24,0.07c0.04,0,0.08,0,0.12-0.01
		c0.07-0.01,0.13-0.03,0.17-0.05c0,0,0,0,0,0c0,0,0,0,0,0c-0.06-0.03-0.12-0.06-0.19-0.07c-0.07-0.01-0.13-0.01-0.2,0.01
		C123.2,3.43,123.15,3.45,123.12,3.47C123.12,3.47,123.12,3.47,123.12,3.47"/>
	<path class="st5" d="M121.86,5.93c0.02,0.03,0.06,0.04,0.11,0.04h0.49c-0.29-0.18-0.4-0.15-0.61-0.06
		C121.85,5.92,121.85,5.93,121.86,5.93"/>
	<path class="st5" d="M123.05,5.71c-0.05-0.01-0.09-0.02-0.13-0.04c-0.15-0.06-0.28-0.16-0.29-0.17c-0.03-0.02-0.04-0.07-0.01-0.1
		c0.02-0.03,0.07-0.04,0.1-0.01c0,0,0.12,0.09,0.25,0.14c0.03,0.01,0.07,0.02,0.11,0.03c0.06,0.02,0.14,0.04,0.2,0.07
		c-0.01-0.08-0.03-0.15-0.04-0.22c-0.2-0.04-0.36-0.18-0.37-0.18c-0.01-0.01-0.02-0.03-0.03-0.05c0-0.02,0-0.04,0.02-0.05
		c0.03-0.03,0.07-0.03,0.1-0.01c0,0,0.11,0.09,0.24,0.13c-0.05-0.19-0.12-0.38-0.22-0.56c-0.07-0.13-0.16-0.22-0.29-0.26
		c-0.09-0.03-0.17-0.02-0.17-0.02c0,0,0,0-0.01,0c0,0-0.24,0-0.39,0.18c0,0,0,0,0,0c-0.03,0.03-0.1,0.11-0.11,0.18
		c-0.01,0.04,0,0.06,0.02,0.08c0.01,0.01,0.05,0.02,0.12-0.03c0.02-0.01,0.03-0.02,0.03-0.02c0.03-0.02,0.07-0.02,0.1,0.02
		c0.02,0.03,0.02,0.07-0.01,0.1c-0.01,0.01-0.02,0.02-0.03,0.02c-0.03,0.03-0.09,0.08-0.16,0.17c-0.09,0.12-0.21,0.32-0.27,0.63
		c0,0.01,0,0.01,0,0.02c0.2-0.09,0.37-0.12,0.73,0.11c0.14,0.09,0.31,0.1,0.34,0.1h0.16c0,0,0,0,0,0c0.04,0,0.16,0,0.22-0.06
		c0.01-0.01,0.02-0.02,0.02-0.04C123.3,5.79,123.22,5.75,123.05,5.71"/>
	<path class="st6" d="M122.35,8.51c0.02-0.02,0.04-0.04,0.04-0.06c0-0.01-0.01-0.02-0.02-0.03c-0.02-0.01-0.03-0.02-0.05-0.02
		c-0.04,0-0.08,0.03-0.14,0.07c-0.04,0.03-0.11,0.08-0.1,0.14c0,0.02,0.01,0.03,0.02,0.04c0.03,0.02,0.1,0.02,0.12,0.01
		C122.24,8.6,122.28,8.56,122.35,8.51"/>
	<path class="st6" d="M122.6,8.6c0,0,0-0.02-0.02-0.04c0,0-0.03-0.02-0.1,0.02c-0.05,0.03-0.11,0.07-0.14,0.13
		c0.01,0.02,0.03,0.02,0.04,0.02c0.06,0.01,0.14-0.04,0.17-0.06c0,0,0,0,0,0C122.56,8.66,122.59,8.63,122.6,8.6"/>
	<path class="st6" d="M121.84,8.25c0,0-0.01,0-0.01,0c-0.05,0-0.13,0.04-0.16,0.08c-0.02,0.03-0.02,0.05-0.01,0.06
		c0,0.01,0.03,0.02,0.07,0.03c0.01,0,0.02,0,0.03,0c0.02-0.06,0.06-0.1,0.09-0.14c0.01-0.01,0.02-0.02,0.03-0.03
		C121.85,8.25,121.85,8.25,121.84,8.25C121.84,8.25,121.84,8.25,121.84,8.25"/>
	<path class="st6" d="M121.86,8.48c0,0.01,0,0.04,0.07,0.06c0.01,0,0.02,0.01,0.03,0.01c0.02-0.06,0.07-0.12,0.15-0.18
		c0.01-0.01,0.02-0.02,0.03-0.02c0,0,0-0.01,0-0.01c0-0.01-0.02-0.02-0.04-0.03c-0.01-0.01-0.03-0.01-0.04-0.01
		c-0.04,0-0.09,0.03-0.14,0.08C121.87,8.42,121.86,8.45,121.86,8.48"/>
	<path class="st6" d="M123.4,8.36c0.04,0,0.07-0.01,0.08-0.03c0.02-0.02,0.03-0.04,0.03-0.06c-0.04-0.05-0.16-0.19-0.32-0.3
		c-0.07-0.05-0.14-0.09-0.22-0.12c-0.08-0.03-0.16-0.04-0.22-0.02c0,0,0,0,0,0c-0.02,0-0.05,0.02-0.08,0.04
		c-0.02,0.01-0.04,0.03-0.07,0.04C122.52,7.97,122.42,8,122.34,8c-0.07,0-0.16,0.01-0.22-0.07c-0.04-0.05-0.04-0.1-0.02-0.15
		c0.02-0.05,0.08-0.08,0.15-0.11c0.03-0.02,0.06-0.03,0.09-0.05c0.03-0.02,0.06-0.04,0.08-0.06c0.03-0.02,0.06-0.05,0.11-0.08
		c0.02-0.01,0.04-0.03,0.06-0.04c-0.02,0-0.05-0.01-0.08-0.01c-0.12-0.01-0.2,0.03-0.33,0.12c-0.11,0.07-0.32,0.14-0.64,0.2
		c-0.31,0.06-0.73,0.12-1.26,0.18c0.02,0.06,0.03,0.12,0.05,0.17c0.07,0.21,0.15,0.41,0.25,0.59c0.19-0.08,0.65-0.29,1.01-0.48
		c0.07-0.07,0.18-0.11,0.26-0.1c0.02,0,0.09,0.01,0.14,0.05c0.06-0.02,0.12-0.01,0.17,0.01c0.06,0.03,0.08,0.07,0.1,0.1l0,0
		c0.07-0.02,0.14-0.01,0.2,0.04c0.04,0.03,0.06,0.07,0.06,0.1c0.07-0.01,0.12,0.01,0.15,0.04c0.05,0.05,0.06,0.1,0.06,0.14
		c0,0.03-0.01,0.05-0.03,0.08c0.04,0,0.07,0,0.1-0.01c0.01,0,0.02-0.01,0.03-0.02c-0.02-0.03-0.04-0.08-0.09-0.13
		c-0.01-0.01-0.02-0.03-0.02-0.05c0-0.02,0.01-0.03,0.02-0.04c0.03-0.02,0.07-0.02,0.09,0.01c0.06,0.07,0.1,0.14,0.11,0.17
		c0.03,0,0.06,0,0.08-0.03c0.01-0.01,0.02-0.03,0.03-0.04c-0.01-0.01-0.02-0.04-0.07-0.09c-0.04-0.04-0.12-0.1-0.14-0.12
		c-0.01-0.01-0.02-0.02-0.03-0.04c0-0.02,0-0.03,0.01-0.05c0.01-0.01,0.02-0.02,0.04-0.03c0.02,0,0.03,0,0.05,0.01
		c0,0,0.11,0.08,0.17,0.14c0.04,0.05,0.07,0.09,0.08,0.12c0.04,0,0.08-0.01,0.1-0.04c0.01-0.01,0.01-0.02,0.02-0.03
		c-0.05-0.06-0.17-0.21-0.32-0.28c-0.02-0.01-0.03-0.02-0.03-0.04c-0.01-0.02,0-0.03,0-0.05c0.01-0.02,0.02-0.03,0.04-0.03
		c0.02-0.01,0.03,0,0.05,0C123.21,8.12,123.35,8.29,123.4,8.36"/>
	<path class="st6" d="M122.6,7.78c0.04-0.03,0.08-0.05,0.12-0.06c0.21-0.06,0.42,0.08,0.54,0.16c0.16,0.1,0.28,0.23,0.33,0.3
		c0,0,0,0.01,0.01,0.01l0,0c0,0,0,0,0,0c0.02,0.02,0.06,0.06,0.11,0.1c0.27,0.2,0.67,0.37,0.84,0.44c0.1-0.19,0.19-0.4,0.26-0.61
		c0.02-0.05,0.03-0.11,0.05-0.16c-0.33-0.02-0.69-0.1-0.93-0.15c-0.28-0.07-0.48-0.13-0.49-0.13c-0.06-0.02-0.11-0.04-0.15-0.05
		c-0.15-0.05-0.25-0.09-0.36-0.09c-0.01,0-0.03,0-0.04,0c-0.02,0-0.03,0-0.05,0l0,0c-0.1,0-0.17,0-0.24,0.05
		c-0.05,0.03-0.07,0.06-0.1,0.08c-0.03,0.02-0.05,0.04-0.09,0.07c-0.03,0.02-0.07,0.04-0.1,0.05c-0.03,0.01-0.08,0.04-0.09,0.05
		c0,0.01,0,0.01,0.01,0.03c0.01,0.02,0.05,0.02,0.11,0.02c0.05,0,0.13-0.02,0.2-0.06C122.56,7.8,122.58,7.79,122.6,7.78"/>
</g>
<g>
	<path class="st2" d="M128.8,8.86l-0.16-0.5c-0.01-0.02-0.02-0.03-0.04-0.03h-0.7c-0.02,0-0.03,0.01-0.04,0.03l-0.16,0.5
		c-0.01,0.02-0.02,0.03-0.04,0.03h-0.25c-0.03,0-0.05-0.03-0.04-0.05l0.62-1.85c0.01-0.02,0.02-0.03,0.04-0.03h0.44
		c0.02,0,0.03,0.01,0.04,0.03l0.62,1.85c0.01,0.03-0.01,0.05-0.04,0.05h-0.26C128.82,8.89,128.8,8.88,128.8,8.86z M128.02,8.05h0.46
		c0.03,0,0.05-0.03,0.04-0.05l-0.23-0.7c-0.01-0.04-0.07-0.04-0.08,0L127.98,8C127.97,8.03,127.99,8.05,128.02,8.05z"/>
	<path class="st2" d="M129.39,7.46h0.2c0.02,0,0.04,0.02,0.04,0.04l0.02,0.15h0.02c0.04-0.07,0.1-0.12,0.17-0.15
		c0.07-0.03,0.14-0.05,0.23-0.05c0.03,0,0.05,0,0.08,0c0.02,0,0.04,0.02,0.04,0.04v0.23c0,0.02-0.02,0.04-0.04,0.04
		c-0.03,0-0.06,0-0.09,0c-0.07,0-0.13,0.01-0.2,0.04c-0.06,0.03-0.11,0.06-0.15,0.11c-0.01,0.01-0.01,0.02-0.01,0.03v0.91
		c0,0.02-0.02,0.04-0.04,0.04h-0.26c-0.02,0-0.04-0.02-0.04-0.04V7.51C129.35,7.48,129.36,7.46,129.39,7.46z"/>
	<path class="st2" d="M130.59,9.48c-0.07-0.01-0.13-0.02-0.19-0.04c-0.02,0-0.03-0.02-0.03-0.04V9.21c0-0.03,0.03-0.05,0.05-0.04
		c0.13,0.03,0.26,0.05,0.38,0.05c0.1,0,0.18-0.01,0.24-0.04c0.06-0.02,0.11-0.06,0.14-0.12c0.03-0.05,0.04-0.13,0.04-0.22V8.74
		h-0.02c-0.04,0.05-0.1,0.09-0.16,0.12c-0.06,0.03-0.14,0.04-0.22,0.04c-0.1,0-0.19-0.02-0.28-0.07c-0.08-0.05-0.15-0.13-0.2-0.23
		c-0.05-0.1-0.07-0.23-0.07-0.39c0-0.25,0.07-0.44,0.2-0.57c0.13-0.13,0.33-0.19,0.58-0.19c0.09,0,0.17,0.01,0.27,0.02
		c0.08,0.01,0.15,0.03,0.22,0.05c0.02,0.01,0.03,0.02,0.03,0.04v1.24c0,0.16-0.03,0.3-0.08,0.4c-0.05,0.1-0.13,0.18-0.24,0.23
		c-0.11,0.05-0.25,0.07-0.41,0.07C130.75,9.49,130.67,9.49,130.59,9.48z M131.1,8.59c0.04-0.02,0.08-0.04,0.11-0.07
		c0.01-0.01,0.01-0.02,0.01-0.03V7.76c0-0.02-0.01-0.04-0.03-0.04c-0.05-0.01-0.11-0.02-0.16-0.02c-0.14,0-0.24,0.04-0.3,0.11
		c-0.07,0.07-0.1,0.19-0.1,0.36c0,0.16,0.03,0.28,0.08,0.34c0.06,0.07,0.14,0.1,0.24,0.1C131,8.62,131.05,8.61,131.1,8.59z"/>
	<path class="st2" d="M133.02,8.28h-0.8c-0.03,0-0.04,0.02-0.04,0.05c0.01,0.07,0.02,0.13,0.05,0.17c0.03,0.05,0.08,0.09,0.14,0.12
		c0.06,0.02,0.15,0.04,0.25,0.04c0.09,0,0.19-0.01,0.31-0.04c0.03-0.01,0.05,0.01,0.05,0.04v0.17c0,0.02-0.01,0.04-0.03,0.04
		c-0.13,0.03-0.25,0.04-0.37,0.04c-0.17,0-0.31-0.03-0.42-0.08c-0.11-0.05-0.19-0.13-0.25-0.24c-0.05-0.11-0.08-0.25-0.08-0.42
		c0-0.16,0.02-0.29,0.07-0.4c0.05-0.11,0.12-0.19,0.22-0.25c0.09-0.06,0.21-0.08,0.34-0.08c0.19,0,0.34,0.06,0.44,0.19
		c0.1,0.13,0.15,0.31,0.15,0.56v0.05C133.06,8.26,133.04,8.28,133.02,8.28z M132.25,7.76c-0.04,0.06-0.07,0.15-0.07,0.27
		c0,0.02,0.02,0.04,0.04,0.04h0.48c0.02,0,0.04-0.02,0.04-0.04c-0.01-0.12-0.03-0.22-0.07-0.27c-0.05-0.06-0.11-0.09-0.2-0.09
		C132.37,7.67,132.3,7.7,132.25,7.76z"/>
	<path class="st2" d="M133.35,7.46h0.21c0.02,0,0.04,0.01,0.04,0.04l0.02,0.12h0.02c0.05-0.06,0.12-0.1,0.19-0.13
		c0.07-0.03,0.15-0.04,0.24-0.04c0.15,0,0.26,0.04,0.35,0.13c0.09,0.09,0.13,0.22,0.13,0.41v0.87c0,0.02-0.02,0.04-0.04,0.04h-0.26
		c-0.02,0-0.04-0.02-0.04-0.04V8c0-0.09-0.02-0.16-0.06-0.2c-0.04-0.04-0.1-0.06-0.18-0.06c-0.06,0-0.11,0.01-0.17,0.04
		c-0.05,0.02-0.09,0.05-0.13,0.1c-0.01,0.01-0.01,0.02-0.01,0.03v0.95c0,0.02-0.02,0.04-0.04,0.04h-0.26
		c-0.02,0-0.04-0.02-0.04-0.04V7.51C133.31,7.48,133.33,7.46,133.35,7.46z"/>
	<path class="st2" d="M135.72,8.66v0.19c0,0.02-0.01,0.04-0.03,0.04c-0.07,0.01-0.14,0.02-0.21,0.02c-0.34,0-0.51-0.17-0.51-0.51
		V7.78c0-0.02-0.02-0.04-0.04-0.04h-0.16c-0.02,0-0.04-0.02-0.04-0.04V7.51c0-0.02,0.02-0.04,0.04-0.04h0.17
		c0.02,0,0.04-0.02,0.04-0.04l0.05-0.44c0-0.02,0.02-0.04,0.04-0.04h0.2c0.02,0,0.04,0.02,0.04,0.04v0.43
		c0,0.02,0.02,0.04,0.04,0.04h0.32c0.02,0,0.04,0.02,0.04,0.04V7.7c0,0.02-0.02,0.04-0.04,0.04h-0.32c-0.02,0-0.04,0.02-0.04,0.04
		v0.57c0,0.07,0.01,0.13,0.03,0.17c0.02,0.04,0.05,0.07,0.08,0.09c0.04,0.02,0.08,0.03,0.15,0.03c0.03,0,0.07,0,0.11-0.01
		C135.7,8.62,135.72,8.64,135.72,8.66z"/>
	<path class="st2" d="M135.97,7.17c-0.04-0.03-0.05-0.08-0.05-0.14c0-0.06,0.02-0.11,0.05-0.14c0.04-0.03,0.09-0.05,0.16-0.05
		c0.07,0,0.13,0.02,0.16,0.05c0.04,0.03,0.05,0.08,0.05,0.14c0,0.06-0.02,0.11-0.05,0.14c-0.04,0.03-0.09,0.05-0.16,0.05
		C136.06,7.22,136.01,7.2,135.97,7.17z M135.96,8.85V7.51c0-0.02,0.02-0.04,0.04-0.04h0.26c0.02,0,0.04,0.02,0.04,0.04v1.34
		c0,0.02-0.02,0.04-0.04,0.04H136C135.98,8.89,135.96,8.87,135.96,8.85z"/>
	<path class="st2" d="M136.63,7.46h0.21c0.02,0,0.04,0.01,0.04,0.04l0.02,0.12h0.02c0.05-0.06,0.12-0.1,0.19-0.13
		c0.07-0.03,0.15-0.04,0.24-0.04c0.15,0,0.26,0.04,0.35,0.13c0.09,0.09,0.13,0.22,0.13,0.41v0.87c0,0.02-0.02,0.04-0.04,0.04h-0.26
		c-0.02,0-0.04-0.02-0.04-0.04V8c0-0.09-0.02-0.16-0.06-0.2c-0.04-0.04-0.1-0.06-0.18-0.06c-0.06,0-0.11,0.01-0.17,0.04
		c-0.05,0.02-0.09,0.05-0.13,0.1c-0.01,0.01-0.01,0.02-0.01,0.03v0.95c0,0.02-0.02,0.04-0.04,0.04h-0.26
		c-0.02,0-0.04-0.02-0.04-0.04V7.51C136.59,7.48,136.61,7.46,136.63,7.46z"/>
	<path class="st2" d="M138.97,7.5c0.09,0.04,0.16,0.1,0.2,0.18c0.04,0.08,0.07,0.2,0.07,0.34v0.84c0,0.02-0.02,0.04-0.04,0.04h-0.21
		c-0.02,0-0.04-0.01-0.04-0.04l-0.02-0.11h-0.02c-0.04,0.06-0.1,0.1-0.17,0.13c-0.07,0.03-0.14,0.04-0.22,0.04
		c-0.09,0-0.17-0.02-0.24-0.05c-0.07-0.03-0.12-0.08-0.16-0.14c-0.04-0.06-0.05-0.13-0.05-0.21c0-0.13,0.05-0.23,0.14-0.31
		c0.09-0.07,0.23-0.12,0.43-0.13l0.27-0.02V7.99c0-0.07-0.01-0.13-0.03-0.17c-0.02-0.04-0.06-0.07-0.11-0.09
		c-0.05-0.02-0.12-0.03-0.2-0.03c-0.06,0-0.12,0.01-0.19,0.02c-0.05,0.01-0.1,0.02-0.14,0.03c-0.03,0.01-0.05-0.01-0.05-0.04V7.53
		c0-0.02,0.01-0.04,0.03-0.04c0.06-0.02,0.12-0.03,0.19-0.04c0.08-0.01,0.16-0.02,0.23-0.02C138.76,7.44,138.88,7.46,138.97,7.5z
		 M138.78,8.64c0.04-0.02,0.08-0.04,0.12-0.08c0.01-0.01,0.01-0.02,0.01-0.03V8.29c0-0.02-0.02-0.04-0.05-0.04l-0.19,0.02
		c-0.09,0.01-0.16,0.03-0.2,0.06c-0.04,0.03-0.06,0.08-0.06,0.14c0,0.06,0.02,0.11,0.06,0.14c0.04,0.03,0.09,0.05,0.16,0.05
		C138.68,8.67,138.73,8.66,138.78,8.64z"/>
</g>
<g>
	<g>
		<path class="st2" d="M128.66,4.44h0.31v1.42h-0.24V4.79l-0.39,0.87h-0.21l-0.39-0.85v1.05h-0.24V4.44h0.31l0.43,0.96L128.66,4.44z
			"/>
		<path class="st2" d="M129.24,4.6c-0.03-0.02-0.04-0.06-0.04-0.1s0.01-0.08,0.04-0.1c0.03-0.02,0.07-0.04,0.12-0.04
			c0.05,0,0.09,0.01,0.12,0.04c0.03,0.02,0.04,0.06,0.04,0.1s-0.01,0.08-0.04,0.1c-0.03,0.02-0.07,0.03-0.12,0.03
			C129.31,4.64,129.27,4.62,129.24,4.6z M129.23,5.86V4.82h0.25v1.05H129.23z"/>
		<path class="st2" d="M129.73,4.82h0.21l0.02,0.11h0.01c0.04-0.04,0.09-0.07,0.14-0.09c0.05-0.02,0.11-0.03,0.17-0.03
			c0.11,0,0.19,0.03,0.26,0.1c0.06,0.06,0.09,0.16,0.09,0.3v0.67h-0.25V5.21c0-0.07-0.01-0.12-0.04-0.15
			c-0.03-0.03-0.07-0.04-0.13-0.04c-0.04,0-0.08,0.01-0.12,0.03c-0.04,0.02-0.08,0.04-0.1,0.08v0.74h-0.25V4.82z"/>
		<path class="st2" d="M130.88,4.6c-0.03-0.02-0.04-0.06-0.04-0.1s0.01-0.08,0.04-0.1c0.03-0.02,0.07-0.04,0.12-0.04
			c0.05,0,0.09,0.01,0.12,0.04c0.03,0.02,0.04,0.06,0.04,0.1s-0.01,0.08-0.04,0.1c-0.03,0.02-0.07,0.03-0.12,0.03
			C130.95,4.64,130.91,4.62,130.88,4.6z M130.88,5.86V4.82h0.25v1.05H130.88z"/>
		<path class="st2" d="M131.35,5.84V5.65c0.1,0.03,0.21,0.05,0.32,0.05c0.07,0,0.13-0.01,0.16-0.03c0.03-0.02,0.05-0.05,0.05-0.1
			c0-0.03-0.01-0.06-0.03-0.08c-0.02-0.02-0.05-0.03-0.09-0.04l-0.16-0.03c-0.1-0.02-0.17-0.05-0.21-0.1
			c-0.04-0.05-0.07-0.11-0.07-0.19c0-0.07,0.02-0.12,0.05-0.17c0.03-0.05,0.09-0.09,0.16-0.11c0.07-0.03,0.16-0.04,0.26-0.04
			c0.1,0,0.19,0.01,0.27,0.03v0.19c-0.08-0.02-0.17-0.03-0.26-0.03c-0.16,0-0.24,0.04-0.24,0.13c0,0.03,0.01,0.06,0.03,0.07
			c0.02,0.02,0.05,0.03,0.09,0.04l0.16,0.03c0.1,0.02,0.17,0.05,0.21,0.1c0.05,0.05,0.07,0.11,0.07,0.2c0,0.07-0.02,0.12-0.05,0.17
			c-0.03,0.05-0.09,0.09-0.15,0.11c-0.07,0.03-0.15,0.04-0.24,0.04C131.55,5.88,131.44,5.87,131.35,5.84z"/>
		<path class="st2" d="M132.9,5.66v0.2c-0.06,0.01-0.12,0.02-0.18,0.02c-0.25,0-0.37-0.12-0.37-0.37V5.02h-0.18v-0.2h0.18l0.04-0.37
			h0.21v0.37h0.29v0.2h-0.29v0.45c0,0.05,0.01,0.09,0.02,0.12c0.01,0.03,0.03,0.05,0.06,0.06c0.03,0.01,0.06,0.02,0.11,0.02
			C132.82,5.67,132.86,5.67,132.9,5.66z"/>
		<path class="st2" d="M133.89,5.41h-0.65c0,0.07,0.02,0.12,0.04,0.16c0.02,0.04,0.06,0.07,0.1,0.09c0.05,0.02,0.11,0.03,0.19,0.03
			c0.08,0,0.16-0.01,0.26-0.04v0.19c-0.1,0.02-0.2,0.04-0.3,0.04c-0.12,0-0.23-0.02-0.31-0.06c-0.08-0.04-0.14-0.1-0.18-0.18
			c-0.04-0.08-0.06-0.18-0.06-0.31c0-0.12,0.02-0.22,0.05-0.3c0.04-0.08,0.09-0.14,0.16-0.18c0.07-0.04,0.15-0.06,0.25-0.06
			c0.14,0,0.25,0.05,0.32,0.14c0.07,0.09,0.11,0.23,0.11,0.41V5.41z M133.3,5.03c-0.04,0.05-0.05,0.12-0.06,0.23h0.41
			c0-0.11-0.02-0.19-0.05-0.23c-0.03-0.05-0.08-0.07-0.15-0.07C133.39,4.96,133.34,4.99,133.3,5.03z"/>
		<path class="st2" d="M134.08,4.82h0.21l0.02,0.14h0.01c0.03-0.05,0.07-0.09,0.12-0.11c0.05-0.02,0.11-0.04,0.17-0.04
			c0.03,0,0.06,0,0.08,0.01v0.23c-0.02,0-0.06-0.01-0.1-0.01c-0.05,0-0.1,0.01-0.15,0.03c-0.05,0.02-0.09,0.05-0.11,0.09v0.71h-0.25
			V4.82z"/>
		<path class="st2" d="M134.84,4.6c-0.03-0.02-0.04-0.06-0.04-0.1s0.01-0.08,0.04-0.1c0.03-0.02,0.07-0.04,0.12-0.04
			c0.05,0,0.09,0.01,0.12,0.04c0.03,0.02,0.04,0.06,0.04,0.1s-0.01,0.08-0.04,0.1c-0.03,0.02-0.07,0.03-0.12,0.03
			C134.91,4.64,134.87,4.62,134.84,4.6z M134.84,5.86V4.82h0.25v1.05H134.84z"/>
		<path class="st2" d="M135.42,5.74c-0.09-0.09-0.13-0.22-0.13-0.4c0-0.18,0.04-0.32,0.13-0.41c0.08-0.09,0.2-0.14,0.36-0.14
			c0.16,0,0.28,0.05,0.36,0.14c0.08,0.09,0.13,0.23,0.13,0.41c0,0.12-0.02,0.22-0.06,0.3c-0.04,0.08-0.1,0.14-0.17,0.18
			c-0.07,0.04-0.16,0.06-0.26,0.06C135.62,5.88,135.5,5.83,135.42,5.74z M135.95,5.61c0.04-0.05,0.06-0.14,0.06-0.27
			c0-0.13-0.02-0.22-0.06-0.27c-0.04-0.05-0.1-0.08-0.17-0.08c-0.08,0-0.14,0.03-0.17,0.08c-0.04,0.05-0.06,0.14-0.06,0.27
			c0,0.09,0.01,0.15,0.03,0.21c0.02,0.05,0.04,0.09,0.08,0.11c0.03,0.02,0.08,0.03,0.13,0.03C135.85,5.69,135.91,5.66,135.95,5.61z"
			/>
		<path class="st2" d="M137.1,5.83c-0.06-0.04-0.11-0.09-0.15-0.17c-0.04-0.08-0.06-0.18-0.06-0.3c0-0.18,0.05-0.32,0.14-0.42
			c0.09-0.1,0.23-0.14,0.41-0.14c0.04,0,0.09,0,0.14,0.01v-0.5h0.25v1.55h-0.21l-0.02-0.11h-0.01c-0.03,0.04-0.07,0.07-0.12,0.09
			c-0.05,0.02-0.1,0.03-0.16,0.03C137.23,5.88,137.16,5.86,137.1,5.83z M137.49,5.65c0.04-0.02,0.07-0.04,0.09-0.07V5.01
			c-0.04-0.01-0.09-0.01-0.14-0.01c-0.1,0-0.18,0.03-0.23,0.08c-0.05,0.05-0.07,0.14-0.07,0.26c0,0.12,0.02,0.21,0.06,0.26
			c0.04,0.05,0.1,0.08,0.18,0.08C137.42,5.67,137.46,5.66,137.49,5.65z"/>
		<path class="st2" d="M138.93,5.41h-0.65c0,0.07,0.02,0.12,0.04,0.16c0.02,0.04,0.06,0.07,0.1,0.09c0.05,0.02,0.11,0.03,0.19,0.03
			c0.08,0,0.16-0.01,0.26-0.04v0.19c-0.1,0.02-0.2,0.04-0.3,0.04c-0.12,0-0.23-0.02-0.31-0.06c-0.08-0.04-0.14-0.1-0.18-0.18
			c-0.04-0.08-0.06-0.18-0.06-0.31c0-0.12,0.02-0.22,0.05-0.3c0.04-0.08,0.09-0.14,0.16-0.18c0.07-0.04,0.15-0.06,0.25-0.06
			c0.14,0,0.25,0.05,0.32,0.14c0.07,0.09,0.11,0.23,0.11,0.41V5.41z M138.34,5.03c-0.04,0.05-0.05,0.12-0.06,0.23h0.41
			c0-0.11-0.02-0.19-0.05-0.23c-0.03-0.05-0.08-0.07-0.15-0.07C138.43,4.96,138.37,4.99,138.34,5.03z"/>
		<path class="st2" d="M139.12,5.86V4.31h0.25v1.55H139.12z"/>
		<path class="st2" d="M140.11,5.86V4.44h0.26v1.42H140.11z"/>
		<path class="st2" d="M140.63,4.82h0.21l0.02,0.11h0.01c0.04-0.04,0.09-0.07,0.14-0.09c0.05-0.02,0.11-0.03,0.17-0.03
			c0.11,0,0.19,0.03,0.26,0.1c0.06,0.06,0.09,0.16,0.09,0.3v0.67h-0.25V5.21c0-0.07-0.01-0.12-0.04-0.15
			c-0.03-0.03-0.07-0.04-0.13-0.04c-0.04,0-0.08,0.01-0.12,0.03c-0.04,0.02-0.08,0.04-0.1,0.08v0.74h-0.25V4.82z"/>
		<path class="st2" d="M142.4,5.66v0.2c-0.06,0.01-0.12,0.02-0.18,0.02c-0.25,0-0.37-0.12-0.37-0.37V5.02h-0.18v-0.2h0.18l0.04-0.37
			h0.21v0.37h0.29v0.2h-0.29v0.45c0,0.05,0.01,0.09,0.02,0.12c0.01,0.03,0.03,0.05,0.06,0.06c0.03,0.01,0.06,0.02,0.11,0.02
			C142.31,5.67,142.35,5.67,142.4,5.66z"/>
		<path class="st2" d="M143.39,5.41h-0.65c0,0.07,0.02,0.12,0.04,0.16c0.02,0.04,0.06,0.07,0.1,0.09c0.05,0.02,0.11,0.03,0.19,0.03
			c0.08,0,0.16-0.01,0.26-0.04v0.19c-0.1,0.02-0.2,0.04-0.3,0.04c-0.12,0-0.23-0.02-0.31-0.06c-0.08-0.04-0.14-0.1-0.18-0.18
			c-0.04-0.08-0.06-0.18-0.06-0.31c0-0.12,0.02-0.22,0.05-0.3c0.04-0.08,0.09-0.14,0.16-0.18c0.07-0.04,0.15-0.06,0.25-0.06
			c0.14,0,0.25,0.05,0.32,0.14c0.07,0.09,0.11,0.23,0.11,0.41V5.41z M142.79,5.03c-0.04,0.05-0.05,0.12-0.06,0.23h0.41
			c0-0.11-0.02-0.19-0.05-0.23c-0.03-0.05-0.08-0.07-0.15-0.07C142.88,4.96,142.83,4.99,142.79,5.03z"/>
		<path class="st2" d="M143.57,4.82h0.21l0.02,0.14h0.01c0.03-0.05,0.07-0.09,0.12-0.11c0.05-0.02,0.11-0.04,0.17-0.04
			c0.03,0,0.06,0,0.08,0.01v0.23c-0.02,0-0.06-0.01-0.1-0.01c-0.05,0-0.1,0.01-0.15,0.03c-0.05,0.02-0.09,0.05-0.11,0.09v0.71h-0.25
			V4.82z"/>
		<path class="st2" d="M144.34,4.6c-0.03-0.02-0.04-0.06-0.04-0.1s0.01-0.08,0.04-0.1c0.03-0.02,0.07-0.04,0.12-0.04
			c0.05,0,0.09,0.01,0.12,0.04c0.03,0.02,0.04,0.06,0.04,0.1s-0.01,0.08-0.04,0.1c-0.03,0.02-0.07,0.03-0.12,0.03
			C144.4,4.64,144.36,4.62,144.34,4.6z M144.33,5.86V4.82h0.25v1.05H144.33z"/>
		<path class="st2" d="M144.91,5.74c-0.09-0.09-0.13-0.22-0.13-0.4c0-0.18,0.04-0.32,0.13-0.41c0.08-0.09,0.2-0.14,0.36-0.14
			c0.16,0,0.28,0.05,0.36,0.14c0.08,0.09,0.13,0.23,0.13,0.41c0,0.12-0.02,0.22-0.06,0.3c-0.04,0.08-0.1,0.14-0.17,0.18
			c-0.07,0.04-0.16,0.06-0.26,0.06C145.12,5.88,145,5.83,144.91,5.74z M145.44,5.61c0.04-0.05,0.06-0.14,0.06-0.27
			c0-0.13-0.02-0.22-0.06-0.27c-0.04-0.05-0.1-0.08-0.17-0.08c-0.08,0-0.14,0.03-0.17,0.08c-0.04,0.05-0.06,0.14-0.06,0.27
			c0,0.09,0.01,0.15,0.03,0.21c0.02,0.05,0.04,0.09,0.08,0.11c0.03,0.02,0.08,0.03,0.13,0.03C145.35,5.69,145.4,5.66,145.44,5.61z"
			/>
		<path class="st2" d="M145.96,4.82h0.21l0.02,0.14h0.01c0.03-0.05,0.07-0.09,0.12-0.11c0.05-0.02,0.11-0.04,0.17-0.04
			c0.03,0,0.06,0,0.08,0.01v0.23c-0.02,0-0.06-0.01-0.1-0.01c-0.05,0-0.1,0.01-0.15,0.03c-0.05,0.02-0.09,0.05-0.11,0.09v0.71h-0.25
			V4.82z"/>
	</g>
</g>
</svg>
